<?xml version="1.0" ?>
<svg height="55.98mm" version="1.1" viewBox="-33.07 -83.97 66.14 55.98" width="66.14mm" xmlns="http://www.w3.org/2000/svg" xmlns:xlink="http://www.w3.org/1999/xlink">
	<g transform="scale(1,-1)">
		<path d="M -33.07,17.7799999999 L -33.07,17.7800000001 L -33.069903676,17.7819607207 L -33.069903676,17.7819607209 L -33.0698458667,17.7839229547 L -33.0698458667,17.7839229549 L -32.9447594071,19.3732971195 L -32.9447594071,19.3732971197 L -32.9442979575,19.3771958879 L -32.9442979574,19.3771958883 L -32.9435320365,19.3810464329 L -32.9435320364,19.3810464331 L -32.5713527016,20.9312849309 L -32.5713527016,20.9312849311 L -32.5702870314,20.9350635124 L -32.5702870313,20.9350635128 L -32.5689281822,20.9387468344 L -32.5689281821,20.9387468346 L -31.9588202624,22.4116776489 L -31.9588202623,22.4116776491 L -31.957176612,22.4152430022 L -31.9571766119,22.4152430025 L -31.955258294,22.4186684055 L -31.9552582939,22.4186684057 L -31.1222446711,23.7780230914 L -31.122244671,23.7780230916 L -31.1200635127,23.7812874257 L -31.1200635124,23.7812874261 L -31.1176329612,23.7843705656 L -31.1176329611,23.7843705658 L -30.0822251952,24.9966772992 L -30.0822251951,24.9966772993 L -30.079560236,24.9995602358 L -30.0795602358,24.999560236 L -30.0766772993,25.0022251951 L -30.0766772992,25.0022251952 L -28.8643705658,26.0376329611 L -28.8643705656,26.0376329612 L -28.8612874261,26.0400635124 L -28.8612874257,26.0400635127 L -28.8580230916,26.042244671 L -28.8580230914,26.0422446711 L -27.4986684057,26.8752582939 L -27.4986684055,26.875258294 L -27.4952430025,26.8771766119 L -27.4952430022,26.877176612 L -27.4916776491,26.8788202623 L -27.4916776489,26.8788202624 L -26.0187468346,27.4889281821 L -26.0187468344,27.4889281822 L -26.0150635128,27.4902870313 L -26.0150635124,27.4902870314 L -26.0112849311,27.4913527016 L -26.0112849309,27.4913527016 L -24.4610464331,27.8635320364 L -24.4610464329,27.8635320365 L -24.4571958883,27.8642979574 L -24.4571958879,27.8642979575 L -24.4532971197,27.8647594071 L -24.4532971195,27.8647594071 L -22.8639229549,27.9898458667 L -22.8639229547,27.9898458667 L -22.8619607209,27.989903676 L -22.8619607207,27.989903676 L -22.8600000001,27.99 L -22.8599999999,27.99 L 22.8599999999,27.99 L 22.8600000001,27.99 L 22.8619607207,27.989903676 L 22.8619607209,27.989903676 L 22.8639229547,27.9898458667 L 22.8639229549,27.9898458667 L 24.4532971195,27.8647594071 L 24.4532971197,27.8647594071 L 24.4571958879,27.8642979575 L 24.4571958883,27.8642979574 L 24.4610464329,27.8635320365 L 24.4610464331,27.8635320364 L 26.0112849309,27.4913527016 L 26.0112849311,27.4913527016 L 26.0150635124,27.4902870314 L 26.0150635128,27.4902870313 L 26.0187468344,27.4889281822 L 26.0187468346,27.4889281821 L 27.4916776489,26.8788202624 L 27.4916776491,26.8788202623 L 27.4952430022,26.877176612 L 27.4952430025,26.8771766119 L 27.4986684055,26.875258294 L 27.4986684057,26.8752582939 L 28.8580230914,26.0422446711 L 28.8580230916,26.042244671 L 28.8612874257,26.0400635127 L 28.8612874261,26.0400635124 L 28.8643705656,26.0376329612 L 28.8643705658,26.0376329611 L 30.0766772992,25.0022251952 L 30.0766772993,25.0022251951 L 30.0795602358,24.999560236 L 30.079560236,24.9995602358 L 30.0822251951,24.9966772993 L 30.0822251952,24.9966772992 L 31.1176329611,23.7843705658 L 31.1176329612,23.7843705656 L 31.1200635124,23.7812874261 L 31.1200635127,23.7812874257 L 31.122244671,23.7780230916 L 31.1222446711,23.7780230914 L 31.9552582939,22.4186684057 L 31.955258294,22.4186684055 L 31.9571766119,22.4152430025 L 31.957176612,22.4152430022 L 31.9588202623,22.4116776491 L 31.9588202624,22.4116776489 L 32.5689281821,20.9387468346 L 32.5689281822,20.9387468344 L 32.5702870313,20.9350635128 L 32.5702870314,20.9350635124 L 32.5713527016,20.9312849311 L 32.5713527016,20.9312849309 L 32.9435320364,19.3810464331 L 32.9435320365,19.3810464329 L 32.9442979574,19.3771958883 L 32.9442979575,19.3771958879 L 32.9447594071,19.3732971197 L 32.9447594071,19.3732971195 L 33.0698458667,17.7839229549 L 33.0698458667,17.7839229547 L 33.069903676,17.7819607209 L 33.069903676,17.7819607207 L 33.07,17.7800000001 L 33.07,17.7799999999 L 33.07,-17.7799999999 L 33.07,-17.7800000001 L 33.069903676,-17.7819607207 L 33.069903676,-17.7819607209 L 33.0698458667,-17.7839229547 L 33.0698458667,-17.7839229549 L 32.9447594071,-19.3732971195 L 32.9447594071,-19.3732971197 L 32.9442979575,-19.3771958879 L 32.9442979574,-19.3771958883 L 32.9435320365,-19.3810464329 L 32.9435320364,-19.3810464331 L 32.5713527016,-20.9312849309 L 32.5713527016,-20.9312849311 L 32.5702870314,-20.9350635124 L 32.5702870313,-20.9350635128 L 32.5689281822,-20.9387468344 L 32.5689281821,-20.9387468346 L 31.9588202624,-22.4116776489 L 31.9588202623,-22.4116776491 L 31.957176612,-22.4152430022 L 31.9571766119,-22.4152430025 L 31.955258294,-22.4186684055 L 31.9552582939,-22.4186684057 L 31.1222446711,-23.7780230914 L 31.122244671,-23.7780230916 L 31.1200635127,-23.7812874257 L 31.1200635124,-23.7812874261 L 31.1176329612,-23.7843705656 L 31.1176329611,-23.7843705658 L 30.0822251952,-24.9966772992 L 30.0822251951,-24.9966772993 L 30.079560236,-24.9995602358 L 30.0795602358,-24.999560236 L 30.0766772993,-25.0022251951 L 30.0766772992,-25.0022251952 L 28.8643705658,-26.0376329611 L 28.8643705656,-26.0376329612 L 28.8612874261,-26.0400635124 L 28.8612874257,-26.0400635127 L 28.8580230916,-26.042244671 L 28.8580230914,-26.0422446711 L 27.4986684057,-26.8752582939 L 27.4986684055,-26.875258294 L 27.4952430025,-26.8771766119 L 27.4952430022,-26.877176612 L 27.4916776491,-26.8788202623 L 27.4916776489,-26.8788202624 L 26.0187468346,-27.4889281821 L 26.0187468344,-27.4889281822 L 26.0150635128,-27.4902870313 L 26.0150635124,-27.4902870314 L 26.0112849311,-27.4913527016 L 26.0112849309,-27.4913527016 L 24.4610464331,-27.8635320364 L 24.4610464329,-27.8635320365 L 24.4571958883,-27.8642979574 L 24.4571958879,-27.8642979575 L 24.4532971197,-27.8647594071 L 24.4532971195,-27.8647594071 L 22.8639229549,-27.9898458667 L 22.8639229547,-27.9898458667 L 22.8619607209,-27.989903676 L 22.8619607207,-27.989903676 L 22.8600000001,-27.99 L 22.8599999999,-27.99 L -22.8599999999,-27.99 L -22.8600000001,-27.99 L -22.8619607207,-27.989903676 L -22.8619607209,-27.989903676 L -22.8639229547,-27.9898458667 L -22.8639229549,-27.9898458667 L -24.4532971195,-27.8647594071 L -24.4532971197,-27.8647594071 L -24.4571958879,-27.8642979575 L -24.4571958883,-27.8642979574 L -24.4610464329,-27.8635320365 L -24.4610464331,-27.8635320364 L -26.0112849309,-27.4913527016 L -26.0112849311,-27.4913527016 L -26.0150635124,-27.4902870314 L -26.0150635128,-27.4902870313 L -26.0187468344,-27.4889281822 L -26.0187468346,-27.4889281821 L -27.4916776489,-26.8788202624 L -27.4916776491,-26.8788202623 L -27.4952430022,-26.877176612 L -27.4952430025,-26.8771766119 L -27.4986684055,-26.875258294 L -27.4986684057,-26.8752582939 L -28.8580230914,-26.0422446711 L -28.8580230916,-26.042244671 L -28.8612874257,-26.0400635127 L -28.8612874261,-26.0400635124 L -28.8643705656,-26.0376329612 L -28.8643705658,-26.0376329611 L -30.0766772992,-25.0022251952 L -30.0766772993,-25.0022251951 L -30.0795602358,-24.999560236 L -30.079560236,-24.9995602358 L -30.0822251951,-24.9966772993 L -30.0822251952,-24.9966772992 L -31.1176329611,-23.7843705658 L -31.1176329612,-23.7843705656 L -31.1200635124,-23.7812874261 L -31.1200635127,-23.7812874257 L -31.122244671,-23.7780230916 L -31.1222446711,-23.7780230914 L -31.9552582939,-22.4186684057 L -31.955258294,-22.4186684055 L -31.9571766119,-22.4152430025 L -31.957176612,-22.4152430022 L -31.9588202623,-22.4116776491 L -31.9588202624,-22.4116776489 L -32.5689281821,-20.9387468346 L -32.5689281822,-20.9387468344 L -32.5702870313,-20.9350635128 L -32.5702870314,-20.9350635124 L -32.5713527016,-20.9312849311 L -32.5713527016,-20.9312849309 L -32.9435320364,-19.3810464331 L -32.9435320365,-19.3810464329 L -32.9442979574,-19.3771958883 L -32.9442979575,-19.3771958879 L -32.9447594071,-19.3732971197 L -32.9447594071,-19.3732971195 L -33.0698458667,-17.7839229549 L -33.0698458667,-17.7839229547 L -33.069903676,-17.7819607209 L -33.069903676,-17.7819607207 L -33.07,-17.7800000001 L -33.07,-17.7799999999 L -33.07,17.7799999999 z M -32.97,-17.7780354943 L -32.97,-17.778035495 L -32.8453764171,-19.3615282545 L -32.845376417,-19.3615282552 L -32.8453764168,-19.361528256 L -32.4750343372,-20.9041140353 L -32.4750343369,-20.904114036 L -32.4750343367,-20.9041140368 L -31.8679382014,-22.3697737602 L -31.8679382011,-22.3697737609 L -31.8679382007,-22.3697737616 L -31.0390367315,-23.7224180226 L -31.039036731,-23.7224180232 L -31.0390367306,-23.7224180238 L -30.0087402326,-24.9287402315 L -30.008740232,-24.928740232 L -30.0087402315,-24.9287402326 L -28.8024180238,-25.9590367306 L -28.8024180232,-25.959036731 L -28.8024180226,-25.9590367315 L -27.4497737616,-26.7879382007 L -27.4497737609,-26.7879382011 L -27.4497737602,-26.7879382014 L -25.9841140368,-27.3950343367 L -25.984114036,-27.3950343369 L -25.9841140353,-27.3950343372 L -24.441528256,-27.7653764168 L -24.4415282552,-27.765376417 L -24.4415282545,-27.7653764171 L -22.858035495,-27.89 L -22.8580354943,-27.89 L 22.8580354943,-27.89 L 22.858035495,-27.89 L 24.4415282545,-27.7653764171 L 24.4415282552,-27.765376417 L 24.441528256,-27.7653764168 L 25.9841140353,-27.3950343372 L 25.984114036,-27.3950343369 L 25.9841140368,-27.3950343367 L 27.4497737602,-26.7879382014 L 27.4497737609,-26.7879382011 L 27.4497737616,-26.7879382007 L 28.8024180226,-25.9590367315 L 28.8024180232,-25.959036731 L 28.8024180238,-25.9590367306 L 30.0087402315,-24.9287402326 L 30.008740232,-24.928740232 L 30.0087402326,-24.9287402315 L 31.0390367306,-23.7224180238 L 31.039036731,-23.7224180232 L 31.0390367315,-23.7224180226 L 31.8679382007,-22.3697737616 L 31.8679382011,-22.3697737609 L 31.8679382014,-22.3697737602 L 32.4750343367,-20.9041140368 L 32.4750343369,-20.904114036 L 32.4750343372,-20.9041140353 L 32.8453764168,-19.361528256 L 32.845376417,-19.3615282552 L 32.8453764171,-19.3615282545 L 32.97,-17.778035495 L 32.97,-17.7780354943 L 32.97,17.7780354943 L 32.97,17.778035495 L 32.8453764171,19.3615282545 L 32.845376417,19.3615282552 L 32.8453764168,19.361528256 L 32.4750343372,20.9041140353 L 32.4750343369,20.904114036 L 32.4750343367,20.9041140368 L 31.8679382014,22.3697737602 L 31.8679382011,22.3697737609 L 31.8679382007,22.3697737616 L 31.0390367315,23.7224180226 L 31.039036731,23.7224180232 L 31.0390367306,23.7224180238 L 30.0087402326,24.9287402315 L 30.008740232,24.928740232 L 30.0087402315,24.9287402326 L 28.8024180238,25.9590367306 L 28.8024180232,25.959036731 L 28.8024180226,25.9590367315 L 27.4497737616,26.7879382007 L 27.4497737609,26.7879382011 L 27.4497737602,26.7879382014 L 25.9841140368,27.3950343367 L 25.984114036,27.3950343369 L 25.9841140353,27.3950343372 L 24.441528256,27.7653764168 L 24.4415282552,27.765376417 L 24.4415282545,27.7653764171 L 22.858035495,27.89 L 22.8580354943,27.89 L -22.8580354943,27.89 L -22.858035495,27.89 L -24.4415282545,27.7653764171 L -24.4415282552,27.765376417 L -24.441528256,27.7653764168 L -25.9841140353,27.3950343372 L -25.984114036,27.3950343369 L -25.9841140368,27.3950343367 L -27.4497737602,26.7879382014 L -27.4497737609,26.7879382011 L -27.4497737616,26.7879382007 L -28.8024180226,25.9590367315 L -28.8024180232,25.959036731 L -28.8024180238,25.9590367306 L -30.0087402315,24.9287402326 L -30.008740232,24.928740232 L -30.0087402326,24.9287402315 L -31.0390367306,23.7224180238 L -31.039036731,23.7224180232 L -31.0390367315,23.7224180226 L -31.8679382007,22.3697737616 L -31.8679382011,22.3697737609 L -31.8679382014,22.3697737602 L -32.4750343367,20.9041140368 L -32.4750343369,20.904114036 L -32.4750343372,20.9041140353 L -32.8453764168,19.361528256 L -32.845376417,19.3615282552 L -32.8453764171,19.3615282545 L -32.97,17.778035495 L -32.97,17.7780354943 L -32.97,-17.7780354943 z" fill="#66cc99" fill-rule="evenodd" opacity="0.6" stroke="#555555" stroke-width="0.1"/>
	</g>
	 
</svg>
