<?xml version="1.0" standalone="no"?>
 <!DOCTYPE svg PUBLIC "-//W3C//DTD SVG 1.1//EN" 
 "http://www.w3.org/Graphics/SVG/1.1/DTD/svg11.dtd"> 
<svg xmlns="http://www.w3.org/2000/svg" version="1.1" 
    width="29.7002cm" height="21.0007cm" viewBox="0 0 116930 82680 ">
<title>SVG Picture created as LimitSwitchesPlugin-B.Cu.svg date 2017/07/05 23:01:51 </title>
  <desc>Picture generated by PCBNEW </desc>
<g style="fill:#000000; fill-opacity:1;stroke:#000000; stroke-opacity:1;
stroke-linecap:round; stroke-linejoin:round; "
 transform="translate(0 0) scale(1 1)">
</g>
<g style="fill:#000000; fill-opacity:0.0; 
stroke:#000000; stroke-width:-0.000393701; stroke-opacity:1; 
stroke-linecap:round; stroke-linejoin:round;">
</g>
<g style="fill:#000000; fill-opacity:0.0; 
stroke:#000000; stroke-width:39.3701; stroke-opacity:1; 
stroke-linecap:round; stroke-linejoin:round;">
<circle cx="66930" cy="21000" r="656.168" /> 
<path d="M67914 21000
L65945 21000
" />
<path d="M66930 20015
L66930 21984
" />
<circle cx="66930" cy="43000" r="656.168" /> 
<path d="M67914 43000
L65945 43000
" />
<path d="M66930 42015
L66930 43984
" />
<circle cx="40930" cy="43000" r="656.168" /> 
<path d="M41914 43000
L39945 43000
" />
<path d="M40930 42015
L40930 43984
" />
<circle cx="40930" cy="21000" r="656.168" /> 
<path d="M41914 21000
L39945 21000
" />
<path d="M40930 20015
L40930 21984
" />
<circle cx="40930" cy="21000" r="656.168" /> 
<path d="M41914 21000
L39945 21000
" />
<path d="M40930 20015
L40930 21984
" />
<circle cx="66930" cy="21000" r="656.168" /> 
<path d="M67914 21000
L65945 21000
" />
<path d="M66930 20015
L66930 21984
" />
<circle cx="66930" cy="43000" r="656.168" /> 
<path d="M67914 43000
L65945 43000
" />
<path d="M66930 42015
L66930 43984
" />
<circle cx="40930" cy="43000" r="656.168" /> 
<path d="M41914 43000
L39945 43000
" />
<path d="M40930 42015
L40930 43984
" />
<path d="M44930 43000
L62930 43000
" />
<path d="M62930 21000
L44930 21000
" />
<path d="M66930 39000
L66930 25000
" />
<path d="M40930 25000
L40930 39000
" />
<path d="M62930 43000 A4000 4000 0.0 0 0 66930 39000 " />
<path d="M40930 39000 A4000 4000 0.0 0 0 44930 43000 " />
<path d="M44930 21000 A4000 4000 0.0 0 0 40930 25000 " />
<path d="M66930 25000 A4000 4000 0.0 0 0 62930 21000 " />
</g>
<g style="fill:#000000; fill-opacity:0.0; 
stroke:#000000; stroke-width:0; stroke-opacity:1; 
stroke-linecap:round; stroke-linejoin:round;">
</g>
<g style="fill:#000000; fill-opacity:1.0; 
stroke:#000000; stroke-width:0; stroke-opacity:1; 
stroke-linecap:round; stroke-linejoin:round;">
<polyline style="fill-rule:evenodd;"
points="52085,36344
52774,36344
52774,35655
52085,35655
52085,36344
" /> 
<circle cx="52430" cy="35015.7" r="344.488" /> 
</g>
<g style="fill:#000000; fill-opacity:1.0; 
stroke:#000000; stroke-width:39.3701; stroke-opacity:1; 
stroke-linecap:round; stroke-linejoin:round;">
</g>
<g style="fill:#000000; fill-opacity:1.0; 
stroke:#000000; stroke-width:0; stroke-opacity:1; 
stroke-linecap:round; stroke-linejoin:round;">
<circle cx="52430" cy="34031.5" r="344.488" /> 
</g>
<g style="fill:#000000; fill-opacity:1.0; 
stroke:#000000; stroke-width:39.3701; stroke-opacity:1; 
stroke-linecap:round; stroke-linejoin:round;">
</g>
<g style="fill:#000000; fill-opacity:1.0; 
stroke:#000000; stroke-width:0; stroke-opacity:1; 
stroke-linecap:round; stroke-linejoin:round;">
<polyline style="fill-rule:evenodd;"
points="46764,25165
46095,25165
46095,25834
46764,25834
46764,25165
" /> 
</g>
<g style="fill:#000000; fill-opacity:1.0; 
stroke:#000000; stroke-width:669.291; stroke-opacity:1; 
stroke-linecap:round; stroke-linejoin:round;">
</g>
<g style="fill:#000000; fill-opacity:0.0; 
stroke:#000000; stroke-width:669.291; stroke-opacity:1; 
stroke-linecap:round; stroke-linejoin:round;">
<path d="M46430 26500
L46430 26500
" />
<path d="M47430 25500
L47430 25500
" />
<path d="M47430 26500
L47430 26500
" />
<path d="M48430 25500
L48430 25500
" />
<path d="M48430 26500
L48430 26500
" />
<path d="M49430 25500
L49430 25500
" />
<path d="M49430 26500
L49430 26500
" />
<path d="M50430 25500
L50430 25500
" />
<path d="M50430 26500
L50430 26500
" />
<path d="M51430 25500
L51430 25500
" />
<path d="M51430 26500
L51430 26500
" />
<path d="M52430 25500
L52430 25500
" />
<path d="M52430 26500
L52430 26500
" />
<path d="M53430 25500
L53430 25500
" />
<path d="M53430 26500
L53430 26500
" />
<path d="M54430 25500
L54430 25500
" />
<path d="M54430 26500
L54430 26500
" />
<path d="M55430 25500
L55430 25500
" />
<path d="M55430 26500
L55430 26500
" />
<path d="M56430 25500
L56430 25500
" />
<path d="M56430 26500
L56430 26500
" />
<path d="M57430 25500
L57430 25500
" />
<path d="M57430 26500
L57430 26500
" />
<path d="M58430 25500
L58430 25500
" />
<path d="M58430 26500
L58430 26500
" />
<path d="M59430 25500
L59430 25500
" />
<path d="M59430 26500
L59430 26500
" />
<path d="M60430 25500
L60430 25500
" />
<path d="M60430 26500
L60430 26500
" />
<path d="M61430 25500
L61430 25500
" />
<path d="M61430 26500
L61430 26500
" />
</g>
<g style="fill:#000000; fill-opacity:0.0; 
stroke:#000000; stroke-width:0; stroke-opacity:1; 
stroke-linecap:round; stroke-linejoin:round;">
</g>
<g style="fill:#000000; fill-opacity:1.0; 
stroke:#000000; stroke-width:0; stroke-opacity:1; 
stroke-linecap:round; stroke-linejoin:round;">
<polyline style="fill-rule:evenodd;"
points="61085,32344
61774,32344
61774,31655
61085,31655
61085,32344
" /> 
<circle cx="61430" cy="31015.7" r="344.488" /> 
</g>
<g style="fill:#000000; fill-opacity:1.0; 
stroke:#000000; stroke-width:39.3701; stroke-opacity:1; 
stroke-linecap:round; stroke-linejoin:round;">
</g>
<g style="fill:#000000; fill-opacity:1.0; 
stroke:#000000; stroke-width:0; stroke-opacity:1; 
stroke-linecap:round; stroke-linejoin:round;">
<polyline style="fill-rule:evenodd;"
points="47085,36344
47774,36344
47774,35655
47085,35655
47085,36344
" /> 
<circle cx="47430" cy="35015.7" r="344.488" /> 
</g>
<g style="fill:#000000; fill-opacity:1.0; 
stroke:#000000; stroke-width:39.3701; stroke-opacity:1; 
stroke-linecap:round; stroke-linejoin:round;">
</g>
<g style="fill:#000000; fill-opacity:1.0; 
stroke:#000000; stroke-width:0; stroke-opacity:1; 
stroke-linecap:round; stroke-linejoin:round;">
<circle cx="47430" cy="34031.5" r="344.488" /> 
</g>
<g style="fill:#000000; fill-opacity:1.0; 
stroke:#000000; stroke-width:39.3701; stroke-opacity:1; 
stroke-linecap:round; stroke-linejoin:round;">
</g>
<g style="fill:#000000; fill-opacity:1.0; 
stroke:#000000; stroke-width:0; stroke-opacity:1; 
stroke-linecap:round; stroke-linejoin:round;">
<polyline style="fill-rule:evenodd;"
points="47085,41344
47774,41344
47774,40655
47085,40655
47085,41344
" /> 
<circle cx="47430" cy="40015.7" r="344.488" /> 
</g>
<g style="fill:#000000; fill-opacity:1.0; 
stroke:#000000; stroke-width:39.3701; stroke-opacity:1; 
stroke-linecap:round; stroke-linejoin:round;">
</g>
<g style="fill:#000000; fill-opacity:1.0; 
stroke:#000000; stroke-width:0; stroke-opacity:1; 
stroke-linecap:round; stroke-linejoin:round;">
<circle cx="47430" cy="39031.5" r="344.488" /> 
</g>
<g style="fill:#000000; fill-opacity:1.0; 
stroke:#000000; stroke-width:39.3701; stroke-opacity:1; 
stroke-linecap:round; stroke-linejoin:round;">
</g>
<g style="fill:#000000; fill-opacity:1.0; 
stroke:#000000; stroke-width:0; stroke-opacity:1; 
stroke-linecap:round; stroke-linejoin:round;">
<polyline style="fill-rule:evenodd;"
points="52085,41344
52774,41344
52774,40655
52085,40655
52085,41344
" /> 
<circle cx="52430" cy="40015.7" r="344.488" /> 
</g>
<g style="fill:#000000; fill-opacity:1.0; 
stroke:#000000; stroke-width:39.3701; stroke-opacity:1; 
stroke-linecap:round; stroke-linejoin:round;">
</g>
<g style="fill:#000000; fill-opacity:1.0; 
stroke:#000000; stroke-width:0; stroke-opacity:1; 
stroke-linecap:round; stroke-linejoin:round;">
<circle cx="52430" cy="39031.5" r="344.488" /> 
</g>
<g style="fill:#000000; fill-opacity:1.0; 
stroke:#000000; stroke-width:39.3701; stroke-opacity:1; 
stroke-linecap:round; stroke-linejoin:round;">
</g>
<g style="fill:#000000; fill-opacity:1.0; 
stroke:#000000; stroke-width:0; stroke-opacity:1; 
stroke-linecap:round; stroke-linejoin:round;">
<polyline style="fill-rule:evenodd;"
points="57085,36344
57774,36344
57774,35655
57085,35655
57085,36344
" /> 
<circle cx="57430" cy="35015.7" r="344.488" /> 
</g>
<g style="fill:#000000; fill-opacity:1.0; 
stroke:#000000; stroke-width:39.3701; stroke-opacity:1; 
stroke-linecap:round; stroke-linejoin:round;">
</g>
<g style="fill:#000000; fill-opacity:1.0; 
stroke:#000000; stroke-width:0; stroke-opacity:1; 
stroke-linecap:round; stroke-linejoin:round;">
<circle cx="57430" cy="34031.5" r="344.488" /> 
</g>
<g style="fill:#000000; fill-opacity:1.0; 
stroke:#000000; stroke-width:39.3701; stroke-opacity:1; 
stroke-linecap:round; stroke-linejoin:round;">
</g>
<g style="fill:#000000; fill-opacity:1.0; 
stroke:#000000; stroke-width:0; stroke-opacity:1; 
stroke-linecap:round; stroke-linejoin:round;">
<polyline style="fill-rule:evenodd;"
points="57085,41344
57774,41344
57774,40655
57085,40655
57085,41344
" /> 
<circle cx="57430" cy="40015.7" r="344.488" /> 
</g>
<g style="fill:#000000; fill-opacity:1.0; 
stroke:#000000; stroke-width:39.3701; stroke-opacity:1; 
stroke-linecap:round; stroke-linejoin:round;">
</g>
<g style="fill:#000000; fill-opacity:1.0; 
stroke:#000000; stroke-width:0; stroke-opacity:1; 
stroke-linecap:round; stroke-linejoin:round;">
<circle cx="57430" cy="39031.5" r="344.488" /> 
</g>
<g style="fill:#000000; fill-opacity:1.0; 
stroke:#000000; stroke-width:39.3701; stroke-opacity:1; 
stroke-linecap:round; stroke-linejoin:round;">
</g>
<g style="fill:#000000; fill-opacity:1.0; 
stroke:#000000; stroke-width:0; stroke-opacity:1; 
stroke-linecap:round; stroke-linejoin:round;">
<circle cx="46930" cy="29000" r="393.701" /> 
</g>
<g style="fill:#000000; fill-opacity:1.0; 
stroke:#000000; stroke-width:39.3701; stroke-opacity:1; 
stroke-linecap:round; stroke-linejoin:round;">
</g>
<g style="fill:#000000; fill-opacity:1.0; 
stroke:#000000; stroke-width:0; stroke-opacity:1; 
stroke-linecap:round; stroke-linejoin:round;">
<circle cx="46430" cy="27500" r="393.701" /> 
</g>
<g style="fill:#000000; fill-opacity:1.0; 
stroke:#000000; stroke-width:39.3701; stroke-opacity:1; 
stroke-linecap:round; stroke-linejoin:round;">
</g>
<g style="fill:#000000; fill-opacity:1.0; 
stroke:#000000; stroke-width:0; stroke-opacity:1; 
stroke-linecap:round; stroke-linejoin:round;">
<circle cx="49430" cy="30000" r="393.701" /> 
</g>
<g style="fill:#000000; fill-opacity:1.0; 
stroke:#000000; stroke-width:39.3701; stroke-opacity:1; 
stroke-linecap:round; stroke-linejoin:round;">
</g>
<g style="fill:#000000; fill-opacity:1.0; 
stroke:#000000; stroke-width:0; stroke-opacity:1; 
stroke-linecap:round; stroke-linejoin:round;">
<circle cx="47430" cy="27500" r="393.701" /> 
</g>
<g style="fill:#000000; fill-opacity:1.0; 
stroke:#000000; stroke-width:39.3701; stroke-opacity:1; 
stroke-linecap:round; stroke-linejoin:round;">
</g>
<g style="fill:#000000; fill-opacity:1.0; 
stroke:#000000; stroke-width:0; stroke-opacity:1; 
stroke-linecap:round; stroke-linejoin:round;">
<circle cx="52430" cy="31000" r="393.701" /> 
</g>
<g style="fill:#000000; fill-opacity:1.0; 
stroke:#000000; stroke-width:39.3701; stroke-opacity:1; 
stroke-linecap:round; stroke-linejoin:round;">
</g>
<g style="fill:#000000; fill-opacity:1.0; 
stroke:#000000; stroke-width:0; stroke-opacity:1; 
stroke-linecap:round; stroke-linejoin:round;">
<circle cx="48430" cy="27500" r="393.701" /> 
</g>
<g style="fill:#000000; fill-opacity:1.0; 
stroke:#000000; stroke-width:39.3701; stroke-opacity:1; 
stroke-linecap:round; stroke-linejoin:round;">
</g>
<g style="fill:#000000; fill-opacity:1.0; 
stroke:#000000; stroke-width:0; stroke-opacity:1; 
stroke-linecap:round; stroke-linejoin:round;">
<circle cx="54430" cy="32000" r="393.701" /> 
</g>
<g style="fill:#000000; fill-opacity:1.0; 
stroke:#000000; stroke-width:39.3701; stroke-opacity:1; 
stroke-linecap:round; stroke-linejoin:round;">
</g>
<g style="fill:#000000; fill-opacity:1.0; 
stroke:#000000; stroke-width:0; stroke-opacity:1; 
stroke-linecap:round; stroke-linejoin:round;">
<circle cx="49430" cy="27500" r="393.701" /> 
</g>
<g style="fill:#000000; fill-opacity:1.0; 
stroke:#000000; stroke-width:39.3701; stroke-opacity:1; 
stroke-linecap:round; stroke-linejoin:round;">
</g>
<g style="fill:#000000; fill-opacity:1.0; 
stroke:#000000; stroke-width:0; stroke-opacity:1; 
stroke-linecap:round; stroke-linejoin:round;">
<circle cx="57430" cy="29500" r="393.701" /> 
</g>
<g style="fill:#000000; fill-opacity:1.0; 
stroke:#000000; stroke-width:39.3701; stroke-opacity:1; 
stroke-linecap:round; stroke-linejoin:round;">
</g>
<g style="fill:#000000; fill-opacity:1.0; 
stroke:#000000; stroke-width:0; stroke-opacity:1; 
stroke-linecap:round; stroke-linejoin:round;">
<circle cx="54430" cy="29500" r="393.701" /> 
</g>
<g style="fill:#000000; fill-opacity:1.0; 
stroke:#000000; stroke-width:39.3701; stroke-opacity:1; 
stroke-linecap:round; stroke-linejoin:round;">
</g>
<g style="fill:#000000; fill-opacity:1.0; 
stroke:#000000; stroke-width:0; stroke-opacity:1; 
stroke-linecap:round; stroke-linejoin:round;">
<circle cx="59430" cy="28500" r="393.701" /> 
</g>
<g style="fill:#000000; fill-opacity:1.0; 
stroke:#000000; stroke-width:39.3701; stroke-opacity:1; 
stroke-linecap:round; stroke-linejoin:round;">
</g>
<g style="fill:#000000; fill-opacity:1.0; 
stroke:#000000; stroke-width:0; stroke-opacity:1; 
stroke-linecap:round; stroke-linejoin:round;">
<circle cx="56430" cy="28500" r="393.701" /> 
</g>
<g style="fill:#000000; fill-opacity:1.0; 
stroke:#000000; stroke-width:39.3701; stroke-opacity:1; 
stroke-linecap:round; stroke-linejoin:round;">
</g>
<g style="fill:#000000; fill-opacity:1.0; 
stroke:#000000; stroke-width:0; stroke-opacity:1; 
stroke-linecap:round; stroke-linejoin:round;">
<circle cx="61430" cy="27500" r="393.701" /> 
</g>
<g style="fill:#000000; fill-opacity:1.0; 
stroke:#000000; stroke-width:39.3701; stroke-opacity:1; 
stroke-linecap:round; stroke-linejoin:round;">
</g>
<g style="fill:#000000; fill-opacity:1.0; 
stroke:#000000; stroke-width:0; stroke-opacity:1; 
stroke-linecap:round; stroke-linejoin:round;">
<circle cx="58430" cy="27500" r="393.701" /> 
</g>
<g style="fill:#000000; fill-opacity:1.0; 
stroke:#000000; stroke-width:39.3701; stroke-opacity:1; 
stroke-linecap:round; stroke-linejoin:round;">
</g>
<g style="fill:#000000; fill-opacity:1.0; 
stroke:#000000; stroke-width:0; stroke-opacity:1; 
stroke-linecap:round; stroke-linejoin:round;">
<circle cx="62430" cy="25500" r="393.701" /> 
</g>
<g style="fill:#000000; fill-opacity:1.0; 
stroke:#000000; stroke-width:39.3701; stroke-opacity:1; 
stroke-linecap:round; stroke-linejoin:round;">
</g>
<g style="fill:#000000; fill-opacity:1.0; 
stroke:#000000; stroke-width:500; stroke-opacity:1; 
stroke-linecap:round; stroke-linejoin:round;">
</g>
<g style="fill:#000000; fill-opacity:0.0; 
stroke:#000000; stroke-width:500; stroke-opacity:1; 
stroke-linecap:round; stroke-linejoin:round;">
<path d="M47398 34000
L47441 33999
" />
<path d="M47441 33999
L47430 29500
" />
<path d="M47430 29500
L46898 29031
" />
<path d="M47398 34000
L47430 34031
" />
<path d="M46930 29000
L46898 29031
" />
<path d="M46898 29031
L46930 29000
" />
<path d="M47430 35015
L46430 35000
" />
<path d="M46430 35000
L45930 34500
" />
<path d="M45930 34500
L45930 34500
" />
<path d="M47430 35015
L47445 35031
" />
<path d="M45930 34500
L45930 28000
" />
<path d="M45930 28000
L46430 27500
" />
<path d="M45930 34500
L45945 34484
" />
<path d="M47461 39000
L48430 39000
" />
<path d="M48430 39000
L49430 38000
" />
<path d="M49430 38000
L49398 30031
" />
<path d="M47461 39000
L47430 39031
" />
<path d="M49430 30000
L49398 30031
" />
<path d="M49398 30031
L49430 30000
" />
<path d="M46430 38000
L46430 39500
" />
<path d="M46445 39515
L46930 40000
" />
<path d="M46930 40000
L47430 40015
" />
<path d="M46430 39500
L46445 39515
" />
<path d="M48430 37000
L47930 37500
" />
<path d="M47930 37500
L46930 37500
" />
<path d="M46930 37500
L46430 38000
" />
<path d="M46430 38000
L46445 38015
" />
<path d="M48430 37000
L48430 29000
" />
<path d="M47430 28000
L47430 27500
" />
<path d="M48430 29000
L47430 28000
" />
<path d="M48430 37000
L48430 37000
" />
<path d="M48430 37000
L48445 36984
" />
<path d="M52430 31000
L52430 34000
" />
<path d="M52430 34000
L52330 34100
" />
<path d="M52430 31000
L52398 31031
" />
<path d="M51430 30500
L51430 30500
" />
<path d="M51430 30500
L51430 30500
" />
<path d="M51430 30500
L51430 30500
" />
<path d="M51430 30500
L49430 28500
" />
<path d="M49430 28500
L48930 28500
" />
<path d="M48930 28500
L48430 28000
" />
<path d="M48430 28000
L48430 27500
" />
<path d="M48430 27500
L48430 27744
" />
<path d="M48430 27744
L48414 27515
" />
<path d="M48414 27515
L48430 27500
" />
<path d="M51430 30500
L51430 34500
" />
<path d="M51430 34500
L51930 35000
" />
<path d="M51930 35000
L52430 35000
" />
<path d="M52430 35000
L52445 34984
" />
<path d="M53430 39000
L54430 38000
" />
<path d="M52461 39000
L53430 39000
" />
<path d="M54430 38000
L54430 32000
" />
<path d="M52461 39000
L52430 39031
" />
<path d="M54430 32000
L54398 32031
" />
<path d="M53430 37000
L52930 37500
" />
<path d="M52930 37500
L51930 37500
" />
<path d="M53430 29000
L53430 37000
" />
<path d="M51430 39500
L51930 40015
" />
<path d="M51930 40015
L52430 40015
" />
<path d="M51414 39484
L51430 39500
" />
<path d="M51930 37500
L51430 38000
" />
<path d="M51430 38000
L51414 39484
" />
<path d="M53430 29000
L51930 27500
" />
<path d="M51930 27500
L49430 27500
" />
<path d="M57430 34031
L57430 29500
" />
<path d="M57430 29500
L57398 29531
" />
<path d="M57430 34000
L57461 33968
" />
<path d="M56430 34500
L56430 31500
" />
<path d="M56930 35000
L56430 34500
" />
<path d="M57414 35000
L56930 35000
" />
<path d="M56430 31500
L54430 29500
" />
<path d="M54430 29500
L54430 29500
" />
<path d="M57414 35000
L57430 35015
" />
<path d="M58430 39000
L59430 38000
" />
<path d="M57430 39000
L58430 39000
" />
<path d="M59430 38000
L59430 28500
" />
<path d="M59430 28500
L59398 28531
" />
<path d="M56930 37500
L56430 38000
" />
<path d="M56430 38000
L56430 39500
" />
<path d="M58430 37000
L57930 37500
" />
<path d="M57930 37500
L56930 37500
" />
<path d="M56445 39515
L56930 40015
" />
<path d="M56930 40015
L57430 40015
" />
<path d="M56430 39500
L56445 39515
" />
<path d="M58430 37000
L58430 36968
" />
<path d="M56430 28500
L56430 28500
" />
<path d="M58430 29000
L57930 28500
" />
<path d="M57930 28500
L56430 28500
" />
<path d="M58430 36968
L58430 29000
" />
<path d="M58430 37000
L58445 36984
" />
<path d="M61414 27515
L61430 31000
" />
<path d="M61430 27500
L61414 27515
" />
<path d="M61430 31000
L61445 30984
" />
<path d="M60430 31500
L60430 28000
" />
<path d="M60430 28000
L59930 27500
" />
<path d="M59930 27500
L58430 27500
" />
<path d="M60430 31500
L60430 31500
" />
<path d="M60430 31500
L60930 32000
" />
<path d="M60930 32000
L61430 32000
" />
<path d="M52430 41000
L55430 41000
" />
<path d="M47430 41000
L50430 41000
" />
<path d="M52430 41000
L50430 41000
" />
<path d="M45430 40500
L45930 41000
" />
<path d="M45930 41000
L47430 41000
" />
<path d="M55430 41000
L57430 41000
" />
<path d="M57430 36000
L55930 36000
" />
<path d="M55930 36000
L55430 36500
" />
<path d="M55430 36500
L55430 41000
" />
<path d="M62430 25500
L62430 38000
" />
<path d="M57430 41000
L59430 41000
" />
<path d="M59430 41000
L62430 38000
" />
<path d="M52430 36000
L50930 36000
" />
<path d="M50930 36000
L50430 36500
" />
<path d="M50430 36500
L50430 41000
" />
<path d="M47430 36000
L45930 36000
" />
<path d="M45930 36000
L45430 36500
" />
<path d="M45430 36500
L45430 40500
" />
</g> 
</svg>
