<?xml version="1.0" standalone="no"?>
 <!DOCTYPE svg PUBLIC "-//W3C//DTD SVG 1.1//EN" 
 "http://www.w3.org/Graphics/SVG/1.1/DTD/svg11.dtd"> 
<svg xmlns="http://www.w3.org/2000/svg" version="1.1" 
    width="29.7002cm" height="21.0007cm" viewBox="0 0 116930 82680 ">
<title>SVG Picture created as LimitSwitchesPlugin-B.Mask.svg date 2017/07/15 20:08:50 </title>
  <desc>Picture generated by PCBNEW </desc>
<g style="fill:#000000; fill-opacity:1;stroke:#000000; stroke-opacity:1;
stroke-linecap:round; stroke-linejoin:round; "
 transform="translate(0 0) scale(1 1)">
</g>
<g style="fill:#000000; fill-opacity:0.0; 
stroke:#000000; stroke-width:-0.000393701; stroke-opacity:1; 
stroke-linecap:round; stroke-linejoin:round;">
</g>
<g style="fill:#000000; fill-opacity:0.0; 
stroke:#000000; stroke-width:118.11; stroke-opacity:1; 
stroke-linecap:round; stroke-linejoin:round;">
<path d="M54025 15645
L54390 15645
L54194 15870
L54278 15870
L54334 15898
L54362 15926
L54390 15982
L54390 16123
L54362 16179
L54334 16207
L54278 16235
L54109 16235
L54053 16207
L54025 16179
" />
<path d="M54587 15645
L54953 15645
L54756 15870
L54840 15870
L54897 15898
L54925 15926
L54953 15982
L54953 16123
L54925 16179
L54897 16207
L54840 16235
L54672 16235
L54615 16207
L54587 16179
" />
<path d="M55206 16179
L55234 16207
L55206 16235
L55178 16207
L55206 16179
L55206 16235
" />
<path d="M55600 15645
L55656 15645
L55712 15673
L55740 15701
L55768 15757
L55796 15870
L55796 16010
L55768 16123
L55740 16179
L55712 16207
L55656 16235
L55600 16235
L55543 16207
L55515 16179
L55487 16123
L55459 16010
L55459 15870
L55487 15757
L55515 15701
L55543 15673
L55600 15645
" />
<path d="M56021 15701
L56050 15673
L56106 15645
L56246 15645
L56303 15673
L56331 15701
L56359 15757
L56359 15813
L56331 15898
L55993 16235
L56359 16235
" />
<path d="M56724 15645
L56781 15645
L56837 15673
L56865 15701
L56893 15757
L56921 15870
L56921 16010
L56893 16123
L56865 16179
L56837 16207
L56781 16235
L56724 16235
L56668 16207
L56640 16179
L56612 16123
L56584 16010
L56584 15870
L56612 15757
L56640 15701
L56668 15673
L56724 15645
" />
<path d="M57624 16235
L57624 15841
" />
<path d="M57624 15898
L57652 15870
L57709 15841
L57793 15841
L57849 15870
L57877 15926
L57877 16235
" />
<path d="M57877 15926
L57906 15870
L57962 15841
L58046 15841
L58102 15870
L58131 15926
L58131 16235
" />
<path d="M58412 16235
L58412 15841
" />
<path d="M58412 15898
L58440 15870
L58496 15841
L58580 15841
L58637 15870
L58665 15926
L58665 16235
" />
<path d="M58665 15926
L58693 15870
L58749 15841
L58834 15841
L58890 15870
L58918 15926
L58918 16235
" />
<path d="M50000 16500
L63000 16500
" />
<path d="M50000 21000
L50000 15437
" />
<path d="M63000 21000
L63000 15437
" />
<path d="M63000 16500
L62556 16730
" />
<path d="M63000 16500
L62556 16269
" />
<path d="M50000 16500
L50443 16730
" />
<path d="M50000 16500
L50443 16269
" />
<path d="M81764 39946
L81736 39918
L81708 39862
L81708 39721
L81736 39665
L81764 39637
L81820 39609
L81876 39609
L81961 39637
L82298 39974
L82298 39609
" />
<path d="M81708 39412
L81708 39018
L82298 39271
" />
<path d="M82242 38793
L82270 38765
L82298 38793
L82270 38821
L82242 38793
L82298 38793
" />
<path d="M82298 38484
L82298 38371
L82270 38315
L82242 38287
L82158 38231
L82045 38203
L81820 38203
L81764 38231
L81736 38259
L81708 38315
L81708 38428
L81736 38484
L81764 38512
L81820 38540
L81961 38540
L82017 38512
L82045 38484
L82073 38428
L82073 38315
L82045 38259
L82017 38231
L81961 38203
" />
<path d="M81904 37696
L82298 37696
" />
<path d="M81679 37837
L82101 37978
L82101 37612
" />
<path d="M81708 37275
L81708 37218
L81736 37162
L81764 37134
L81820 37106
L81933 37078
L82073 37078
L82186 37106
L82242 37134
L82270 37162
L82298 37218
L82298 37275
L82270 37331
L82242 37359
L82186 37387
L82073 37415
L81933 37415
L81820 37387
L81764 37359
L81736 37331
L81708 37275
" />
<path d="M82298 36375
L81904 36375
" />
<path d="M81961 36375
L81933 36347
L81904 36290
L81904 36206
L81933 36150
L81989 36122
L82298 36122
" />
<path d="M81989 36122
L81933 36093
L81904 36037
L81904 35953
L81933 35897
L81989 35868
L82298 35868
" />
<path d="M82298 35587
L81904 35587
" />
<path d="M81961 35587
L81933 35559
L81904 35503
L81904 35419
L81933 35362
L81989 35334
L82298 35334
" />
<path d="M81989 35334
L81933 35306
L81904 35250
L81904 35165
L81933 35109
L81989 35081
L82298 35081
" />
<path d="M81500 43000
L81500 32000
" />
<path d="M76000 43000
L82562 43000
" />
<path d="M76000 32000
L82562 32000
" />
<path d="M81500 32000
L81730 32443
" />
<path d="M81500 32000
L81269 32443
" />
<path d="M81500 43000
L81730 42556
" />
<path d="M81500 43000
L81269 42556
" />
</g>
<g style="fill:#000000; fill-opacity:0.0; 
stroke:#000000; stroke-width:0; stroke-opacity:1; 
stroke-linecap:round; stroke-linejoin:round;">
</g>
<g style="fill:#000000; fill-opacity:1.0; 
stroke:#000000; stroke-width:0; stroke-opacity:1; 
stroke-linecap:round; stroke-linejoin:round;">
<polyline style="fill-rule:evenodd;"
points="64844,36344
64155,36344
64155,35655
64844,35655
64844,36344
" /> 
<circle cx="64500" cy="35015.7" r="344.488" /> 
</g>
<g style="fill:#000000; fill-opacity:1.0; 
stroke:#000000; stroke-width:39.3701; stroke-opacity:1; 
stroke-linecap:round; stroke-linejoin:round;">
</g>
<g style="fill:#000000; fill-opacity:1.0; 
stroke:#000000; stroke-width:0; stroke-opacity:1; 
stroke-linecap:round; stroke-linejoin:round;">
<circle cx="64500" cy="34031.5" r="344.488" /> 
</g>
<g style="fill:#000000; fill-opacity:1.0; 
stroke:#000000; stroke-width:39.3701; stroke-opacity:1; 
stroke-linecap:round; stroke-linejoin:round;">
</g>
<g style="fill:#000000; fill-opacity:1.0; 
stroke:#000000; stroke-width:0; stroke-opacity:1; 
stroke-linecap:round; stroke-linejoin:round;">
<polyline style="fill-rule:evenodd;"
points="70165,25165
70834,25165
70834,25834
70165,25834
70165,25165
" /> 
</g>
<g style="fill:#000000; fill-opacity:1.0; 
stroke:#000000; stroke-width:669.291; stroke-opacity:1; 
stroke-linecap:round; stroke-linejoin:round;">
</g>
<g style="fill:#000000; fill-opacity:0.0; 
stroke:#000000; stroke-width:669.291; stroke-opacity:1; 
stroke-linecap:round; stroke-linejoin:round;">
<path d="M70500 26500
L70500 26500
" />
<path d="M69500 25500
L69500 25500
" />
<path d="M69500 26500
L69500 26500
" />
<path d="M68500 25500
L68500 25500
" />
<path d="M68500 26500
L68500 26500
" />
<path d="M67500 25500
L67500 25500
" />
<path d="M67500 26500
L67500 26500
" />
<path d="M66500 25500
L66500 25500
" />
<path d="M66500 26500
L66500 26500
" />
<path d="M65500 25500
L65500 25500
" />
<path d="M65500 26500
L65500 26500
" />
<path d="M64500 25500
L64500 25500
" />
<path d="M64500 26500
L64500 26500
" />
<path d="M63500 25500
L63500 25500
" />
<path d="M63500 26500
L63500 26500
" />
<path d="M62500 25500
L62500 25500
" />
<path d="M62500 26500
L62500 26500
" />
<path d="M61500 25500
L61500 25500
" />
<path d="M61500 26500
L61500 26500
" />
<path d="M60500 25500
L60500 25500
" />
<path d="M60500 26500
L60500 26500
" />
<path d="M59500 25500
L59500 25500
" />
<path d="M59500 26500
L59500 26500
" />
<path d="M58500 25500
L58500 25500
" />
<path d="M58500 26500
L58500 26500
" />
<path d="M57500 25500
L57500 25500
" />
<path d="M57500 26500
L57500 26500
" />
<path d="M56500 25500
L56500 25500
" />
<path d="M56500 26500
L56500 26500
" />
<path d="M55500 25500
L55500 25500
" />
<path d="M55500 26500
L55500 26500
" />
</g>
<g style="fill:#000000; fill-opacity:0.0; 
stroke:#000000; stroke-width:0; stroke-opacity:1; 
stroke-linecap:round; stroke-linejoin:round;">
</g>
<g style="fill:#000000; fill-opacity:1.0; 
stroke:#000000; stroke-width:0; stroke-opacity:1; 
stroke-linecap:round; stroke-linejoin:round;">
<polyline style="fill-rule:evenodd;"
points="55844,32344
55155,32344
55155,31655
55844,31655
55844,32344
" /> 
<circle cx="55500" cy="31015.7" r="344.488" /> 
</g>
<g style="fill:#000000; fill-opacity:1.0; 
stroke:#000000; stroke-width:39.3701; stroke-opacity:1; 
stroke-linecap:round; stroke-linejoin:round;">
</g>
<g style="fill:#000000; fill-opacity:1.0; 
stroke:#000000; stroke-width:0; stroke-opacity:1; 
stroke-linecap:round; stroke-linejoin:round;">
<polyline style="fill-rule:evenodd;"
points="69844,36344
69155,36344
69155,35655
69844,35655
69844,36344
" /> 
<circle cx="69500" cy="35015.7" r="344.488" /> 
</g>
<g style="fill:#000000; fill-opacity:1.0; 
stroke:#000000; stroke-width:39.3701; stroke-opacity:1; 
stroke-linecap:round; stroke-linejoin:round;">
</g>
<g style="fill:#000000; fill-opacity:1.0; 
stroke:#000000; stroke-width:0; stroke-opacity:1; 
stroke-linecap:round; stroke-linejoin:round;">
<circle cx="69500" cy="34031.5" r="344.488" /> 
</g>
<g style="fill:#000000; fill-opacity:1.0; 
stroke:#000000; stroke-width:39.3701; stroke-opacity:1; 
stroke-linecap:round; stroke-linejoin:round;">
</g>
<g style="fill:#000000; fill-opacity:1.0; 
stroke:#000000; stroke-width:0; stroke-opacity:1; 
stroke-linecap:round; stroke-linejoin:round;">
<polyline style="fill-rule:evenodd;"
points="69844,41344
69155,41344
69155,40655
69844,40655
69844,41344
" /> 
<circle cx="69500" cy="40015.7" r="344.488" /> 
</g>
<g style="fill:#000000; fill-opacity:1.0; 
stroke:#000000; stroke-width:39.3701; stroke-opacity:1; 
stroke-linecap:round; stroke-linejoin:round;">
</g>
<g style="fill:#000000; fill-opacity:1.0; 
stroke:#000000; stroke-width:0; stroke-opacity:1; 
stroke-linecap:round; stroke-linejoin:round;">
<circle cx="69500" cy="39031.5" r="344.488" /> 
</g>
<g style="fill:#000000; fill-opacity:1.0; 
stroke:#000000; stroke-width:39.3701; stroke-opacity:1; 
stroke-linecap:round; stroke-linejoin:round;">
</g>
<g style="fill:#000000; fill-opacity:1.0; 
stroke:#000000; stroke-width:0; stroke-opacity:1; 
stroke-linecap:round; stroke-linejoin:round;">
<polyline style="fill-rule:evenodd;"
points="64844,41344
64155,41344
64155,40655
64844,40655
64844,41344
" /> 
<circle cx="64500" cy="40015.7" r="344.488" /> 
</g>
<g style="fill:#000000; fill-opacity:1.0; 
stroke:#000000; stroke-width:39.3701; stroke-opacity:1; 
stroke-linecap:round; stroke-linejoin:round;">
</g>
<g style="fill:#000000; fill-opacity:1.0; 
stroke:#000000; stroke-width:0; stroke-opacity:1; 
stroke-linecap:round; stroke-linejoin:round;">
<circle cx="64500" cy="39031.5" r="344.488" /> 
</g>
<g style="fill:#000000; fill-opacity:1.0; 
stroke:#000000; stroke-width:39.3701; stroke-opacity:1; 
stroke-linecap:round; stroke-linejoin:round;">
</g>
<g style="fill:#000000; fill-opacity:1.0; 
stroke:#000000; stroke-width:0; stroke-opacity:1; 
stroke-linecap:round; stroke-linejoin:round;">
<polyline style="fill-rule:evenodd;"
points="59844,36344
59155,36344
59155,35655
59844,35655
59844,36344
" /> 
<circle cx="59500" cy="35015.7" r="344.488" /> 
</g>
<g style="fill:#000000; fill-opacity:1.0; 
stroke:#000000; stroke-width:39.3701; stroke-opacity:1; 
stroke-linecap:round; stroke-linejoin:round;">
</g>
<g style="fill:#000000; fill-opacity:1.0; 
stroke:#000000; stroke-width:0; stroke-opacity:1; 
stroke-linecap:round; stroke-linejoin:round;">
<circle cx="59500" cy="34031.5" r="344.488" /> 
</g>
<g style="fill:#000000; fill-opacity:1.0; 
stroke:#000000; stroke-width:39.3701; stroke-opacity:1; 
stroke-linecap:round; stroke-linejoin:round;">
</g>
<g style="fill:#000000; fill-opacity:1.0; 
stroke:#000000; stroke-width:0; stroke-opacity:1; 
stroke-linecap:round; stroke-linejoin:round;">
<polyline style="fill-rule:evenodd;"
points="59844,41344
59155,41344
59155,40655
59844,40655
59844,41344
" /> 
<circle cx="59500" cy="40015.7" r="344.488" /> 
</g>
<g style="fill:#000000; fill-opacity:1.0; 
stroke:#000000; stroke-width:39.3701; stroke-opacity:1; 
stroke-linecap:round; stroke-linejoin:round;">
</g>
<g style="fill:#000000; fill-opacity:1.0; 
stroke:#000000; stroke-width:0; stroke-opacity:1; 
stroke-linecap:round; stroke-linejoin:round;">
<circle cx="59500" cy="39031.5" r="344.488" /> 
</g>
<g style="fill:#000000; fill-opacity:1.0; 
stroke:#000000; stroke-width:39.3701; stroke-opacity:1; 
stroke-linecap:round; stroke-linejoin:round;">
</g>
<g style="fill:#000000; fill-opacity:1.0; 
stroke:#000000; stroke-width:0; stroke-opacity:1; 
stroke-linecap:round; stroke-linejoin:round;">
<circle cx="70000" cy="29000" r="393.701" /> 
</g>
<g style="fill:#000000; fill-opacity:1.0; 
stroke:#000000; stroke-width:39.3701; stroke-opacity:1; 
stroke-linecap:round; stroke-linejoin:round;">
</g>
<g style="fill:#000000; fill-opacity:1.0; 
stroke:#000000; stroke-width:0; stroke-opacity:1; 
stroke-linecap:round; stroke-linejoin:round;">
<circle cx="70500" cy="27500" r="393.701" /> 
</g>
<g style="fill:#000000; fill-opacity:1.0; 
stroke:#000000; stroke-width:39.3701; stroke-opacity:1; 
stroke-linecap:round; stroke-linejoin:round;">
</g>
<g style="fill:#000000; fill-opacity:1.0; 
stroke:#000000; stroke-width:0; stroke-opacity:1; 
stroke-linecap:round; stroke-linejoin:round;">
<circle cx="67500" cy="30000" r="393.701" /> 
</g>
<g style="fill:#000000; fill-opacity:1.0; 
stroke:#000000; stroke-width:39.3701; stroke-opacity:1; 
stroke-linecap:round; stroke-linejoin:round;">
</g>
<g style="fill:#000000; fill-opacity:1.0; 
stroke:#000000; stroke-width:0; stroke-opacity:1; 
stroke-linecap:round; stroke-linejoin:round;">
<circle cx="69500" cy="27500" r="393.701" /> 
</g>
<g style="fill:#000000; fill-opacity:1.0; 
stroke:#000000; stroke-width:39.3701; stroke-opacity:1; 
stroke-linecap:round; stroke-linejoin:round;">
</g>
<g style="fill:#000000; fill-opacity:1.0; 
stroke:#000000; stroke-width:0; stroke-opacity:1; 
stroke-linecap:round; stroke-linejoin:round;">
<circle cx="64500" cy="31000" r="393.701" /> 
</g>
<g style="fill:#000000; fill-opacity:1.0; 
stroke:#000000; stroke-width:39.3701; stroke-opacity:1; 
stroke-linecap:round; stroke-linejoin:round;">
</g>
<g style="fill:#000000; fill-opacity:1.0; 
stroke:#000000; stroke-width:0; stroke-opacity:1; 
stroke-linecap:round; stroke-linejoin:round;">
<circle cx="68500" cy="27500" r="393.701" /> 
</g>
<g style="fill:#000000; fill-opacity:1.0; 
stroke:#000000; stroke-width:39.3701; stroke-opacity:1; 
stroke-linecap:round; stroke-linejoin:round;">
</g>
<g style="fill:#000000; fill-opacity:1.0; 
stroke:#000000; stroke-width:0; stroke-opacity:1; 
stroke-linecap:round; stroke-linejoin:round;">
<circle cx="62500" cy="32000" r="393.701" /> 
</g>
<g style="fill:#000000; fill-opacity:1.0; 
stroke:#000000; stroke-width:39.3701; stroke-opacity:1; 
stroke-linecap:round; stroke-linejoin:round;">
</g>
<g style="fill:#000000; fill-opacity:1.0; 
stroke:#000000; stroke-width:0; stroke-opacity:1; 
stroke-linecap:round; stroke-linejoin:round;">
<circle cx="67500" cy="27500" r="393.701" /> 
</g>
<g style="fill:#000000; fill-opacity:1.0; 
stroke:#000000; stroke-width:39.3701; stroke-opacity:1; 
stroke-linecap:round; stroke-linejoin:round;">
</g>
<g style="fill:#000000; fill-opacity:1.0; 
stroke:#000000; stroke-width:0; stroke-opacity:1; 
stroke-linecap:round; stroke-linejoin:round;">
<circle cx="59500" cy="29500" r="393.701" /> 
</g>
<g style="fill:#000000; fill-opacity:1.0; 
stroke:#000000; stroke-width:39.3701; stroke-opacity:1; 
stroke-linecap:round; stroke-linejoin:round;">
</g>
<g style="fill:#000000; fill-opacity:1.0; 
stroke:#000000; stroke-width:0; stroke-opacity:1; 
stroke-linecap:round; stroke-linejoin:round;">
<circle cx="62500" cy="29500" r="393.701" /> 
</g>
<g style="fill:#000000; fill-opacity:1.0; 
stroke:#000000; stroke-width:39.3701; stroke-opacity:1; 
stroke-linecap:round; stroke-linejoin:round;">
</g>
<g style="fill:#000000; fill-opacity:1.0; 
stroke:#000000; stroke-width:0; stroke-opacity:1; 
stroke-linecap:round; stroke-linejoin:round;">
<circle cx="57500" cy="28500" r="393.701" /> 
</g>
<g style="fill:#000000; fill-opacity:1.0; 
stroke:#000000; stroke-width:39.3701; stroke-opacity:1; 
stroke-linecap:round; stroke-linejoin:round;">
</g>
<g style="fill:#000000; fill-opacity:1.0; 
stroke:#000000; stroke-width:0; stroke-opacity:1; 
stroke-linecap:round; stroke-linejoin:round;">
<circle cx="60500" cy="28500" r="393.701" /> 
</g>
<g style="fill:#000000; fill-opacity:1.0; 
stroke:#000000; stroke-width:39.3701; stroke-opacity:1; 
stroke-linecap:round; stroke-linejoin:round;">
</g>
<g style="fill:#000000; fill-opacity:1.0; 
stroke:#000000; stroke-width:0; stroke-opacity:1; 
stroke-linecap:round; stroke-linejoin:round;">
<circle cx="55500" cy="27500" r="393.701" /> 
</g>
<g style="fill:#000000; fill-opacity:1.0; 
stroke:#000000; stroke-width:39.3701; stroke-opacity:1; 
stroke-linecap:round; stroke-linejoin:round;">
</g>
<g style="fill:#000000; fill-opacity:1.0; 
stroke:#000000; stroke-width:0; stroke-opacity:1; 
stroke-linecap:round; stroke-linejoin:round;">
<circle cx="58500" cy="27500" r="393.701" /> 
</g>
<g style="fill:#000000; fill-opacity:1.0; 
stroke:#000000; stroke-width:39.3701; stroke-opacity:1; 
stroke-linecap:round; stroke-linejoin:round;">
</g>
<g style="fill:#000000; fill-opacity:1.0; 
stroke:#000000; stroke-width:0; stroke-opacity:1; 
stroke-linecap:round; stroke-linejoin:round;">
<circle cx="54500" cy="25500" r="393.701" /> 
</g>
<g style="fill:#000000; fill-opacity:1.0; 
stroke:#000000; stroke-width:39.3701; stroke-opacity:1; 
stroke-linecap:round; stroke-linejoin:round;">
</g> 
</svg>
