<?xml version="1.0" standalone="no"?>
 <!DOCTYPE svg PUBLIC "-//W3C//DTD SVG 1.1//EN" 
 "http://www.w3.org/Graphics/SVG/1.1/DTD/svg11.dtd"> 
<svg xmlns="http://www.w3.org/2000/svg" version="1.1" 
    width="29.7002cm" height="21.0007cm" viewBox="0 0 116930 82680 ">
<title>SVG Picture created as LimitSwitchesPlugin-F.SilkS.svg date 2017/07/05 23:01:51 </title>
  <desc>Picture generated by PCBNEW </desc>
<g style="fill:#000000; fill-opacity:1;stroke:#000000; stroke-opacity:1;
stroke-linecap:round; stroke-linejoin:round; "
 transform="translate(0 0) scale(1 1)">
</g>
<g style="fill:#000000; fill-opacity:0.0; 
stroke:#000000; stroke-width:-0.000393701; stroke-opacity:1; 
stroke-linecap:round; stroke-linejoin:round;">
</g>
<g style="fill:#000000; fill-opacity:0.0; 
stroke:#000000; stroke-width:39.3701; stroke-opacity:1; 
stroke-linecap:round; stroke-linejoin:round;">
<circle cx="66930" cy="21000" r="656.168" /> 
<path d="M67914 21000
L65945 21000
" />
<path d="M66930 20015
L66930 21984
" />
<circle cx="66930" cy="43000" r="656.168" /> 
<path d="M67914 43000
L65945 43000
" />
<path d="M66930 42015
L66930 43984
" />
<circle cx="40930" cy="43000" r="656.168" /> 
<path d="M41914 43000
L39945 43000
" />
<path d="M40930 42015
L40930 43984
" />
<circle cx="40930" cy="21000" r="656.168" /> 
<path d="M41914 21000
L39945 21000
" />
<path d="M40930 20015
L40930 21984
" />
<circle cx="40930" cy="21000" r="656.168" /> 
<path d="M41914 21000
L39945 21000
" />
<path d="M40930 20015
L40930 21984
" />
<circle cx="66930" cy="21000" r="656.168" /> 
<path d="M67914 21000
L65945 21000
" />
<path d="M66930 20015
L66930 21984
" />
<circle cx="66930" cy="43000" r="656.168" /> 
<path d="M67914 43000
L65945 43000
" />
<path d="M66930 42015
L66930 43984
" />
<circle cx="40930" cy="43000" r="656.168" /> 
<path d="M41914 43000
L39945 43000
" />
<path d="M40930 42015
L40930 43984
" />
<path d="M44930 43000
L62930 43000
" />
<path d="M62930 21000
L44930 21000
" />
<path d="M66930 39000
L66930 25000
" />
<path d="M40930 25000
L40930 39000
" />
<path d="M62930 43000 A4000 4000 0.0 0 0 66930 39000 " />
<path d="M40930 39000 A4000 4000 0.0 0 0 44930 43000 " />
<path d="M44930 21000 A4000 4000 0.0 0 0 40930 25000 " />
<path d="M66930 25000 A4000 4000 0.0 0 0 62930 21000 " />
</g>
<g style="fill:#000000; fill-opacity:0.0; 
stroke:#000000; stroke-width:47.2441; stroke-opacity:1; 
stroke-linecap:round; stroke-linejoin:round;">
<path d="M53394 37003
L51052 37003
" />
<path d="M51052 37003
L51052 33027
" />
<path d="M51052 33027
L53394 33027
" />
<path d="M53394 33027
L53394 37003
" />
<path d="M53394 35704
L53099 35704
" />
<path d="M53099 35704
L53099 34326
" />
<path d="M53099 34326
L53394 34326
" />
<path d="M53394 34326
L53394 35704
" />
<path d="M53394 37003
L53099 37003
" />
<path d="M53099 37003
L53099 36295
" />
<path d="M53099 36295
L53394 36295
" />
<path d="M53394 36295
L53394 37003
" />
<path d="M53394 33736
L53099 33736
" />
<path d="M53099 33736
L53099 33027
" />
<path d="M53099 33027
L53394 33027
" />
<path d="M53394 33027
L53394 33736
" />
<path d="M52508 37003
L52508 36708
" />
<path d="M52508 36708
L51347 36708
" />
<path d="M51347 36708
L51347 35015
" />
<path d="M52508 33027
L52508 33322
" />
<path d="M52508 33322
L51347 33322
" />
<path d="M51347 33322
L51347 35015
" />
<path d="M53512 36137
L53512 37122
" />
<path d="M53512 37122
L52528 37122
" />
<path d="M46930 24976
L61953 24976
" />
<path d="M61953 24976
L61953 27023
" />
<path d="M61953 27023
L45906 27023
" />
<path d="M45906 27023
L45906 26000
" />
<path d="M45906 26000
L46930 26000
" />
<path d="M46930 26000
L46930 24976
" />
<path d="M46430 24976
L45906 24976
" />
<path d="M45906 24976
L45906 25500
" />
<path d="M62394 33003
L60052 33003
" />
<path d="M60052 33003
L60052 30011
" />
<path d="M60052 30011
L62394 30011
" />
<path d="M62394 30011
L62394 33003
" />
<path d="M62394 31704
L62099 31704
" />
<path d="M62099 31704
L62099 31311
" />
<path d="M62099 31311
L62394 31311
" />
<path d="M62394 31311
L62394 31704
" />
<path d="M62394 33003
L62099 33003
" />
<path d="M62099 33003
L62099 32295
" />
<path d="M62099 32295
L62394 32295
" />
<path d="M62394 32295
L62394 33003
" />
<path d="M62394 30720
L62099 30720
" />
<path d="M62099 30720
L62099 30011
" />
<path d="M62099 30011
L62394 30011
" />
<path d="M62394 30011
L62394 30720
" />
<path d="M61508 33003
L61508 32708
" />
<path d="M61508 32708
L60347 32708
" />
<path d="M60347 32708
L60347 31507
" />
<path d="M61508 30011
L61508 30307
" />
<path d="M61508 30307
L60347 30307
" />
<path d="M60347 30307
L60347 31507
" />
<path d="M62512 32137
L62512 33122
" />
<path d="M62512 33122
L61528 33122
" />
<path d="M48394 37003
L46052 37003
" />
<path d="M46052 37003
L46052 33027
" />
<path d="M46052 33027
L48394 33027
" />
<path d="M48394 33027
L48394 37003
" />
<path d="M48394 35704
L48099 35704
" />
<path d="M48099 35704
L48099 34326
" />
<path d="M48099 34326
L48394 34326
" />
<path d="M48394 34326
L48394 35704
" />
<path d="M48394 37003
L48099 37003
" />
<path d="M48099 37003
L48099 36295
" />
<path d="M48099 36295
L48394 36295
" />
<path d="M48394 36295
L48394 37003
" />
<path d="M48394 33736
L48099 33736
" />
<path d="M48099 33736
L48099 33027
" />
<path d="M48099 33027
L48394 33027
" />
<path d="M48394 33027
L48394 33736
" />
<path d="M47508 37003
L47508 36708
" />
<path d="M47508 36708
L46347 36708
" />
<path d="M46347 36708
L46347 35015
" />
<path d="M47508 33027
L47508 33322
" />
<path d="M47508 33322
L46347 33322
" />
<path d="M46347 33322
L46347 35015
" />
<path d="M48512 36137
L48512 37122
" />
<path d="M48512 37122
L47528 37122
" />
<path d="M48394 42003
L46052 42003
" />
<path d="M46052 42003
L46052 38027
" />
<path d="M46052 38027
L48394 38027
" />
<path d="M48394 38027
L48394 42003
" />
<path d="M48394 40704
L48099 40704
" />
<path d="M48099 40704
L48099 39326
" />
<path d="M48099 39326
L48394 39326
" />
<path d="M48394 39326
L48394 40704
" />
<path d="M48394 42003
L48099 42003
" />
<path d="M48099 42003
L48099 41295
" />
<path d="M48099 41295
L48394 41295
" />
<path d="M48394 41295
L48394 42003
" />
<path d="M48394 38736
L48099 38736
" />
<path d="M48099 38736
L48099 38027
" />
<path d="M48099 38027
L48394 38027
" />
<path d="M48394 38027
L48394 38736
" />
<path d="M47508 42003
L47508 41708
" />
<path d="M47508 41708
L46347 41708
" />
<path d="M46347 41708
L46347 40015
" />
<path d="M47508 38027
L47508 38322
" />
<path d="M47508 38322
L46347 38322
" />
<path d="M46347 38322
L46347 40015
" />
<path d="M48512 41137
L48512 42122
" />
<path d="M48512 42122
L47528 42122
" />
<path d="M53394 42003
L51052 42003
" />
<path d="M51052 42003
L51052 38027
" />
<path d="M51052 38027
L53394 38027
" />
<path d="M53394 38027
L53394 42003
" />
<path d="M53394 40704
L53099 40704
" />
<path d="M53099 40704
L53099 39326
" />
<path d="M53099 39326
L53394 39326
" />
<path d="M53394 39326
L53394 40704
" />
<path d="M53394 42003
L53099 42003
" />
<path d="M53099 42003
L53099 41295
" />
<path d="M53099 41295
L53394 41295
" />
<path d="M53394 41295
L53394 42003
" />
<path d="M53394 38736
L53099 38736
" />
<path d="M53099 38736
L53099 38027
" />
<path d="M53099 38027
L53394 38027
" />
<path d="M53394 38027
L53394 38736
" />
<path d="M52508 42003
L52508 41708
" />
<path d="M52508 41708
L51347 41708
" />
<path d="M51347 41708
L51347 40015
" />
<path d="M52508 38027
L52508 38322
" />
<path d="M52508 38322
L51347 38322
" />
<path d="M51347 38322
L51347 40015
" />
<path d="M53512 41137
L53512 42122
" />
<path d="M53512 42122
L52528 42122
" />
<path d="M58394 37003
L56052 37003
" />
<path d="M56052 37003
L56052 33027
" />
<path d="M56052 33027
L58394 33027
" />
<path d="M58394 33027
L58394 37003
" />
<path d="M58394 35704
L58099 35704
" />
<path d="M58099 35704
L58099 34326
" />
<path d="M58099 34326
L58394 34326
" />
<path d="M58394 34326
L58394 35704
" />
<path d="M58394 37003
L58099 37003
" />
<path d="M58099 37003
L58099 36295
" />
<path d="M58099 36295
L58394 36295
" />
<path d="M58394 36295
L58394 37003
" />
<path d="M58394 33736
L58099 33736
" />
<path d="M58099 33736
L58099 33027
" />
<path d="M58099 33027
L58394 33027
" />
<path d="M58394 33027
L58394 33736
" />
<path d="M57508 37003
L57508 36708
" />
<path d="M57508 36708
L56347 36708
" />
<path d="M56347 36708
L56347 35015
" />
<path d="M57508 33027
L57508 33322
" />
<path d="M57508 33322
L56347 33322
" />
<path d="M56347 33322
L56347 35015
" />
<path d="M58512 36137
L58512 37122
" />
<path d="M58512 37122
L57528 37122
" />
<path d="M58394 42003
L56052 42003
" />
<path d="M56052 42003
L56052 38027
" />
<path d="M56052 38027
L58394 38027
" />
<path d="M58394 38027
L58394 42003
" />
<path d="M58394 40704
L58099 40704
" />
<path d="M58099 40704
L58099 39326
" />
<path d="M58099 39326
L58394 39326
" />
<path d="M58394 39326
L58394 40704
" />
<path d="M58394 42003
L58099 42003
" />
<path d="M58099 42003
L58099 41295
" />
<path d="M58099 41295
L58394 41295
" />
<path d="M58394 41295
L58394 42003
" />
<path d="M58394 38736
L58099 38736
" />
<path d="M58099 38736
L58099 38027
" />
<path d="M58099 38027
L58394 38027
" />
<path d="M58394 38027
L58394 38736
" />
<path d="M57508 42003
L57508 41708
" />
<path d="M57508 41708
L56347 41708
" />
<path d="M56347 41708
L56347 40015
" />
<path d="M57508 38027
L57508 38322
" />
<path d="M57508 38322
L56347 38322
" />
<path d="M56347 38322
L56347 40015
" />
<path d="M58512 41137
L58512 42122
" />
<path d="M58512 42122
L57528 42122
" />
</g>
<g style="fill:#000000; fill-opacity:0.0; 
stroke:#000000; stroke-width:59.0551; stroke-opacity:1; 
stroke-linecap:round; stroke-linejoin:round;">
<path d="M54023 35315
L53742 35315
L53686 35334
L53648 35371
L53629 35428
L53629 35465
" />
<path d="M53817 35053
L53629 35053
" />
<path d="M54023 35184
L53817 35053
L54023 34922
" />
<path d="M53629 34584
L53629 34809
" />
<path d="M53629 34697
L54023 34697
L53967 34734
L53929 34772
L53911 34809
" />
<path d="M45728 26131
L45447 26131
L45390 26149
L45353 26187
L45334 26243
L45334 26281
" />
<path d="M45728 25868
L45728 25831
L45709 25793
L45690 25775
L45653 25756
L45578 25737
L45484 25737
L45409 25756
L45372 25775
L45353 25793
L45334 25831
L45334 25868
L45353 25906
L45372 25925
L45409 25943
L45484 25962
L45578 25962
L45653 25943
L45690 25925
L45709 25906
L45728 25868
" />
<path d="M63023 31826
L62742 31826
L62686 31845
L62648 31882
L62629 31939
L62629 31976
" />
<path d="M62648 31657
L62629 31601
L62629 31507
L62648 31470
L62667 31451
L62704 31432
L62742 31432
L62779 31451
L62798 31470
L62817 31507
L62836 31582
L62854 31620
L62873 31639
L62911 31657
L62948 31657
L62986 31639
L63004 31620
L63023 31582
L63023 31489
L63004 31432
" />
<path d="M62629 31057
L62629 31282
" />
<path d="M62629 31170
L63023 31170
L62967 31207
L62929 31245
L62911 31282
" />
<path d="M49023 35334
L48742 35334
L48686 35353
L48648 35390
L48629 35446
L48629 35484
" />
<path d="M49023 35184
L48629 34922
" />
<path d="M49023 34922
L48629 35184
" />
<path d="M48629 34565
L48629 34790
" />
<path d="M48629 34678
L49023 34678
L48967 34715
L48929 34753
L48911 34790
" />
<path d="M49023 40334
L48742 40334
L48686 40353
L48648 40390
L48629 40446
L48629 40484
" />
<path d="M49023 40184
L48629 39922
" />
<path d="M49023 39922
L48629 40184
" />
<path d="M48986 39790
L49004 39772
L49023 39734
L49023 39640
L49004 39603
L48986 39584
L48948 39565
L48911 39565
L48854 39584
L48629 39809
L48629 39565
" />
<path d="M54023 40315
L53742 40315
L53686 40334
L53648 40371
L53629 40428
L53629 40465
" />
<path d="M53817 40053
L53629 40053
" />
<path d="M54023 40184
L53817 40053
L54023 39922
" />
<path d="M53986 39809
L54004 39790
L54023 39753
L54023 39659
L54004 39622
L53986 39603
L53948 39584
L53911 39584
L53854 39603
L53629 39828
L53629 39584
" />
<path d="M59023 35334
L58742 35334
L58686 35353
L58648 35390
L58629 35446
L58629 35484
" />
<path d="M59023 35184
L59023 34922
L58629 35184
L58629 34922
" />
<path d="M58629 34565
L58629 34790
" />
<path d="M58629 34678
L59023 34678
L58967 34715
L58929 34753
L58911 34790
" />
<path d="M59023 40334
L58742 40334
L58686 40353
L58648 40390
L58629 40446
L58629 40484
" />
<path d="M59023 40184
L59023 39922
L58629 40184
L58629 39922
" />
<path d="M58986 39790
L59004 39772
L59023 39734
L59023 39640
L59004 39603
L58986 39584
L58948 39565
L58911 39565
L58854 39584
L58629 39809
L58629 39565
" />
</g> 
</svg>
