<?xml version="1.0" standalone="no"?>
 <!DOCTYPE svg PUBLIC "-//W3C//DTD SVG 1.1//EN" 
 "http://www.w3.org/Graphics/SVG/1.1/DTD/svg11.dtd"> 
<svg xmlns="http://www.w3.org/2000/svg" version="1.1" 
    width="29.7002cm" height="21.0007cm" viewBox="0 0 116930 82680 ">
<title>SVG Picture created as LimitSwitchesPlugin-Edge.Cuts.svg date 2017/07/15 20:08:50 </title>
  <desc>Picture generated by PCBNEW </desc>
<g style="fill:#000000; fill-opacity:1;stroke:#000000; stroke-opacity:1;
stroke-linecap:round; stroke-linejoin:round; "
 transform="translate(0 0) scale(1 1)">
</g>
<g style="fill:#000000; fill-opacity:0.0; 
stroke:#000000; stroke-width:-0.000393701; stroke-opacity:1; 
stroke-linecap:round; stroke-linejoin:round;">
</g>
<g style="fill:#000000; fill-opacity:0.0; 
stroke:#000000; stroke-width:39.3701; stroke-opacity:1; 
stroke-linecap:round; stroke-linejoin:round;">
<circle cx="76000" cy="21000" r="656.168" /> 
<path d="M75015 21000
L76984 21000
" />
<path d="M76000 20015
L76000 21984
" />
<circle cx="50000" cy="21000" r="656.168" /> 
<path d="M49015 21000
L50984 21000
" />
<path d="M50000 20015
L50000 21984
" />
<circle cx="50000" cy="43000" r="656.168" /> 
<path d="M49015 43000
L50984 43000
" />
<path d="M50000 42015
L50000 43984
" />
<circle cx="76000" cy="43000" r="656.168" /> 
<path d="M75015 43000
L76984 43000
" />
<path d="M76000 42015
L76000 43984
" />
<path d="M72000 43000
L54000 43000
" />
<path d="M54000 21000
L72000 21000
" />
<path d="M50000 39000
L50000 25000
" />
<path d="M76000 25000
L76000 39000
" />
<path d="M50000 39000 A4000 4000 0.0 0 0 54000 43000 " />
<path d="M72000 43000 A4000 4000 0.0 0 0 76000 39000 " />
<path d="M76000 25000 A4000 4000 0.0 0 0 72000 21000 " />
<path d="M54000 21000 A4000 4000 0.0 0 0 50000 25000 " />
</g> 
</svg>
