<?xml version="1.0" standalone="no"?>
 <!DOCTYPE svg PUBLIC "-//W3C//DTD SVG 1.1//EN" 
 "http://www.w3.org/Graphics/SVG/1.1/DTD/svg11.dtd"> 
<svg xmlns="http://www.w3.org/2000/svg" version="1.1" 
    width="29.7002cm" height="21.0007cm" viewBox="0 0 116930 82680 ">
<title>SVG Picture created as LimitSwitchesPlugin-Edge.Cuts.svg date 2017/07/05 23:01:51 </title>
  <desc>Picture generated by PCBNEW </desc>
<g style="fill:#000000; fill-opacity:1;stroke:#000000; stroke-opacity:1;
stroke-linecap:round; stroke-linejoin:round; "
 transform="translate(0 0) scale(1 1)">
</g>
<g style="fill:#000000; fill-opacity:0.0; 
stroke:#000000; stroke-width:-0.000393701; stroke-opacity:1; 
stroke-linecap:round; stroke-linejoin:round;">
</g>
<g style="fill:#000000; fill-opacity:0.0; 
stroke:#000000; stroke-width:39.3701; stroke-opacity:1; 
stroke-linecap:round; stroke-linejoin:round;">
<circle cx="66930" cy="21000" r="656.168" /> 
<path d="M67914 21000
L65945 21000
" />
<path d="M66930 20015
L66930 21984
" />
<circle cx="66930" cy="43000" r="656.168" /> 
<path d="M67914 43000
L65945 43000
" />
<path d="M66930 42015
L66930 43984
" />
<circle cx="40930" cy="43000" r="656.168" /> 
<path d="M41914 43000
L39945 43000
" />
<path d="M40930 42015
L40930 43984
" />
<circle cx="40930" cy="21000" r="656.168" /> 
<path d="M41914 21000
L39945 21000
" />
<path d="M40930 20015
L40930 21984
" />
<circle cx="40930" cy="21000" r="656.168" /> 
<path d="M41914 21000
L39945 21000
" />
<path d="M40930 20015
L40930 21984
" />
<circle cx="66930" cy="21000" r="656.168" /> 
<path d="M67914 21000
L65945 21000
" />
<path d="M66930 20015
L66930 21984
" />
<circle cx="66930" cy="43000" r="656.168" /> 
<path d="M67914 43000
L65945 43000
" />
<path d="M66930 42015
L66930 43984
" />
<circle cx="40930" cy="43000" r="656.168" /> 
<path d="M41914 43000
L39945 43000
" />
<path d="M40930 42015
L40930 43984
" />
<path d="M44930 43000
L62930 43000
" />
<path d="M62930 21000
L44930 21000
" />
<path d="M66930 39000
L66930 25000
" />
<path d="M40930 25000
L40930 39000
" />
<path d="M62930 43000 A4000 4000 0.0 0 0 66930 39000 " />
<path d="M40930 39000 A4000 4000 0.0 0 0 44930 43000 " />
<path d="M44930 21000 A4000 4000 0.0 0 0 40930 25000 " />
<path d="M66930 25000 A4000 4000 0.0 0 0 62930 21000 " />
</g> 
</svg>
