<?xml version="1.0" standalone="no"?>
 <!DOCTYPE svg PUBLIC "-//W3C//DTD SVG 1.1//EN" 
 "http://www.w3.org/Graphics/SVG/1.1/DTD/svg11.dtd"> 
<svg xmlns="http://www.w3.org/2000/svg" version="1.1" 
    width="29.7002cm" height="21.0007cm" viewBox="0 0 116930 82680 ">
<title>SVG Picture created as LimitSwitchesPlugin-F.SilkS.svg date 2017/07/15 20:08:50 </title>
  <desc>Picture generated by PCBNEW </desc>
<g style="fill:#000000; fill-opacity:1;stroke:#000000; stroke-opacity:1;
stroke-linecap:round; stroke-linejoin:round; "
 transform="translate(0 0) scale(1 1)">
</g>
<g style="fill:#000000; fill-opacity:0.0; 
stroke:#000000; stroke-width:-0.000393701; stroke-opacity:1; 
stroke-linecap:round; stroke-linejoin:round;">
</g>
<g style="fill:#000000; fill-opacity:0.0; 
stroke:#000000; stroke-width:47.2441; stroke-opacity:1; 
stroke-linecap:round; stroke-linejoin:round;">
<path d="M63535 37003
L65877 37003
" />
<path d="M65877 37003
L65877 33027
" />
<path d="M65877 33027
L63535 33027
" />
<path d="M63535 33027
L63535 37003
" />
<path d="M63535 35704
L63830 35704
" />
<path d="M63830 35704
L63830 34326
" />
<path d="M63830 34326
L63535 34326
" />
<path d="M63535 34326
L63535 35704
" />
<path d="M63535 37003
L63830 37003
" />
<path d="M63830 37003
L63830 36295
" />
<path d="M63830 36295
L63535 36295
" />
<path d="M63535 36295
L63535 37003
" />
<path d="M63535 33736
L63830 33736
" />
<path d="M63830 33736
L63830 33027
" />
<path d="M63830 33027
L63535 33027
" />
<path d="M63535 33027
L63535 33736
" />
<path d="M64421 37003
L64421 36708
" />
<path d="M64421 36708
L65582 36708
" />
<path d="M65582 36708
L65582 35015
" />
<path d="M64421 33027
L64421 33322
" />
<path d="M64421 33322
L65582 33322
" />
<path d="M65582 33322
L65582 35015
" />
<path d="M63417 36137
L63417 37122
" />
<path d="M63417 37122
L64401 37122
" />
<path d="M70000 24976
L54976 24976
" />
<path d="M54976 24976
L54976 27023
" />
<path d="M54976 27023
L71023 27023
" />
<path d="M71023 27023
L71023 26000
" />
<path d="M71023 26000
L70000 26000
" />
<path d="M70000 26000
L70000 24976
" />
<path d="M70500 24976
L71023 24976
" />
<path d="M71023 24976
L71023 25500
" />
<path d="M54535 33003
L56877 33003
" />
<path d="M56877 33003
L56877 30011
" />
<path d="M56877 30011
L54535 30011
" />
<path d="M54535 30011
L54535 33003
" />
<path d="M54535 31704
L54830 31704
" />
<path d="M54830 31704
L54830 31311
" />
<path d="M54830 31311
L54535 31311
" />
<path d="M54535 31311
L54535 31704
" />
<path d="M54535 33003
L54830 33003
" />
<path d="M54830 33003
L54830 32295
" />
<path d="M54830 32295
L54535 32295
" />
<path d="M54535 32295
L54535 33003
" />
<path d="M54535 30720
L54830 30720
" />
<path d="M54830 30720
L54830 30011
" />
<path d="M54830 30011
L54535 30011
" />
<path d="M54535 30011
L54535 30720
" />
<path d="M55421 33003
L55421 32708
" />
<path d="M55421 32708
L56582 32708
" />
<path d="M56582 32708
L56582 31507
" />
<path d="M55421 30011
L55421 30307
" />
<path d="M55421 30307
L56582 30307
" />
<path d="M56582 30307
L56582 31507
" />
<path d="M54417 32137
L54417 33122
" />
<path d="M54417 33122
L55401 33122
" />
<path d="M68535 37003
L70877 37003
" />
<path d="M70877 37003
L70877 33027
" />
<path d="M70877 33027
L68535 33027
" />
<path d="M68535 33027
L68535 37003
" />
<path d="M68535 35704
L68830 35704
" />
<path d="M68830 35704
L68830 34326
" />
<path d="M68830 34326
L68535 34326
" />
<path d="M68535 34326
L68535 35704
" />
<path d="M68535 37003
L68830 37003
" />
<path d="M68830 37003
L68830 36295
" />
<path d="M68830 36295
L68535 36295
" />
<path d="M68535 36295
L68535 37003
" />
<path d="M68535 33736
L68830 33736
" />
<path d="M68830 33736
L68830 33027
" />
<path d="M68830 33027
L68535 33027
" />
<path d="M68535 33027
L68535 33736
" />
<path d="M69421 37003
L69421 36708
" />
<path d="M69421 36708
L70582 36708
" />
<path d="M70582 36708
L70582 35015
" />
<path d="M69421 33027
L69421 33322
" />
<path d="M69421 33322
L70582 33322
" />
<path d="M70582 33322
L70582 35015
" />
<path d="M68417 36137
L68417 37122
" />
<path d="M68417 37122
L69401 37122
" />
<path d="M68535 42003
L70877 42003
" />
<path d="M70877 42003
L70877 38027
" />
<path d="M70877 38027
L68535 38027
" />
<path d="M68535 38027
L68535 42003
" />
<path d="M68535 40704
L68830 40704
" />
<path d="M68830 40704
L68830 39326
" />
<path d="M68830 39326
L68535 39326
" />
<path d="M68535 39326
L68535 40704
" />
<path d="M68535 42003
L68830 42003
" />
<path d="M68830 42003
L68830 41295
" />
<path d="M68830 41295
L68535 41295
" />
<path d="M68535 41295
L68535 42003
" />
<path d="M68535 38736
L68830 38736
" />
<path d="M68830 38736
L68830 38027
" />
<path d="M68830 38027
L68535 38027
" />
<path d="M68535 38027
L68535 38736
" />
<path d="M69421 42003
L69421 41708
" />
<path d="M69421 41708
L70582 41708
" />
<path d="M70582 41708
L70582 40015
" />
<path d="M69421 38027
L69421 38322
" />
<path d="M69421 38322
L70582 38322
" />
<path d="M70582 38322
L70582 40015
" />
<path d="M68417 41137
L68417 42122
" />
<path d="M68417 42122
L69401 42122
" />
<path d="M63535 42003
L65877 42003
" />
<path d="M65877 42003
L65877 38027
" />
<path d="M65877 38027
L63535 38027
" />
<path d="M63535 38027
L63535 42003
" />
<path d="M63535 40704
L63830 40704
" />
<path d="M63830 40704
L63830 39326
" />
<path d="M63830 39326
L63535 39326
" />
<path d="M63535 39326
L63535 40704
" />
<path d="M63535 42003
L63830 42003
" />
<path d="M63830 42003
L63830 41295
" />
<path d="M63830 41295
L63535 41295
" />
<path d="M63535 41295
L63535 42003
" />
<path d="M63535 38736
L63830 38736
" />
<path d="M63830 38736
L63830 38027
" />
<path d="M63830 38027
L63535 38027
" />
<path d="M63535 38027
L63535 38736
" />
<path d="M64421 42003
L64421 41708
" />
<path d="M64421 41708
L65582 41708
" />
<path d="M65582 41708
L65582 40015
" />
<path d="M64421 38027
L64421 38322
" />
<path d="M64421 38322
L65582 38322
" />
<path d="M65582 38322
L65582 40015
" />
<path d="M63417 41137
L63417 42122
" />
<path d="M63417 42122
L64401 42122
" />
<path d="M58535 37003
L60877 37003
" />
<path d="M60877 37003
L60877 33027
" />
<path d="M60877 33027
L58535 33027
" />
<path d="M58535 33027
L58535 37003
" />
<path d="M58535 35704
L58830 35704
" />
<path d="M58830 35704
L58830 34326
" />
<path d="M58830 34326
L58535 34326
" />
<path d="M58535 34326
L58535 35704
" />
<path d="M58535 37003
L58830 37003
" />
<path d="M58830 37003
L58830 36295
" />
<path d="M58830 36295
L58535 36295
" />
<path d="M58535 36295
L58535 37003
" />
<path d="M58535 33736
L58830 33736
" />
<path d="M58830 33736
L58830 33027
" />
<path d="M58830 33027
L58535 33027
" />
<path d="M58535 33027
L58535 33736
" />
<path d="M59421 37003
L59421 36708
" />
<path d="M59421 36708
L60582 36708
" />
<path d="M60582 36708
L60582 35015
" />
<path d="M59421 33027
L59421 33322
" />
<path d="M59421 33322
L60582 33322
" />
<path d="M60582 33322
L60582 35015
" />
<path d="M58417 36137
L58417 37122
" />
<path d="M58417 37122
L59401 37122
" />
<path d="M58535 42003
L60877 42003
" />
<path d="M60877 42003
L60877 38027
" />
<path d="M60877 38027
L58535 38027
" />
<path d="M58535 38027
L58535 42003
" />
<path d="M58535 40704
L58830 40704
" />
<path d="M58830 40704
L58830 39326
" />
<path d="M58830 39326
L58535 39326
" />
<path d="M58535 39326
L58535 40704
" />
<path d="M58535 42003
L58830 42003
" />
<path d="M58830 42003
L58830 41295
" />
<path d="M58830 41295
L58535 41295
" />
<path d="M58535 41295
L58535 42003
" />
<path d="M58535 38736
L58830 38736
" />
<path d="M58830 38736
L58830 38027
" />
<path d="M58830 38027
L58535 38027
" />
<path d="M58535 38027
L58535 38736
" />
<path d="M59421 42003
L59421 41708
" />
<path d="M59421 41708
L60582 41708
" />
<path d="M60582 41708
L60582 40015
" />
<path d="M59421 38027
L59421 38322
" />
<path d="M59421 38322
L60582 38322
" />
<path d="M60582 38322
L60582 40015
" />
<path d="M58417 41137
L58417 42122
" />
<path d="M58417 42122
L59401 42122
" />
</g>
<g style="fill:#000000; fill-opacity:0.0; 
stroke:#000000; stroke-width:59.0551; stroke-opacity:1; 
stroke-linecap:round; stroke-linejoin:round;">
<path d="M62906 35315
L63187 35315
L63243 35334
L63281 35371
L63300 35428
L63300 35465
" />
<path d="M63112 35053
L63300 35053
" />
<path d="M62906 35184
L63112 35053
L62906 34922
" />
<path d="M63300 34584
L63300 34809
" />
<path d="M63300 34697
L62906 34697
L62962 34734
L63000 34772
L63018 34809
" />
<path d="M71201 26131
L71482 26131
L71539 26149
L71576 26187
L71595 26243
L71595 26281
" />
<path d="M71201 25868
L71201 25831
L71220 25793
L71239 25775
L71276 25756
L71351 25737
L71445 25737
L71520 25756
L71557 25775
L71576 25793
L71595 25831
L71595 25868
L71576 25906
L71557 25925
L71520 25943
L71445 25962
L71351 25962
L71276 25943
L71239 25925
L71220 25906
L71201 25868
" />
<path d="M53906 31826
L54187 31826
L54243 31845
L54281 31882
L54300 31939
L54300 31976
" />
<path d="M54281 31657
L54300 31601
L54300 31507
L54281 31470
L54262 31451
L54225 31432
L54187 31432
L54150 31451
L54131 31470
L54112 31507
L54093 31582
L54075 31620
L54056 31639
L54018 31657
L53981 31657
L53943 31639
L53925 31620
L53906 31582
L53906 31489
L53925 31432
" />
<path d="M54300 31057
L54300 31282
" />
<path d="M54300 31170
L53906 31170
L53962 31207
L54000 31245
L54018 31282
" />
<path d="M67906 35334
L68187 35334
L68243 35353
L68281 35390
L68300 35446
L68300 35484
" />
<path d="M67906 35184
L68300 34922
" />
<path d="M67906 34922
L68300 35184
" />
<path d="M68300 34565
L68300 34790
" />
<path d="M68300 34678
L67906 34678
L67962 34715
L68000 34753
L68018 34790
" />
<path d="M67906 40334
L68187 40334
L68243 40353
L68281 40390
L68300 40446
L68300 40484
" />
<path d="M67906 40184
L68300 39922
" />
<path d="M67906 39922
L68300 40184
" />
<path d="M67943 39790
L67925 39772
L67906 39734
L67906 39640
L67925 39603
L67943 39584
L67981 39565
L68018 39565
L68075 39584
L68300 39809
L68300 39565
" />
<path d="M62906 40315
L63187 40315
L63243 40334
L63281 40371
L63300 40428
L63300 40465
" />
<path d="M63112 40053
L63300 40053
" />
<path d="M62906 40184
L63112 40053
L62906 39922
" />
<path d="M62943 39809
L62925 39790
L62906 39753
L62906 39659
L62925 39622
L62943 39603
L62981 39584
L63018 39584
L63075 39603
L63300 39828
L63300 39584
" />
<path d="M57906 35334
L58187 35334
L58243 35353
L58281 35390
L58300 35446
L58300 35484
" />
<path d="M57906 35184
L57906 34922
L58300 35184
L58300 34922
" />
<path d="M58300 34565
L58300 34790
" />
<path d="M58300 34678
L57906 34678
L57962 34715
L58000 34753
L58018 34790
" />
<path d="M57906 40334
L58187 40334
L58243 40353
L58281 40390
L58300 40446
L58300 40484
" />
<path d="M57906 40184
L57906 39922
L58300 40184
L58300 39922
" />
<path d="M57943 39790
L57925 39772
L57906 39734
L57906 39640
L57925 39603
L57943 39584
L57981 39565
L58018 39565
L58075 39584
L58300 39809
L58300 39565
" />
</g> 
</svg>
