<?xml version="1.0" standalone="no"?>
 <!DOCTYPE svg PUBLIC "-//W3C//DTD SVG 1.1//EN" 
 "http://www.w3.org/Graphics/SVG/1.1/DTD/svg11.dtd"> 
<svg xmlns="http://www.w3.org/2000/svg" version="1.1" 
    width="29.7002cm" height="21.0007cm" viewBox="0 0 116930 82680 ">
<title>SVG Picture created as LimitSwitchesPlugin-B.Cu.svg date 2017/07/15 20:08:50 </title>
  <desc>Picture generated by PCBNEW </desc>
<g style="fill:#000000; fill-opacity:1;stroke:#000000; stroke-opacity:1;
stroke-linecap:round; stroke-linejoin:round; "
 transform="translate(0 0) scale(1 1)">
</g>
<g style="fill:#000000; fill-opacity:0.0; 
stroke:#000000; stroke-width:-0.000393701; stroke-opacity:1; 
stroke-linecap:round; stroke-linejoin:round;">
</g>
<g style="fill:#000000; fill-opacity:0.0; 
stroke:#000000; stroke-width:0; stroke-opacity:1; 
stroke-linecap:round; stroke-linejoin:round;">
</g>
<g style="fill:#000000; fill-opacity:1.0; 
stroke:#000000; stroke-width:0; stroke-opacity:1; 
stroke-linecap:round; stroke-linejoin:round;">
<polyline style="fill-rule:evenodd;"
points="64844,36344
64155,36344
64155,35655
64844,35655
64844,36344
" /> 
<circle cx="64500" cy="35015.7" r="344.488" /> 
</g>
<g style="fill:#000000; fill-opacity:1.0; 
stroke:#000000; stroke-width:39.3701; stroke-opacity:1; 
stroke-linecap:round; stroke-linejoin:round;">
</g>
<g style="fill:#000000; fill-opacity:1.0; 
stroke:#000000; stroke-width:0; stroke-opacity:1; 
stroke-linecap:round; stroke-linejoin:round;">
<circle cx="64500" cy="34031.5" r="344.488" /> 
</g>
<g style="fill:#000000; fill-opacity:1.0; 
stroke:#000000; stroke-width:39.3701; stroke-opacity:1; 
stroke-linecap:round; stroke-linejoin:round;">
</g>
<g style="fill:#000000; fill-opacity:1.0; 
stroke:#000000; stroke-width:0; stroke-opacity:1; 
stroke-linecap:round; stroke-linejoin:round;">
<polyline style="fill-rule:evenodd;"
points="70165,25165
70834,25165
70834,25834
70165,25834
70165,25165
" /> 
</g>
<g style="fill:#000000; fill-opacity:1.0; 
stroke:#000000; stroke-width:669.291; stroke-opacity:1; 
stroke-linecap:round; stroke-linejoin:round;">
</g>
<g style="fill:#000000; fill-opacity:0.0; 
stroke:#000000; stroke-width:669.291; stroke-opacity:1; 
stroke-linecap:round; stroke-linejoin:round;">
<path d="M70500 26500
L70500 26500
" />
<path d="M69500 25500
L69500 25500
" />
<path d="M69500 26500
L69500 26500
" />
<path d="M68500 25500
L68500 25500
" />
<path d="M68500 26500
L68500 26500
" />
<path d="M67500 25500
L67500 25500
" />
<path d="M67500 26500
L67500 26500
" />
<path d="M66500 25500
L66500 25500
" />
<path d="M66500 26500
L66500 26500
" />
<path d="M65500 25500
L65500 25500
" />
<path d="M65500 26500
L65500 26500
" />
<path d="M64500 25500
L64500 25500
" />
<path d="M64500 26500
L64500 26500
" />
<path d="M63500 25500
L63500 25500
" />
<path d="M63500 26500
L63500 26500
" />
<path d="M62500 25500
L62500 25500
" />
<path d="M62500 26500
L62500 26500
" />
<path d="M61500 25500
L61500 25500
" />
<path d="M61500 26500
L61500 26500
" />
<path d="M60500 25500
L60500 25500
" />
<path d="M60500 26500
L60500 26500
" />
<path d="M59500 25500
L59500 25500
" />
<path d="M59500 26500
L59500 26500
" />
<path d="M58500 25500
L58500 25500
" />
<path d="M58500 26500
L58500 26500
" />
<path d="M57500 25500
L57500 25500
" />
<path d="M57500 26500
L57500 26500
" />
<path d="M56500 25500
L56500 25500
" />
<path d="M56500 26500
L56500 26500
" />
<path d="M55500 25500
L55500 25500
" />
<path d="M55500 26500
L55500 26500
" />
</g>
<g style="fill:#000000; fill-opacity:0.0; 
stroke:#000000; stroke-width:0; stroke-opacity:1; 
stroke-linecap:round; stroke-linejoin:round;">
</g>
<g style="fill:#000000; fill-opacity:1.0; 
stroke:#000000; stroke-width:0; stroke-opacity:1; 
stroke-linecap:round; stroke-linejoin:round;">
<polyline style="fill-rule:evenodd;"
points="55844,32344
55155,32344
55155,31655
55844,31655
55844,32344
" /> 
<circle cx="55500" cy="31015.7" r="344.488" /> 
</g>
<g style="fill:#000000; fill-opacity:1.0; 
stroke:#000000; stroke-width:39.3701; stroke-opacity:1; 
stroke-linecap:round; stroke-linejoin:round;">
</g>
<g style="fill:#000000; fill-opacity:1.0; 
stroke:#000000; stroke-width:0; stroke-opacity:1; 
stroke-linecap:round; stroke-linejoin:round;">
<polyline style="fill-rule:evenodd;"
points="69844,36344
69155,36344
69155,35655
69844,35655
69844,36344
" /> 
<circle cx="69500" cy="35015.7" r="344.488" /> 
</g>
<g style="fill:#000000; fill-opacity:1.0; 
stroke:#000000; stroke-width:39.3701; stroke-opacity:1; 
stroke-linecap:round; stroke-linejoin:round;">
</g>
<g style="fill:#000000; fill-opacity:1.0; 
stroke:#000000; stroke-width:0; stroke-opacity:1; 
stroke-linecap:round; stroke-linejoin:round;">
<circle cx="69500" cy="34031.5" r="344.488" /> 
</g>
<g style="fill:#000000; fill-opacity:1.0; 
stroke:#000000; stroke-width:39.3701; stroke-opacity:1; 
stroke-linecap:round; stroke-linejoin:round;">
</g>
<g style="fill:#000000; fill-opacity:1.0; 
stroke:#000000; stroke-width:0; stroke-opacity:1; 
stroke-linecap:round; stroke-linejoin:round;">
<polyline style="fill-rule:evenodd;"
points="69844,41344
69155,41344
69155,40655
69844,40655
69844,41344
" /> 
<circle cx="69500" cy="40015.7" r="344.488" /> 
</g>
<g style="fill:#000000; fill-opacity:1.0; 
stroke:#000000; stroke-width:39.3701; stroke-opacity:1; 
stroke-linecap:round; stroke-linejoin:round;">
</g>
<g style="fill:#000000; fill-opacity:1.0; 
stroke:#000000; stroke-width:0; stroke-opacity:1; 
stroke-linecap:round; stroke-linejoin:round;">
<circle cx="69500" cy="39031.5" r="344.488" /> 
</g>
<g style="fill:#000000; fill-opacity:1.0; 
stroke:#000000; stroke-width:39.3701; stroke-opacity:1; 
stroke-linecap:round; stroke-linejoin:round;">
</g>
<g style="fill:#000000; fill-opacity:1.0; 
stroke:#000000; stroke-width:0; stroke-opacity:1; 
stroke-linecap:round; stroke-linejoin:round;">
<polyline style="fill-rule:evenodd;"
points="64844,41344
64155,41344
64155,40655
64844,40655
64844,41344
" /> 
<circle cx="64500" cy="40015.7" r="344.488" /> 
</g>
<g style="fill:#000000; fill-opacity:1.0; 
stroke:#000000; stroke-width:39.3701; stroke-opacity:1; 
stroke-linecap:round; stroke-linejoin:round;">
</g>
<g style="fill:#000000; fill-opacity:1.0; 
stroke:#000000; stroke-width:0; stroke-opacity:1; 
stroke-linecap:round; stroke-linejoin:round;">
<circle cx="64500" cy="39031.5" r="344.488" /> 
</g>
<g style="fill:#000000; fill-opacity:1.0; 
stroke:#000000; stroke-width:39.3701; stroke-opacity:1; 
stroke-linecap:round; stroke-linejoin:round;">
</g>
<g style="fill:#000000; fill-opacity:1.0; 
stroke:#000000; stroke-width:0; stroke-opacity:1; 
stroke-linecap:round; stroke-linejoin:round;">
<polyline style="fill-rule:evenodd;"
points="59844,36344
59155,36344
59155,35655
59844,35655
59844,36344
" /> 
<circle cx="59500" cy="35015.7" r="344.488" /> 
</g>
<g style="fill:#000000; fill-opacity:1.0; 
stroke:#000000; stroke-width:39.3701; stroke-opacity:1; 
stroke-linecap:round; stroke-linejoin:round;">
</g>
<g style="fill:#000000; fill-opacity:1.0; 
stroke:#000000; stroke-width:0; stroke-opacity:1; 
stroke-linecap:round; stroke-linejoin:round;">
<circle cx="59500" cy="34031.5" r="344.488" /> 
</g>
<g style="fill:#000000; fill-opacity:1.0; 
stroke:#000000; stroke-width:39.3701; stroke-opacity:1; 
stroke-linecap:round; stroke-linejoin:round;">
</g>
<g style="fill:#000000; fill-opacity:1.0; 
stroke:#000000; stroke-width:0; stroke-opacity:1; 
stroke-linecap:round; stroke-linejoin:round;">
<polyline style="fill-rule:evenodd;"
points="59844,41344
59155,41344
59155,40655
59844,40655
59844,41344
" /> 
<circle cx="59500" cy="40015.7" r="344.488" /> 
</g>
<g style="fill:#000000; fill-opacity:1.0; 
stroke:#000000; stroke-width:39.3701; stroke-opacity:1; 
stroke-linecap:round; stroke-linejoin:round;">
</g>
<g style="fill:#000000; fill-opacity:1.0; 
stroke:#000000; stroke-width:0; stroke-opacity:1; 
stroke-linecap:round; stroke-linejoin:round;">
<circle cx="59500" cy="39031.5" r="344.488" /> 
</g>
<g style="fill:#000000; fill-opacity:1.0; 
stroke:#000000; stroke-width:39.3701; stroke-opacity:1; 
stroke-linecap:round; stroke-linejoin:round;">
</g>
<g style="fill:#000000; fill-opacity:1.0; 
stroke:#000000; stroke-width:0; stroke-opacity:1; 
stroke-linecap:round; stroke-linejoin:round;">
<circle cx="70000" cy="29000" r="393.701" /> 
</g>
<g style="fill:#000000; fill-opacity:1.0; 
stroke:#000000; stroke-width:39.3701; stroke-opacity:1; 
stroke-linecap:round; stroke-linejoin:round;">
</g>
<g style="fill:#000000; fill-opacity:1.0; 
stroke:#000000; stroke-width:0; stroke-opacity:1; 
stroke-linecap:round; stroke-linejoin:round;">
<circle cx="70500" cy="27500" r="393.701" /> 
</g>
<g style="fill:#000000; fill-opacity:1.0; 
stroke:#000000; stroke-width:39.3701; stroke-opacity:1; 
stroke-linecap:round; stroke-linejoin:round;">
</g>
<g style="fill:#000000; fill-opacity:1.0; 
stroke:#000000; stroke-width:0; stroke-opacity:1; 
stroke-linecap:round; stroke-linejoin:round;">
<circle cx="67500" cy="30000" r="393.701" /> 
</g>
<g style="fill:#000000; fill-opacity:1.0; 
stroke:#000000; stroke-width:39.3701; stroke-opacity:1; 
stroke-linecap:round; stroke-linejoin:round;">
</g>
<g style="fill:#000000; fill-opacity:1.0; 
stroke:#000000; stroke-width:0; stroke-opacity:1; 
stroke-linecap:round; stroke-linejoin:round;">
<circle cx="69500" cy="27500" r="393.701" /> 
</g>
<g style="fill:#000000; fill-opacity:1.0; 
stroke:#000000; stroke-width:39.3701; stroke-opacity:1; 
stroke-linecap:round; stroke-linejoin:round;">
</g>
<g style="fill:#000000; fill-opacity:1.0; 
stroke:#000000; stroke-width:0; stroke-opacity:1; 
stroke-linecap:round; stroke-linejoin:round;">
<circle cx="64500" cy="31000" r="393.701" /> 
</g>
<g style="fill:#000000; fill-opacity:1.0; 
stroke:#000000; stroke-width:39.3701; stroke-opacity:1; 
stroke-linecap:round; stroke-linejoin:round;">
</g>
<g style="fill:#000000; fill-opacity:1.0; 
stroke:#000000; stroke-width:0; stroke-opacity:1; 
stroke-linecap:round; stroke-linejoin:round;">
<circle cx="68500" cy="27500" r="393.701" /> 
</g>
<g style="fill:#000000; fill-opacity:1.0; 
stroke:#000000; stroke-width:39.3701; stroke-opacity:1; 
stroke-linecap:round; stroke-linejoin:round;">
</g>
<g style="fill:#000000; fill-opacity:1.0; 
stroke:#000000; stroke-width:0; stroke-opacity:1; 
stroke-linecap:round; stroke-linejoin:round;">
<circle cx="62500" cy="32000" r="393.701" /> 
</g>
<g style="fill:#000000; fill-opacity:1.0; 
stroke:#000000; stroke-width:39.3701; stroke-opacity:1; 
stroke-linecap:round; stroke-linejoin:round;">
</g>
<g style="fill:#000000; fill-opacity:1.0; 
stroke:#000000; stroke-width:0; stroke-opacity:1; 
stroke-linecap:round; stroke-linejoin:round;">
<circle cx="67500" cy="27500" r="393.701" /> 
</g>
<g style="fill:#000000; fill-opacity:1.0; 
stroke:#000000; stroke-width:39.3701; stroke-opacity:1; 
stroke-linecap:round; stroke-linejoin:round;">
</g>
<g style="fill:#000000; fill-opacity:1.0; 
stroke:#000000; stroke-width:0; stroke-opacity:1; 
stroke-linecap:round; stroke-linejoin:round;">
<circle cx="59500" cy="29500" r="393.701" /> 
</g>
<g style="fill:#000000; fill-opacity:1.0; 
stroke:#000000; stroke-width:39.3701; stroke-opacity:1; 
stroke-linecap:round; stroke-linejoin:round;">
</g>
<g style="fill:#000000; fill-opacity:1.0; 
stroke:#000000; stroke-width:0; stroke-opacity:1; 
stroke-linecap:round; stroke-linejoin:round;">
<circle cx="62500" cy="29500" r="393.701" /> 
</g>
<g style="fill:#000000; fill-opacity:1.0; 
stroke:#000000; stroke-width:39.3701; stroke-opacity:1; 
stroke-linecap:round; stroke-linejoin:round;">
</g>
<g style="fill:#000000; fill-opacity:1.0; 
stroke:#000000; stroke-width:0; stroke-opacity:1; 
stroke-linecap:round; stroke-linejoin:round;">
<circle cx="57500" cy="28500" r="393.701" /> 
</g>
<g style="fill:#000000; fill-opacity:1.0; 
stroke:#000000; stroke-width:39.3701; stroke-opacity:1; 
stroke-linecap:round; stroke-linejoin:round;">
</g>
<g style="fill:#000000; fill-opacity:1.0; 
stroke:#000000; stroke-width:0; stroke-opacity:1; 
stroke-linecap:round; stroke-linejoin:round;">
<circle cx="60500" cy="28500" r="393.701" /> 
</g>
<g style="fill:#000000; fill-opacity:1.0; 
stroke:#000000; stroke-width:39.3701; stroke-opacity:1; 
stroke-linecap:round; stroke-linejoin:round;">
</g>
<g style="fill:#000000; fill-opacity:1.0; 
stroke:#000000; stroke-width:0; stroke-opacity:1; 
stroke-linecap:round; stroke-linejoin:round;">
<circle cx="55500" cy="27500" r="393.701" /> 
</g>
<g style="fill:#000000; fill-opacity:1.0; 
stroke:#000000; stroke-width:39.3701; stroke-opacity:1; 
stroke-linecap:round; stroke-linejoin:round;">
</g>
<g style="fill:#000000; fill-opacity:1.0; 
stroke:#000000; stroke-width:0; stroke-opacity:1; 
stroke-linecap:round; stroke-linejoin:round;">
<circle cx="58500" cy="27500" r="393.701" /> 
</g>
<g style="fill:#000000; fill-opacity:1.0; 
stroke:#000000; stroke-width:39.3701; stroke-opacity:1; 
stroke-linecap:round; stroke-linejoin:round;">
</g>
<g style="fill:#000000; fill-opacity:1.0; 
stroke:#000000; stroke-width:0; stroke-opacity:1; 
stroke-linecap:round; stroke-linejoin:round;">
<circle cx="54500" cy="25500" r="393.701" /> 
</g>
<g style="fill:#000000; fill-opacity:1.0; 
stroke:#000000; stroke-width:39.3701; stroke-opacity:1; 
stroke-linecap:round; stroke-linejoin:round;">
</g>
<g style="fill:#000000; fill-opacity:1.0; 
stroke:#000000; stroke-width:500; stroke-opacity:1; 
stroke-linecap:round; stroke-linejoin:round;">
</g>
<g style="fill:#000000; fill-opacity:0.0; 
stroke:#000000; stroke-width:500; stroke-opacity:1; 
stroke-linecap:round; stroke-linejoin:round;">
<path d="M69531 34000
L69488 33999
" />
<path d="M69488 33999
L69500 29500
" />
<path d="M69500 29500
L70031 29031
" />
<path d="M69531 34000
L69500 34031
" />
<path d="M70000 29000
L70031 29031
" />
<path d="M70031 29031
L70000 29000
" />
<path d="M69500 35015
L70500 35000
" />
<path d="M70500 35000
L71000 34500
" />
<path d="M71000 34500
L71000 34500
" />
<path d="M69500 35015
L69484 35031
" />
<path d="M71000 34500
L71000 28000
" />
<path d="M71000 28000
L70500 27500
" />
<path d="M71000 34500
L70984 34484
" />
<path d="M69468 39000
L68500 39000
" />
<path d="M68500 39000
L67500 38000
" />
<path d="M67500 38000
L67531 30031
" />
<path d="M69468 39000
L69500 39031
" />
<path d="M67500 30000
L67531 30031
" />
<path d="M67531 30031
L67500 30000
" />
<path d="M70500 38000
L70500 39500
" />
<path d="M70484 39515
L70000 40000
" />
<path d="M70000 40000
L69500 40015
" />
<path d="M70500 39500
L70484 39515
" />
<path d="M68500 37000
L69000 37500
" />
<path d="M69000 37500
L70000 37500
" />
<path d="M70000 37500
L70500 38000
" />
<path d="M70500 38000
L70484 38015
" />
<path d="M68500 37000
L68500 29000
" />
<path d="M69500 28000
L69500 27500
" />
<path d="M68500 29000
L69500 28000
" />
<path d="M68500 37000
L68500 37000
" />
<path d="M68500 37000
L68484 36984
" />
<path d="M64500 31000
L64500 34000
" />
<path d="M64500 34000
L64600 34100
" />
<path d="M64500 31000
L64531 31031
" />
<path d="M65500 30500
L65500 30500
" />
<path d="M65500 30500
L65500 30500
" />
<path d="M65500 30500
L65500 30500
" />
<path d="M65500 30500
L67500 28500
" />
<path d="M67500 28500
L68000 28500
" />
<path d="M68000 28500
L68500 28000
" />
<path d="M68500 28000
L68500 27500
" />
<path d="M68500 27500
L68500 27744
" />
<path d="M68500 27744
L68515 27515
" />
<path d="M68515 27515
L68500 27500
" />
<path d="M65500 30500
L65500 34500
" />
<path d="M65500 34500
L65000 35000
" />
<path d="M65000 35000
L64500 35000
" />
<path d="M64500 35000
L64484 34984
" />
<path d="M63500 39000
L62500 38000
" />
<path d="M64468 39000
L63500 39000
" />
<path d="M62500 38000
L62500 32000
" />
<path d="M64468 39000
L64500 39031
" />
<path d="M62500 32000
L62531 32031
" />
<path d="M63500 37000
L64000 37500
" />
<path d="M64000 37500
L65000 37500
" />
<path d="M63500 29000
L63500 37000
" />
<path d="M65500 39500
L65000 40015
" />
<path d="M65000 40015
L64500 40015
" />
<path d="M65515 39484
L65500 39500
" />
<path d="M65000 37500
L65500 38000
" />
<path d="M65500 38000
L65515 39484
" />
<path d="M63500 29000
L65000 27500
" />
<path d="M65000 27500
L67500 27500
" />
<path d="M59500 34031
L59500 29500
" />
<path d="M59500 29500
L59531 29531
" />
<path d="M59500 34000
L59468 33968
" />
<path d="M60500 34500
L60500 31500
" />
<path d="M60000 35000
L60500 34500
" />
<path d="M59515 35000
L60000 35000
" />
<path d="M60500 31500
L62500 29500
" />
<path d="M62500 29500
L62500 29500
" />
<path d="M59515 35000
L59500 35015
" />
<path d="M58500 39000
L57500 38000
" />
<path d="M59500 39000
L58500 39000
" />
<path d="M57500 38000
L57500 28500
" />
<path d="M57500 28500
L57531 28531
" />
<path d="M60000 37500
L60500 38000
" />
<path d="M60500 38000
L60500 39500
" />
<path d="M58500 37000
L59000 37500
" />
<path d="M59000 37500
L60000 37500
" />
<path d="M60484 39515
L60000 40015
" />
<path d="M60000 40015
L59500 40015
" />
<path d="M60500 39500
L60484 39515
" />
<path d="M58500 37000
L58500 36968
" />
<path d="M60500 28500
L60500 28500
" />
<path d="M58500 29000
L59000 28500
" />
<path d="M59000 28500
L60500 28500
" />
<path d="M58500 36968
L58500 29000
" />
<path d="M58500 37000
L58484 36984
" />
<path d="M55515 27515
L55500 31000
" />
<path d="M55500 27500
L55515 27515
" />
<path d="M55500 31000
L55484 30984
" />
<path d="M56500 31500
L56500 28000
" />
<path d="M56500 28000
L57000 27500
" />
<path d="M57000 27500
L58500 27500
" />
<path d="M56500 31500
L56500 31500
" />
<path d="M56500 31500
L56000 32000
" />
<path d="M56000 32000
L55500 32000
" />
<path d="M64500 41000
L61500 41000
" />
<path d="M69500 41000
L66500 41000
" />
<path d="M64500 41000
L66500 41000
" />
<path d="M71500 40500
L71000 41000
" />
<path d="M71000 41000
L69500 41000
" />
<path d="M61500 41000
L59500 41000
" />
<path d="M59500 36000
L61000 36000
" />
<path d="M61000 36000
L61500 36500
" />
<path d="M61500 36500
L61500 41000
" />
<path d="M54500 25500
L54500 38000
" />
<path d="M59500 41000
L57500 41000
" />
<path d="M57500 41000
L54500 38000
" />
<path d="M64500 36000
L66000 36000
" />
<path d="M66000 36000
L66500 36500
" />
<path d="M66500 36500
L66500 41000
" />
<path d="M69500 36000
L71000 36000
" />
<path d="M71000 36000
L71500 36500
" />
<path d="M71500 36500
L71500 40500
" />
</g> 
</svg>
