<?xml version="1.0" standalone="no"?>
 <!DOCTYPE svg PUBLIC "-//W3C//DTD SVG 1.1//EN" 
 "http://www.w3.org/Graphics/SVG/1.1/DTD/svg11.dtd"> 
<svg xmlns="http://www.w3.org/2000/svg" version="1.1" 
    width="29.7002cm" height="21.0007cm" viewBox="0 0 116930 82680 ">
<title>SVG Picture created as LimitSwitchesPlugin-F.CrtYd.svg date 2017/07/15 20:08:50 </title>
  <desc>Picture generated by PCBNEW </desc>
<g style="fill:#000000; fill-opacity:1;stroke:#000000; stroke-opacity:1;
stroke-linecap:round; stroke-linejoin:round; "
 transform="translate(0 0) scale(1 1)">
</g>
<g style="fill:#000000; fill-opacity:0.0; 
stroke:#000000; stroke-width:-0.000393701; stroke-opacity:1; 
stroke-linecap:round; stroke-linejoin:round;">
</g>
<g style="fill:#000000; fill-opacity:0.0; 
stroke:#000000; stroke-width:19.685; stroke-opacity:1; 
stroke-linecap:round; stroke-linejoin:round;">
<path d="M63377 37161
L66035 37161
" />
<path d="M66035 37161
L66035 32870
" />
<path d="M66035 32870
L63377 32870
" />
<path d="M63377 32870
L63377 37161
" />
<path d="M71208 24791
L54791 24791
" />
<path d="M54791 24791
L54791 27212
" />
<path d="M54791 27212
L71208 27212
" />
<path d="M71208 27212
L71208 24791
" />
<path d="M54377 33161
L57035 33161
" />
<path d="M57035 33161
L57035 29854
" />
<path d="M57035 29854
L54377 29854
" />
<path d="M54377 29854
L54377 33161
" />
<path d="M68377 37161
L71035 37161
" />
<path d="M71035 37161
L71035 32870
" />
<path d="M71035 32870
L68377 32870
" />
<path d="M68377 32870
L68377 37161
" />
<path d="M68377 42161
L71035 42161
" />
<path d="M71035 42161
L71035 37870
" />
<path d="M71035 37870
L68377 37870
" />
<path d="M68377 37870
L68377 42161
" />
<path d="M63377 42161
L66035 42161
" />
<path d="M66035 42161
L66035 37870
" />
<path d="M66035 37870
L63377 37870
" />
<path d="M63377 37870
L63377 42161
" />
<path d="M58377 37161
L61035 37161
" />
<path d="M61035 37161
L61035 32870
" />
<path d="M61035 32870
L58377 32870
" />
<path d="M58377 32870
L58377 37161
" />
<path d="M58377 42161
L61035 42161
" />
<path d="M61035 42161
L61035 37870
" />
<path d="M61035 37870
L58377 37870
" />
<path d="M58377 37870
L58377 42161
" />
</g> 
</svg>
