G04 #@! TF.FileFunction,Copper,L2,Bot,Signal*
%FSLAX46Y46*%
G04 Gerber Fmt 4.6, Leading zero omitted, Abs format (unit mm)*
G04 Created by KiCad (PCBNEW 4.0.6-e0-6349~52~ubuntu16.10.1) date Tue Jul  4 23:13:23 2017*
%MOMM*%
%LPD*%
G01*
G04 APERTURE LIST*
%ADD10C,0.100000*%
%ADD11R,1.750000X1.750000*%
%ADD12C,1.750000*%
%ADD13R,1.700000X1.700000*%
%ADD14O,1.700000X1.700000*%
%ADD15C,2.000000*%
%ADD16C,1.270000*%
G04 APERTURE END LIST*
D10*
D11*
X36830000Y17780000D03*
D12*
X36830000Y20280000D03*
X36830000Y22780000D03*
D13*
X52070000Y44450000D03*
D14*
X52070000Y41910000D03*
X49530000Y44450000D03*
X49530000Y41910000D03*
X46990000Y44450000D03*
X46990000Y41910000D03*
X44450000Y44450000D03*
X44450000Y41910000D03*
X41910000Y44450000D03*
X41910000Y41910000D03*
X39370000Y44450000D03*
X39370000Y41910000D03*
X36830000Y44450000D03*
X36830000Y41910000D03*
X34290000Y44450000D03*
X34290000Y41910000D03*
X31750000Y44450000D03*
X31750000Y41910000D03*
X29210000Y44450000D03*
X29210000Y41910000D03*
X26670000Y44450000D03*
X26670000Y41910000D03*
X24130000Y44450000D03*
X24130000Y41910000D03*
X21590000Y44450000D03*
X21590000Y41910000D03*
X19050000Y44450000D03*
X19050000Y41910000D03*
X16510000Y44450000D03*
X16510000Y41910000D03*
X13970000Y44450000D03*
X13970000Y41910000D03*
D11*
X13970000Y27940000D03*
D12*
X13970000Y30440000D03*
D11*
X49530000Y17780000D03*
D12*
X49530000Y20280000D03*
X49530000Y22780000D03*
D11*
X49530000Y5080000D03*
D12*
X49530000Y7580000D03*
X49530000Y10080000D03*
D11*
X36830000Y5080000D03*
D12*
X36830000Y7580000D03*
X36830000Y10080000D03*
D11*
X24130000Y17780000D03*
D12*
X24130000Y20280000D03*
X24130000Y22780000D03*
D11*
X24130000Y5080000D03*
D12*
X24130000Y7580000D03*
X24130000Y10080000D03*
D15*
X50800000Y35560000D03*
X52070000Y39370000D03*
X44450000Y33020000D03*
X49530000Y39370000D03*
X36830000Y30480000D03*
X46990000Y39370000D03*
X31750000Y27940000D03*
X44450000Y39370000D03*
X24130000Y34290000D03*
X31750000Y34290000D03*
X19050000Y36830000D03*
X26670000Y36830000D03*
X13970000Y39370000D03*
X21590000Y39370000D03*
X11430000Y44450000D03*
D16*
X49610000Y22860000D02*
X49500743Y22860169D01*
X49500743Y22860169D02*
X49530000Y34290000D01*
X49530000Y34290000D02*
X50880000Y35480000D01*
X49610000Y22860000D02*
X49530000Y22780000D01*
X50800000Y35560000D02*
X50880000Y35480000D01*
X50880000Y35480000D02*
X50800000Y35560000D01*
X49530000Y20280000D02*
X52070000Y20320000D01*
X52070000Y20320000D02*
X53340000Y21590000D01*
X53340000Y21590000D02*
X53340000Y21590000D01*
X49530000Y20280000D02*
X49490000Y20240000D01*
X53340000Y21590000D02*
X53340000Y38100000D01*
X53340000Y38100000D02*
X52070000Y39370000D01*
X53340000Y21590000D02*
X53300000Y21630000D01*
X49450010Y10159990D02*
X46990000Y10160000D01*
X46990000Y10160000D02*
X44450000Y12700000D01*
X44450000Y12700000D02*
X44530000Y32940000D01*
X49450010Y10159990D02*
X49530000Y10080000D01*
X44450000Y33020000D02*
X44530000Y32940000D01*
X44530000Y32940000D02*
X44450000Y33020000D01*
X52070000Y12700000D02*
X52070000Y8890000D01*
X52030000Y8850000D02*
X50800000Y7620000D01*
X50800000Y7620000D02*
X49530000Y7580000D01*
X52070000Y8890000D02*
X52030000Y8850000D01*
X46990000Y15240000D02*
X48260000Y13970000D01*
X48260000Y13970000D02*
X50800000Y13970000D01*
X50800000Y13970000D02*
X52070000Y12700000D01*
X52070000Y12700000D02*
X52030000Y12660000D01*
X46990000Y15240000D02*
X46990000Y35560000D01*
X49530000Y38100000D02*
X49530000Y39370000D01*
X46990000Y35560000D02*
X49530000Y38100000D01*
X46990000Y15240000D02*
X46990000Y15240000D01*
X46990000Y15240000D02*
X46950000Y15280000D01*
X36830000Y30480000D02*
X36830000Y22860000D01*
X36830000Y22860000D02*
X37084000Y22606000D01*
X36830000Y30480000D02*
X36910000Y30400000D01*
X39370000Y31750000D02*
X39370000Y31750000D01*
X39370000Y31750000D02*
X39370000Y31750000D01*
X39370000Y31750000D02*
X39370000Y31750000D01*
X39370000Y31750000D02*
X44450000Y36830000D01*
X44450000Y36830000D02*
X45720000Y36830000D01*
X45720000Y36830000D02*
X46990000Y38100000D01*
X46990000Y38100000D02*
X46990000Y39370000D01*
X46990000Y39370000D02*
X46990000Y38749542D01*
X46990000Y38749542D02*
X47030000Y39330000D01*
X47030000Y39330000D02*
X46990000Y39370000D01*
X39370000Y31750000D02*
X39370000Y21590000D01*
X39370000Y21590000D02*
X38100000Y20320000D01*
X38100000Y20320000D02*
X36830000Y20320000D01*
X36830000Y20320000D02*
X36790000Y20360000D01*
X34290000Y10160000D02*
X31750000Y12700000D01*
X36750000Y10160000D02*
X34290000Y10160000D01*
X31750000Y12700000D02*
X31750000Y27940000D01*
X36750000Y10160000D02*
X36830000Y10080000D01*
X31750000Y27940000D02*
X31830000Y27860000D01*
X34290000Y15240000D02*
X35560000Y13970000D01*
X35560000Y13970000D02*
X38100000Y13970000D01*
X34290000Y35560000D02*
X34290000Y15240000D01*
X39370000Y8890000D02*
X38100000Y7580000D01*
X38100000Y7580000D02*
X36830000Y7580000D01*
X39410000Y8930000D02*
X39370000Y8890000D01*
X38100000Y13970000D02*
X39370000Y12700000D01*
X39370000Y12700000D02*
X39410000Y8930000D01*
X34290000Y35560000D02*
X38100000Y39370000D01*
X38100000Y39370000D02*
X44450000Y39370000D01*
X24130000Y22780000D02*
X24130000Y34290000D01*
X24130000Y34290000D02*
X24210000Y34210000D01*
X24130000Y22860000D02*
X24050000Y22940000D01*
X26670000Y21590000D02*
X26670000Y29210000D01*
X25400000Y20320000D02*
X26670000Y21590000D01*
X24170000Y20320000D02*
X25400000Y20320000D01*
X26670000Y29210000D02*
X31750000Y34290000D01*
X31750000Y34290000D02*
X31750000Y34290000D01*
X24170000Y20320000D02*
X24130000Y20280000D01*
X21590000Y10160000D02*
X19050000Y12700000D01*
X24130000Y10160000D02*
X21590000Y10160000D01*
X19050000Y12700000D02*
X19050000Y36830000D01*
X19050000Y36830000D02*
X19130000Y36750000D01*
X25400000Y13970000D02*
X26670000Y12700000D01*
X26670000Y12700000D02*
X26670000Y8890000D01*
X21590000Y15240000D02*
X22860000Y13970000D01*
X22860000Y13970000D02*
X25400000Y13970000D01*
X26630000Y8850000D02*
X25400000Y7580000D01*
X25400000Y7580000D02*
X24130000Y7580000D01*
X26670000Y8890000D02*
X26630000Y8850000D01*
X21590000Y15240000D02*
X21590000Y15320000D01*
X26670000Y36830000D02*
X26670000Y36830000D01*
X21590000Y35560000D02*
X22860000Y36830000D01*
X22860000Y36830000D02*
X26670000Y36830000D01*
X21590000Y15320000D02*
X21590000Y35560000D01*
X21590000Y15240000D02*
X21550000Y15280000D01*
X14010000Y39330000D02*
X13970000Y30480000D01*
X13970000Y39370000D02*
X14010000Y39330000D01*
X13970000Y30480000D02*
X13930000Y30520000D01*
X16510000Y29210000D02*
X16510000Y38100000D01*
X16510000Y38100000D02*
X17780000Y39370000D01*
X17780000Y39370000D02*
X21590000Y39370000D01*
X16510000Y29210000D02*
X16510000Y29210000D01*
X16510000Y29210000D02*
X15240000Y27940000D01*
X15240000Y27940000D02*
X13970000Y27940000D01*
X36830000Y5080000D02*
X29210000Y5080000D01*
X49530000Y5080000D02*
X41910000Y5080000D01*
X36830000Y5080000D02*
X41910000Y5080000D01*
X54610000Y6350000D02*
X53340000Y5080000D01*
X53340000Y5080000D02*
X49530000Y5080000D01*
X29210000Y5080000D02*
X24130000Y5080000D01*
X24130000Y17780000D02*
X27940000Y17780000D01*
X27940000Y17780000D02*
X29210000Y16510000D01*
X29210000Y16510000D02*
X29210000Y5080000D01*
X11430000Y44450000D02*
X11430000Y12700000D01*
X24130000Y5080000D02*
X19050000Y5080000D01*
X19050000Y5080000D02*
X11430000Y12700000D01*
X36830000Y17780000D02*
X40640000Y17780000D01*
X40640000Y17780000D02*
X41910000Y16510000D01*
X41910000Y16510000D02*
X41910000Y5080000D01*
X49530000Y17780000D02*
X53340000Y17780000D01*
X53340000Y17780000D02*
X54610000Y16510000D01*
X54610000Y16510000D02*
X54610000Y6350000D01*
M02*
