G04 #@! TF.FileFunction,Legend,Top*
%FSLAX46Y46*%
G04 Gerber Fmt 4.6, Leading zero omitted, Abs format (unit mm)*
G04 Created by KiCad (PCBNEW 4.0.6-e0-6349~52~ubuntu16.10.1) date Sat Jul 15 20:13:40 2017*
%MOMM*%
%LPD*%
G01*
G04 APERTURE LIST*
%ADD10C,0.100000*%
%ADD11C,0.120000*%
%ADD12C,0.150000*%
G04 APERTURE END LIST*
D10*
D11*
X1360000Y-12710000D02*
X7310000Y-12710000D01*
X7310000Y-12710000D02*
X7310000Y-2610000D01*
X7310000Y-2610000D02*
X1360000Y-2610000D01*
X1360000Y-2610000D02*
X1360000Y-12710000D01*
X1360000Y-9410000D02*
X2110000Y-9410000D01*
X2110000Y-9410000D02*
X2110000Y-5910000D01*
X2110000Y-5910000D02*
X1360000Y-5910000D01*
X1360000Y-5910000D02*
X1360000Y-9410000D01*
X1360000Y-12710000D02*
X2110000Y-12710000D01*
X2110000Y-12710000D02*
X2110000Y-10910000D01*
X2110000Y-10910000D02*
X1360000Y-10910000D01*
X1360000Y-10910000D02*
X1360000Y-12710000D01*
X1360000Y-4410000D02*
X2110000Y-4410000D01*
X2110000Y-4410000D02*
X2110000Y-2610000D01*
X2110000Y-2610000D02*
X1360000Y-2610000D01*
X1360000Y-2610000D02*
X1360000Y-4410000D01*
X3610000Y-12710000D02*
X3610000Y-11960000D01*
X3610000Y-11960000D02*
X6560000Y-11960000D01*
X6560000Y-11960000D02*
X6560000Y-7660000D01*
X3610000Y-2610000D02*
X3610000Y-3360000D01*
X3610000Y-3360000D02*
X6560000Y-3360000D01*
X6560000Y-3360000D02*
X6560000Y-7660000D01*
X1060000Y-10510000D02*
X1060000Y-13010000D01*
X1060000Y-13010000D02*
X3560000Y-13010000D01*
X17780000Y17840000D02*
X-20380000Y17840000D01*
X-20380000Y17840000D02*
X-20380000Y12640000D01*
X-20380000Y12640000D02*
X20380000Y12640000D01*
X20380000Y12640000D02*
X20380000Y15240000D01*
X20380000Y15240000D02*
X17780000Y15240000D01*
X17780000Y15240000D02*
X17780000Y17840000D01*
X19050000Y17840000D02*
X20380000Y17840000D01*
X20380000Y17840000D02*
X20380000Y16510000D01*
X-21500000Y-2550000D02*
X-15550000Y-2550000D01*
X-15550000Y-2550000D02*
X-15550000Y5050000D01*
X-15550000Y5050000D02*
X-21500000Y5050000D01*
X-21500000Y5050000D02*
X-21500000Y-2550000D01*
X-21500000Y750000D02*
X-20750000Y750000D01*
X-20750000Y750000D02*
X-20750000Y1750000D01*
X-20750000Y1750000D02*
X-21500000Y1750000D01*
X-21500000Y1750000D02*
X-21500000Y750000D01*
X-21500000Y-2550000D02*
X-20750000Y-2550000D01*
X-20750000Y-2550000D02*
X-20750000Y-750000D01*
X-20750000Y-750000D02*
X-21500000Y-750000D01*
X-21500000Y-750000D02*
X-21500000Y-2550000D01*
X-21500000Y3250000D02*
X-20750000Y3250000D01*
X-20750000Y3250000D02*
X-20750000Y5050000D01*
X-20750000Y5050000D02*
X-21500000Y5050000D01*
X-21500000Y5050000D02*
X-21500000Y3250000D01*
X-19250000Y-2550000D02*
X-19250000Y-1800000D01*
X-19250000Y-1800000D02*
X-16300000Y-1800000D01*
X-16300000Y-1800000D02*
X-16300000Y1250000D01*
X-19250000Y5050000D02*
X-19250000Y4300000D01*
X-19250000Y4300000D02*
X-16300000Y4300000D01*
X-16300000Y4300000D02*
X-16300000Y1250000D01*
X-21800000Y-350000D02*
X-21800000Y-2850000D01*
X-21800000Y-2850000D02*
X-19300000Y-2850000D01*
X14060000Y-12710000D02*
X20010000Y-12710000D01*
X20010000Y-12710000D02*
X20010000Y-2610000D01*
X20010000Y-2610000D02*
X14060000Y-2610000D01*
X14060000Y-2610000D02*
X14060000Y-12710000D01*
X14060000Y-9410000D02*
X14810000Y-9410000D01*
X14810000Y-9410000D02*
X14810000Y-5910000D01*
X14810000Y-5910000D02*
X14060000Y-5910000D01*
X14060000Y-5910000D02*
X14060000Y-9410000D01*
X14060000Y-12710000D02*
X14810000Y-12710000D01*
X14810000Y-12710000D02*
X14810000Y-10910000D01*
X14810000Y-10910000D02*
X14060000Y-10910000D01*
X14060000Y-10910000D02*
X14060000Y-12710000D01*
X14060000Y-4410000D02*
X14810000Y-4410000D01*
X14810000Y-4410000D02*
X14810000Y-2610000D01*
X14810000Y-2610000D02*
X14060000Y-2610000D01*
X14060000Y-2610000D02*
X14060000Y-4410000D01*
X16310000Y-12710000D02*
X16310000Y-11960000D01*
X16310000Y-11960000D02*
X19260000Y-11960000D01*
X19260000Y-11960000D02*
X19260000Y-7660000D01*
X16310000Y-2610000D02*
X16310000Y-3360000D01*
X16310000Y-3360000D02*
X19260000Y-3360000D01*
X19260000Y-3360000D02*
X19260000Y-7660000D01*
X13760000Y-10510000D02*
X13760000Y-13010000D01*
X13760000Y-13010000D02*
X16260000Y-13010000D01*
X14060000Y-25410000D02*
X20010000Y-25410000D01*
X20010000Y-25410000D02*
X20010000Y-15310000D01*
X20010000Y-15310000D02*
X14060000Y-15310000D01*
X14060000Y-15310000D02*
X14060000Y-25410000D01*
X14060000Y-22110000D02*
X14810000Y-22110000D01*
X14810000Y-22110000D02*
X14810000Y-18610000D01*
X14810000Y-18610000D02*
X14060000Y-18610000D01*
X14060000Y-18610000D02*
X14060000Y-22110000D01*
X14060000Y-25410000D02*
X14810000Y-25410000D01*
X14810000Y-25410000D02*
X14810000Y-23610000D01*
X14810000Y-23610000D02*
X14060000Y-23610000D01*
X14060000Y-23610000D02*
X14060000Y-25410000D01*
X14060000Y-17110000D02*
X14810000Y-17110000D01*
X14810000Y-17110000D02*
X14810000Y-15310000D01*
X14810000Y-15310000D02*
X14060000Y-15310000D01*
X14060000Y-15310000D02*
X14060000Y-17110000D01*
X16310000Y-25410000D02*
X16310000Y-24660000D01*
X16310000Y-24660000D02*
X19260000Y-24660000D01*
X19260000Y-24660000D02*
X19260000Y-20360000D01*
X16310000Y-15310000D02*
X16310000Y-16060000D01*
X16310000Y-16060000D02*
X19260000Y-16060000D01*
X19260000Y-16060000D02*
X19260000Y-20360000D01*
X13760000Y-23210000D02*
X13760000Y-25710000D01*
X13760000Y-25710000D02*
X16260000Y-25710000D01*
X1360000Y-25410000D02*
X7310000Y-25410000D01*
X7310000Y-25410000D02*
X7310000Y-15310000D01*
X7310000Y-15310000D02*
X1360000Y-15310000D01*
X1360000Y-15310000D02*
X1360000Y-25410000D01*
X1360000Y-22110000D02*
X2110000Y-22110000D01*
X2110000Y-22110000D02*
X2110000Y-18610000D01*
X2110000Y-18610000D02*
X1360000Y-18610000D01*
X1360000Y-18610000D02*
X1360000Y-22110000D01*
X1360000Y-25410000D02*
X2110000Y-25410000D01*
X2110000Y-25410000D02*
X2110000Y-23610000D01*
X2110000Y-23610000D02*
X1360000Y-23610000D01*
X1360000Y-23610000D02*
X1360000Y-25410000D01*
X1360000Y-17110000D02*
X2110000Y-17110000D01*
X2110000Y-17110000D02*
X2110000Y-15310000D01*
X2110000Y-15310000D02*
X1360000Y-15310000D01*
X1360000Y-15310000D02*
X1360000Y-17110000D01*
X3610000Y-25410000D02*
X3610000Y-24660000D01*
X3610000Y-24660000D02*
X6560000Y-24660000D01*
X6560000Y-24660000D02*
X6560000Y-20360000D01*
X3610000Y-15310000D02*
X3610000Y-16060000D01*
X3610000Y-16060000D02*
X6560000Y-16060000D01*
X6560000Y-16060000D02*
X6560000Y-20360000D01*
X1060000Y-23210000D02*
X1060000Y-25710000D01*
X1060000Y-25710000D02*
X3560000Y-25710000D01*
X-11340000Y-12710000D02*
X-5390000Y-12710000D01*
X-5390000Y-12710000D02*
X-5390000Y-2610000D01*
X-5390000Y-2610000D02*
X-11340000Y-2610000D01*
X-11340000Y-2610000D02*
X-11340000Y-12710000D01*
X-11340000Y-9410000D02*
X-10590000Y-9410000D01*
X-10590000Y-9410000D02*
X-10590000Y-5910000D01*
X-10590000Y-5910000D02*
X-11340000Y-5910000D01*
X-11340000Y-5910000D02*
X-11340000Y-9410000D01*
X-11340000Y-12710000D02*
X-10590000Y-12710000D01*
X-10590000Y-12710000D02*
X-10590000Y-10910000D01*
X-10590000Y-10910000D02*
X-11340000Y-10910000D01*
X-11340000Y-10910000D02*
X-11340000Y-12710000D01*
X-11340000Y-4410000D02*
X-10590000Y-4410000D01*
X-10590000Y-4410000D02*
X-10590000Y-2610000D01*
X-10590000Y-2610000D02*
X-11340000Y-2610000D01*
X-11340000Y-2610000D02*
X-11340000Y-4410000D01*
X-9090000Y-12710000D02*
X-9090000Y-11960000D01*
X-9090000Y-11960000D02*
X-6140000Y-11960000D01*
X-6140000Y-11960000D02*
X-6140000Y-7660000D01*
X-9090000Y-2610000D02*
X-9090000Y-3360000D01*
X-9090000Y-3360000D02*
X-6140000Y-3360000D01*
X-6140000Y-3360000D02*
X-6140000Y-7660000D01*
X-11640000Y-10510000D02*
X-11640000Y-13010000D01*
X-11640000Y-13010000D02*
X-9140000Y-13010000D01*
X-11340000Y-25410000D02*
X-5390000Y-25410000D01*
X-5390000Y-25410000D02*
X-5390000Y-15310000D01*
X-5390000Y-15310000D02*
X-11340000Y-15310000D01*
X-11340000Y-15310000D02*
X-11340000Y-25410000D01*
X-11340000Y-22110000D02*
X-10590000Y-22110000D01*
X-10590000Y-22110000D02*
X-10590000Y-18610000D01*
X-10590000Y-18610000D02*
X-11340000Y-18610000D01*
X-11340000Y-18610000D02*
X-11340000Y-22110000D01*
X-11340000Y-25410000D02*
X-10590000Y-25410000D01*
X-10590000Y-25410000D02*
X-10590000Y-23610000D01*
X-10590000Y-23610000D02*
X-11340000Y-23610000D01*
X-11340000Y-23610000D02*
X-11340000Y-25410000D01*
X-11340000Y-17110000D02*
X-10590000Y-17110000D01*
X-10590000Y-17110000D02*
X-10590000Y-15310000D01*
X-10590000Y-15310000D02*
X-11340000Y-15310000D01*
X-11340000Y-15310000D02*
X-11340000Y-17110000D01*
X-9090000Y-25410000D02*
X-9090000Y-24660000D01*
X-9090000Y-24660000D02*
X-6140000Y-24660000D01*
X-6140000Y-24660000D02*
X-6140000Y-20360000D01*
X-9090000Y-15310000D02*
X-9090000Y-16060000D01*
X-9090000Y-16060000D02*
X-6140000Y-16060000D01*
X-6140000Y-16060000D02*
X-6140000Y-20360000D01*
X-11640000Y-23210000D02*
X-11640000Y-25710000D01*
X-11640000Y-25710000D02*
X-9140000Y-25710000D01*
D12*
X-237619Y-8421904D02*
X476667Y-8421904D01*
X619524Y-8469524D01*
X714762Y-8564762D01*
X762381Y-8707619D01*
X762381Y-8802857D01*
X286190Y-7755238D02*
X762381Y-7755238D01*
X-237619Y-8088571D02*
X286190Y-7755238D01*
X-237619Y-7421904D01*
X762381Y-6564761D02*
X762381Y-7136190D01*
X762381Y-6850476D02*
X-237619Y-6850476D01*
X-94762Y-6945714D01*
X476Y-7040952D01*
X48095Y-7136190D01*
X20832381Y14906667D02*
X21546667Y14906667D01*
X21689524Y14859047D01*
X21784762Y14763809D01*
X21832381Y14620952D01*
X21832381Y14525714D01*
X20832381Y15573333D02*
X20832381Y15668572D01*
X20880000Y15763810D01*
X20927619Y15811429D01*
X21022857Y15859048D01*
X21213333Y15906667D01*
X21451429Y15906667D01*
X21641905Y15859048D01*
X21737143Y15811429D01*
X21784762Y15763810D01*
X21832381Y15668572D01*
X21832381Y15573333D01*
X21784762Y15478095D01*
X21737143Y15430476D01*
X21641905Y15382857D01*
X21451429Y15335238D01*
X21213333Y15335238D01*
X21022857Y15382857D01*
X20927619Y15430476D01*
X20880000Y15478095D01*
X20832381Y15573333D01*
X-23097619Y440477D02*
X-22383333Y440477D01*
X-22240476Y392857D01*
X-22145238Y297619D01*
X-22097619Y154762D01*
X-22097619Y59524D01*
X-22145238Y869048D02*
X-22097619Y1011905D01*
X-22097619Y1250001D01*
X-22145238Y1345239D01*
X-22192857Y1392858D01*
X-22288095Y1440477D01*
X-22383333Y1440477D01*
X-22478571Y1392858D01*
X-22526190Y1345239D01*
X-22573810Y1250001D01*
X-22621429Y1059524D01*
X-22669048Y964286D01*
X-22716667Y916667D01*
X-22811905Y869048D01*
X-22907143Y869048D01*
X-23002381Y916667D01*
X-23050000Y964286D01*
X-23097619Y1059524D01*
X-23097619Y1297620D01*
X-23050000Y1440477D01*
X-22097619Y2392858D02*
X-22097619Y1821429D01*
X-22097619Y2107143D02*
X-23097619Y2107143D01*
X-22954762Y2011905D01*
X-22859524Y1916667D01*
X-22811905Y1821429D01*
X12462381Y-8469523D02*
X13176667Y-8469523D01*
X13319524Y-8517143D01*
X13414762Y-8612381D01*
X13462381Y-8755238D01*
X13462381Y-8850476D01*
X12462381Y-8088571D02*
X13462381Y-7421904D01*
X12462381Y-7421904D02*
X13462381Y-8088571D01*
X13462381Y-6517142D02*
X13462381Y-7088571D01*
X13462381Y-6802857D02*
X12462381Y-6802857D01*
X12605238Y-6898095D01*
X12700476Y-6993333D01*
X12748095Y-7088571D01*
X12462381Y-21169523D02*
X13176667Y-21169523D01*
X13319524Y-21217143D01*
X13414762Y-21312381D01*
X13462381Y-21455238D01*
X13462381Y-21550476D01*
X12462381Y-20788571D02*
X13462381Y-20121904D01*
X12462381Y-20121904D02*
X13462381Y-20788571D01*
X12557619Y-19788571D02*
X12510000Y-19740952D01*
X12462381Y-19645714D01*
X12462381Y-19407618D01*
X12510000Y-19312380D01*
X12557619Y-19264761D01*
X12652857Y-19217142D01*
X12748095Y-19217142D01*
X12890952Y-19264761D01*
X13462381Y-19836190D01*
X13462381Y-19217142D01*
X-237619Y-21121904D02*
X476667Y-21121904D01*
X619524Y-21169524D01*
X714762Y-21264762D01*
X762381Y-21407619D01*
X762381Y-21502857D01*
X286190Y-20455238D02*
X762381Y-20455238D01*
X-237619Y-20788571D02*
X286190Y-20455238D01*
X-237619Y-20121904D01*
X-142381Y-19836190D02*
X-190000Y-19788571D01*
X-237619Y-19693333D01*
X-237619Y-19455237D01*
X-190000Y-19359999D01*
X-142381Y-19312380D01*
X-47143Y-19264761D01*
X48095Y-19264761D01*
X190952Y-19312380D01*
X762381Y-19883809D01*
X762381Y-19264761D01*
X-12937619Y-8469523D02*
X-12223333Y-8469523D01*
X-12080476Y-8517143D01*
X-11985238Y-8612381D01*
X-11937619Y-8755238D01*
X-11937619Y-8850476D01*
X-12937619Y-8088571D02*
X-12937619Y-7421904D01*
X-11937619Y-8088571D01*
X-11937619Y-7421904D01*
X-11937619Y-6517142D02*
X-11937619Y-7088571D01*
X-11937619Y-6802857D02*
X-12937619Y-6802857D01*
X-12794762Y-6898095D01*
X-12699524Y-6993333D01*
X-12651905Y-7088571D01*
X-12937619Y-21169523D02*
X-12223333Y-21169523D01*
X-12080476Y-21217143D01*
X-11985238Y-21312381D01*
X-11937619Y-21455238D01*
X-11937619Y-21550476D01*
X-12937619Y-20788571D02*
X-12937619Y-20121904D01*
X-11937619Y-20788571D01*
X-11937619Y-20121904D01*
X-12842381Y-19788571D02*
X-12890000Y-19740952D01*
X-12937619Y-19645714D01*
X-12937619Y-19407618D01*
X-12890000Y-19312380D01*
X-12842381Y-19264761D01*
X-12747143Y-19217142D01*
X-12651905Y-19217142D01*
X-12509048Y-19264761D01*
X-11937619Y-19836190D01*
X-11937619Y-19217142D01*
M02*
