G04 #@! TF.FileFunction,Soldermask,Bot*
%FSLAX46Y46*%
G04 Gerber Fmt 4.6, Leading zero omitted, Abs format (unit mm)*
G04 Created by KiCad (PCBNEW 4.0.6-e0-6349~52~ubuntu16.10.1) date Tue Jul 11 23:35:05 2017*
%MOMM*%
%LPD*%
G01*
G04 APERTURE LIST*
%ADD10C,0.100000*%
%ADD11C,0.300000*%
%ADD12R,1.750000X1.750000*%
%ADD13C,1.750000*%
%ADD14R,1.700000X1.700000*%
%ADD15O,1.700000X1.700000*%
%ADD16C,2.000000*%
G04 APERTURE END LIST*
D10*
D11*
X-22795713Y41541429D02*
X-21867142Y41541429D01*
X-22367142Y40970000D01*
X-22152856Y40970000D01*
X-22009999Y40898571D01*
X-21938570Y40827143D01*
X-21867142Y40684286D01*
X-21867142Y40327143D01*
X-21938570Y40184286D01*
X-22009999Y40112857D01*
X-22152856Y40041429D01*
X-22581428Y40041429D01*
X-22724285Y40112857D01*
X-22795713Y40184286D01*
X-21367142Y41541429D02*
X-20438571Y41541429D01*
X-20938571Y40970000D01*
X-20724285Y40970000D01*
X-20581428Y40898571D01*
X-20509999Y40827143D01*
X-20438571Y40684286D01*
X-20438571Y40327143D01*
X-20509999Y40184286D01*
X-20581428Y40112857D01*
X-20724285Y40041429D01*
X-21152857Y40041429D01*
X-21295714Y40112857D01*
X-21367142Y40184286D01*
X-19795714Y40184286D02*
X-19724286Y40112857D01*
X-19795714Y40041429D01*
X-19867143Y40112857D01*
X-19795714Y40184286D01*
X-19795714Y40041429D01*
X-18795714Y41541429D02*
X-18652857Y41541429D01*
X-18510000Y41470000D01*
X-18438571Y41398571D01*
X-18367142Y41255714D01*
X-18295714Y40970000D01*
X-18295714Y40612857D01*
X-18367142Y40327143D01*
X-18438571Y40184286D01*
X-18510000Y40112857D01*
X-18652857Y40041429D01*
X-18795714Y40041429D01*
X-18938571Y40112857D01*
X-19010000Y40184286D01*
X-19081428Y40327143D01*
X-19152857Y40612857D01*
X-19152857Y40970000D01*
X-19081428Y41255714D01*
X-19010000Y41398571D01*
X-18938571Y41470000D01*
X-18795714Y41541429D01*
X-17724286Y41398571D02*
X-17652857Y41470000D01*
X-17510000Y41541429D01*
X-17152857Y41541429D01*
X-17010000Y41470000D01*
X-16938571Y41398571D01*
X-16867143Y41255714D01*
X-16867143Y41112857D01*
X-16938571Y40898571D01*
X-17795714Y40041429D01*
X-16867143Y40041429D01*
X-15938572Y41541429D02*
X-15795715Y41541429D01*
X-15652858Y41470000D01*
X-15581429Y41398571D01*
X-15510000Y41255714D01*
X-15438572Y40970000D01*
X-15438572Y40612857D01*
X-15510000Y40327143D01*
X-15581429Y40184286D01*
X-15652858Y40112857D01*
X-15795715Y40041429D01*
X-15938572Y40041429D01*
X-16081429Y40112857D01*
X-16152858Y40184286D01*
X-16224286Y40327143D01*
X-16295715Y40612857D01*
X-16295715Y40970000D01*
X-16224286Y41255714D01*
X-16152858Y41398571D01*
X-16081429Y41470000D01*
X-15938572Y41541429D01*
X-13652858Y40041429D02*
X-13652858Y41041429D01*
X-13652858Y40898571D02*
X-13581430Y40970000D01*
X-13438572Y41041429D01*
X-13224287Y41041429D01*
X-13081430Y40970000D01*
X-13010001Y40827143D01*
X-13010001Y40041429D01*
X-13010001Y40827143D02*
X-12938572Y40970000D01*
X-12795715Y41041429D01*
X-12581430Y41041429D01*
X-12438572Y40970000D01*
X-12367144Y40827143D01*
X-12367144Y40041429D01*
X-11652858Y40041429D02*
X-11652858Y41041429D01*
X-11652858Y40898571D02*
X-11581430Y40970000D01*
X-11438572Y41041429D01*
X-11224287Y41041429D01*
X-11081430Y40970000D01*
X-11010001Y40827143D01*
X-11010001Y40041429D01*
X-11010001Y40827143D02*
X-10938572Y40970000D01*
X-10795715Y41041429D01*
X-10581430Y41041429D01*
X-10438572Y40970000D01*
X-10367144Y40827143D01*
X-10367144Y40041429D01*
X-33020000Y39370000D02*
X0Y39370000D01*
X-33020000Y27940000D02*
X-33020000Y42070000D01*
X0Y27940000D02*
X0Y42070000D01*
X0Y39370000D02*
X-1126504Y38783579D01*
X0Y39370000D02*
X-1126504Y39956421D01*
X-33020000Y39370000D02*
X-31893496Y38783579D01*
X-33020000Y39370000D02*
X-31893496Y39956421D01*
X47661429Y-20184285D02*
X47590000Y-20112856D01*
X47518571Y-19969999D01*
X47518571Y-19612856D01*
X47590000Y-19469999D01*
X47661429Y-19398570D01*
X47804286Y-19327142D01*
X47947143Y-19327142D01*
X48161429Y-19398570D01*
X49018571Y-20255713D01*
X49018571Y-19327142D01*
X47518571Y-18827142D02*
X47518571Y-17827142D01*
X49018571Y-18469999D01*
X48875714Y-17255714D02*
X48947143Y-17184286D01*
X49018571Y-17255714D01*
X48947143Y-17327143D01*
X48875714Y-17255714D01*
X49018571Y-17255714D01*
X49018571Y-16470000D02*
X49018571Y-16184285D01*
X48947143Y-16041428D01*
X48875714Y-15970000D01*
X48661429Y-15827142D01*
X48375714Y-15755714D01*
X47804286Y-15755714D01*
X47661429Y-15827142D01*
X47590000Y-15898571D01*
X47518571Y-16041428D01*
X47518571Y-16327142D01*
X47590000Y-16470000D01*
X47661429Y-16541428D01*
X47804286Y-16612857D01*
X48161429Y-16612857D01*
X48304286Y-16541428D01*
X48375714Y-16470000D01*
X48447143Y-16327142D01*
X48447143Y-16041428D01*
X48375714Y-15898571D01*
X48304286Y-15827142D01*
X48161429Y-15755714D01*
X48018571Y-14470000D02*
X49018571Y-14470000D01*
X47447143Y-14827143D02*
X48518571Y-15184286D01*
X48518571Y-14255714D01*
X47518571Y-13398572D02*
X47518571Y-13255715D01*
X47590000Y-13112858D01*
X47661429Y-13041429D01*
X47804286Y-12970000D01*
X48090000Y-12898572D01*
X48447143Y-12898572D01*
X48732857Y-12970000D01*
X48875714Y-13041429D01*
X48947143Y-13112858D01*
X49018571Y-13255715D01*
X49018571Y-13398572D01*
X48947143Y-13541429D01*
X48875714Y-13612858D01*
X48732857Y-13684286D01*
X48447143Y-13755715D01*
X48090000Y-13755715D01*
X47804286Y-13684286D01*
X47661429Y-13612858D01*
X47590000Y-13541429D01*
X47518571Y-13398572D01*
X49018571Y-11112858D02*
X48018571Y-11112858D01*
X48161429Y-11112858D02*
X48090000Y-11041430D01*
X48018571Y-10898572D01*
X48018571Y-10684287D01*
X48090000Y-10541430D01*
X48232857Y-10470001D01*
X49018571Y-10470001D01*
X48232857Y-10470001D02*
X48090000Y-10398572D01*
X48018571Y-10255715D01*
X48018571Y-10041430D01*
X48090000Y-9898572D01*
X48232857Y-9827144D01*
X49018571Y-9827144D01*
X49018571Y-9112858D02*
X48018571Y-9112858D01*
X48161429Y-9112858D02*
X48090000Y-9041430D01*
X48018571Y-8898572D01*
X48018571Y-8684287D01*
X48090000Y-8541430D01*
X48232857Y-8470001D01*
X49018571Y-8470001D01*
X48232857Y-8470001D02*
X48090000Y-8398572D01*
X48018571Y-8255715D01*
X48018571Y-8041430D01*
X48090000Y-7898572D01*
X48232857Y-7827144D01*
X49018571Y-7827144D01*
X46990000Y-27940000D02*
X46990000Y0D01*
X33020000Y-27940000D02*
X49690000Y-27940000D01*
X33020000Y0D02*
X49690000Y0D01*
X46990000Y0D02*
X47576421Y-1126504D01*
X46990000Y0D02*
X46403579Y-1126504D01*
X46990000Y-27940000D02*
X47576421Y-26813496D01*
X46990000Y-27940000D02*
X46403579Y-26813496D01*
D12*
X3810000Y-10160000D03*
D13*
X3810000Y-7660000D03*
X3810000Y-5160000D03*
D14*
X19050000Y16510000D03*
D15*
X19050000Y13970000D03*
X16510000Y16510000D03*
X16510000Y13970000D03*
X13970000Y16510000D03*
X13970000Y13970000D03*
X11430000Y16510000D03*
X11430000Y13970000D03*
X8890000Y16510000D03*
X8890000Y13970000D03*
X6350000Y16510000D03*
X6350000Y13970000D03*
X3810000Y16510000D03*
X3810000Y13970000D03*
X1270000Y16510000D03*
X1270000Y13970000D03*
X-1270000Y16510000D03*
X-1270000Y13970000D03*
X-3810000Y16510000D03*
X-3810000Y13970000D03*
X-6350000Y16510000D03*
X-6350000Y13970000D03*
X-8890000Y16510000D03*
X-8890000Y13970000D03*
X-11430000Y16510000D03*
X-11430000Y13970000D03*
X-13970000Y16510000D03*
X-13970000Y13970000D03*
X-16510000Y16510000D03*
X-16510000Y13970000D03*
X-19050000Y16510000D03*
X-19050000Y13970000D03*
D12*
X-19050000Y0D03*
D13*
X-19050000Y2500000D03*
D12*
X16510000Y-10160000D03*
D13*
X16510000Y-7660000D03*
X16510000Y-5160000D03*
D12*
X16510000Y-22860000D03*
D13*
X16510000Y-20360000D03*
X16510000Y-17860000D03*
D12*
X3810000Y-22860000D03*
D13*
X3810000Y-20360000D03*
X3810000Y-17860000D03*
D12*
X-8890000Y-10160000D03*
D13*
X-8890000Y-7660000D03*
X-8890000Y-5160000D03*
D12*
X-8890000Y-22860000D03*
D13*
X-8890000Y-20360000D03*
X-8890000Y-17860000D03*
D16*
X17780000Y7620000D03*
X19050000Y11430000D03*
X11430000Y5080000D03*
X16510000Y11430000D03*
X3810000Y2540000D03*
X13970000Y11430000D03*
X-1270000Y0D03*
X11430000Y11430000D03*
X-8890000Y6350000D03*
X-1270000Y6350000D03*
X-13970000Y8890000D03*
X-6350000Y8890000D03*
X-19050000Y11430000D03*
X-11430000Y11430000D03*
X-21590000Y16510000D03*
M02*
