M48
;DRILL file {KiCad 4.0.6-e0-6349~52~ubuntu16.10.1} date Mon Jun 19 20:29:08 2017
;FORMAT={-:-/ absolute / metric / decimal}
FMAT,2
METRIC,TZ
T1C1.000
T2C1.050
%
G90
G05
M71
T1
X6.35Y31.75
X11.43Y22.86
X11.43Y20.32
X12.7Y34.29
X13.97Y22.86
X13.97Y20.32
X15.24Y12.7
X16.51Y22.86
X16.51Y20.32
X17.78Y30.48
X19.05Y22.86
X19.05Y20.32
X21.59Y36.83
X21.59Y22.86
X21.59Y20.32
X24.13Y22.86
X24.13Y20.32
X26.67Y36.75
X26.67Y34.25
X26.67Y31.75
X26.67Y22.86
X26.67Y20.32
X26.67Y11.35
X26.67Y8.85
X26.67Y6.35
X29.21Y22.86
X29.21Y20.32
X31.75Y36.83
X31.75Y27.94
X31.75Y22.86
X31.75Y20.32
X31.75Y8.89
X34.29Y22.86
X34.29Y20.32
X36.83Y36.75
X36.83Y34.25
X36.83Y31.75
X36.83Y22.86
X36.83Y20.32
X36.83Y11.35
X36.83Y8.85
X36.83Y6.35
X39.37Y22.86
X39.37Y20.32
X41.91Y36.83
X41.91Y25.4
X41.91Y22.86
X41.91Y20.32
X41.91Y8.89
X44.45Y22.86
X44.45Y20.32
X46.99Y36.75
X46.99Y34.25
X46.99Y31.75
X46.99Y25.4
X46.99Y22.86
X46.99Y20.32
X46.99Y17.78
X46.99Y11.35
X46.99Y8.85
X46.99Y6.35
X49.53Y22.86
X49.53Y20.32
X52.07Y41.91
X52.07Y38.1
X52.07Y34.29
T2
X16.51Y36.79
X16.51Y34.29
T0
M30
