G04 #@! TF.FileFunction,Copper,L1,Top,Signal*
%FSLAX46Y46*%
G04 Gerber Fmt 4.6, Leading zero omitted, Abs format (unit mm)*
G04 Created by KiCad (PCBNEW 4.0.6-e0-6349~52~ubuntu16.10.1) date Sat Jul 15 20:13:40 2017*
%MOMM*%
%LPD*%
G01*
G04 APERTURE LIST*
%ADD10C,0.100000*%
%ADD11R,1.750000X1.750000*%
%ADD12C,1.750000*%
%ADD13R,1.700000X1.700000*%
%ADD14O,1.700000X1.700000*%
%ADD15C,2.000000*%
%ADD16C,1.270000*%
G04 APERTURE END LIST*
D10*
D11*
X3810000Y-10160000D03*
D12*
X3810000Y-7660000D03*
X3810000Y-5160000D03*
D13*
X19050000Y16510000D03*
D14*
X19050000Y13970000D03*
X16510000Y16510000D03*
X16510000Y13970000D03*
X13970000Y16510000D03*
X13970000Y13970000D03*
X11430000Y16510000D03*
X11430000Y13970000D03*
X8890000Y16510000D03*
X8890000Y13970000D03*
X6350000Y16510000D03*
X6350000Y13970000D03*
X3810000Y16510000D03*
X3810000Y13970000D03*
X1270000Y16510000D03*
X1270000Y13970000D03*
X-1270000Y16510000D03*
X-1270000Y13970000D03*
X-3810000Y16510000D03*
X-3810000Y13970000D03*
X-6350000Y16510000D03*
X-6350000Y13970000D03*
X-8890000Y16510000D03*
X-8890000Y13970000D03*
X-11430000Y16510000D03*
X-11430000Y13970000D03*
X-13970000Y16510000D03*
X-13970000Y13970000D03*
X-16510000Y16510000D03*
X-16510000Y13970000D03*
X-19050000Y16510000D03*
X-19050000Y13970000D03*
D11*
X-19050000Y0D03*
D12*
X-19050000Y2500000D03*
D11*
X16510000Y-10160000D03*
D12*
X16510000Y-7660000D03*
X16510000Y-5160000D03*
D11*
X16510000Y-22860000D03*
D12*
X16510000Y-20360000D03*
X16510000Y-17860000D03*
D11*
X3810000Y-22860000D03*
D12*
X3810000Y-20360000D03*
X3810000Y-17860000D03*
D11*
X-8890000Y-10160000D03*
D12*
X-8890000Y-7660000D03*
X-8890000Y-5160000D03*
D11*
X-8890000Y-22860000D03*
D12*
X-8890000Y-20360000D03*
X-8890000Y-17860000D03*
D15*
X17780000Y7620000D03*
X19050000Y11430000D03*
X11430000Y5080000D03*
X16510000Y11430000D03*
X3810000Y2540000D03*
X13970000Y11430000D03*
X-1270000Y0D03*
X11430000Y11430000D03*
X-8890000Y6350000D03*
X-1270000Y6350000D03*
X-13970000Y8890000D03*
X-6350000Y8890000D03*
X-19050000Y11430000D03*
X-11430000Y11430000D03*
X-21590000Y16510000D03*
D16*
X21590000Y15240000D02*
X21590000Y10160000D01*
X21590000Y10160000D02*
X19050000Y7620000D01*
X19050000Y7620000D02*
X17780000Y7620000D01*
X17780000Y7620000D02*
X17780000Y7620000D01*
X19050000Y16510000D02*
X20320000Y16510000D01*
X20320000Y16510000D02*
X21590000Y15240000D01*
X19050000Y11430000D02*
X19050000Y13970000D01*
X21590000Y19050000D02*
X24130000Y16510000D01*
X16510000Y16510000D02*
X16510000Y17780000D01*
X16510000Y17780000D02*
X17780000Y19050000D01*
X11430000Y5080000D02*
X11430000Y5080000D01*
X20320000Y5080000D02*
X11430000Y5080000D01*
X24130000Y16510000D02*
X24130000Y8890000D01*
X24130000Y8890000D02*
X20320000Y5080000D01*
X17780000Y19050000D02*
X21590000Y19050000D01*
X16510000Y11430000D02*
X16510000Y13970000D01*
X13970000Y16510000D02*
X13970000Y19050000D01*
X13970000Y19050000D02*
X16510000Y21590000D01*
X16510000Y21590000D02*
X22860000Y21590000D01*
X22860000Y21590000D02*
X26670000Y17780000D01*
X26670000Y17780000D02*
X26670000Y7620000D01*
X26670000Y7620000D02*
X21590000Y2540000D01*
X21590000Y2540000D02*
X3810000Y2540000D01*
X13970000Y11430000D02*
X13970000Y13970000D01*
X11430000Y16510000D02*
X11430000Y20320000D01*
X22860000Y0D02*
X-1270000Y0D01*
X29210000Y6350000D02*
X22860000Y0D01*
X29210000Y19050000D02*
X29210000Y6350000D01*
X24130000Y24130000D02*
X29210000Y19050000D01*
X15240000Y24130000D02*
X24130000Y24130000D01*
X11430000Y20320000D02*
X15240000Y24130000D01*
X11430000Y13970000D02*
X11430000Y11430000D01*
X11430000Y11430000D02*
X11430000Y11430000D01*
X11430000Y11430000D02*
X11430000Y11430000D01*
X8890000Y16510000D02*
X8890000Y20320000D01*
X-29210000Y10160000D02*
X-25400000Y6350000D01*
X-25400000Y6350000D02*
X-8890000Y6350000D01*
X-29210000Y20320000D02*
X-29210000Y10160000D01*
X8890000Y20320000D02*
X5080000Y24130000D01*
X5080000Y24130000D02*
X-25400000Y24130000D01*
X-25400000Y24130000D02*
X-29210000Y20320000D01*
X8890000Y13970000D02*
X8890000Y13970000D01*
X8890000Y10160000D02*
X8890000Y13970000D01*
X5080000Y6350000D02*
X8890000Y10160000D01*
X-1270000Y6350000D02*
X5080000Y6350000D01*
X6350000Y16510000D02*
X6350000Y19050000D01*
X-24130000Y21590000D02*
X-26670000Y19050000D01*
X3810000Y21590000D02*
X-24130000Y21590000D01*
X6350000Y19050000D02*
X3810000Y21590000D01*
X-26670000Y19050000D02*
X-26670000Y11430000D01*
X-24130000Y8890000D02*
X-13970000Y8890000D01*
X-26670000Y11430000D02*
X-24130000Y8890000D01*
X3810000Y8890000D02*
X6350000Y11430000D01*
X6350000Y11430000D02*
X6350000Y13970000D01*
X3810000Y8890000D02*
X3810000Y8890000D01*
X-6350000Y8890000D02*
X3810000Y8890000D01*
X3810000Y16510000D02*
X3810000Y17780000D01*
X3810000Y17780000D02*
X2540000Y19050000D01*
X-24130000Y12700000D02*
X-22860000Y11430000D01*
X-22860000Y11430000D02*
X-19050000Y11430000D01*
X-24130000Y17780000D02*
X-24130000Y12700000D01*
X2540000Y19050000D02*
X-22860000Y19050000D01*
X-22860000Y19050000D02*
X-24130000Y17780000D01*
X2540000Y19050000D02*
X2540000Y19050000D01*
X3810000Y13970000D02*
X3810000Y12700000D01*
X3810000Y12700000D02*
X3810000Y12700000D01*
X3810000Y12700000D02*
X2540000Y11430000D01*
X2540000Y11430000D02*
X-11430000Y11430000D01*
X-19050000Y16510000D02*
X-21590000Y16510000D01*
M02*
