G04 #@! TF.FileFunction,Soldermask,Bot*
%FSLAX46Y46*%
G04 Gerber Fmt 4.6, Leading zero omitted, Abs format (unit mm)*
G04 Created by KiCad (PCBNEW 4.0.6-e0-6349~52~ubuntu16.10.1) date Tue Jul  4 23:13:23 2017*
%MOMM*%
%LPD*%
G01*
G04 APERTURE LIST*
%ADD10C,0.100000*%
%ADD11R,1.750000X1.750000*%
%ADD12C,1.750000*%
%ADD13R,1.700000X1.700000*%
%ADD14O,1.700000X1.700000*%
G04 APERTURE END LIST*
D10*
D11*
X36830000Y17780000D03*
D12*
X36830000Y20280000D03*
X36830000Y22780000D03*
D13*
X52070000Y44450000D03*
D14*
X52070000Y41910000D03*
X49530000Y44450000D03*
X49530000Y41910000D03*
X46990000Y44450000D03*
X46990000Y41910000D03*
X44450000Y44450000D03*
X44450000Y41910000D03*
X41910000Y44450000D03*
X41910000Y41910000D03*
X39370000Y44450000D03*
X39370000Y41910000D03*
X36830000Y44450000D03*
X36830000Y41910000D03*
X34290000Y44450000D03*
X34290000Y41910000D03*
X31750000Y44450000D03*
X31750000Y41910000D03*
X29210000Y44450000D03*
X29210000Y41910000D03*
X26670000Y44450000D03*
X26670000Y41910000D03*
X24130000Y44450000D03*
X24130000Y41910000D03*
X21590000Y44450000D03*
X21590000Y41910000D03*
X19050000Y44450000D03*
X19050000Y41910000D03*
X16510000Y44450000D03*
X16510000Y41910000D03*
X13970000Y44450000D03*
X13970000Y41910000D03*
D11*
X13970000Y27940000D03*
D12*
X13970000Y30440000D03*
D11*
X49530000Y17780000D03*
D12*
X49530000Y20280000D03*
X49530000Y22780000D03*
D11*
X49530000Y5080000D03*
D12*
X49530000Y7580000D03*
X49530000Y10080000D03*
D11*
X36830000Y5080000D03*
D12*
X36830000Y7580000D03*
X36830000Y10080000D03*
D11*
X24130000Y17780000D03*
D12*
X24130000Y20280000D03*
X24130000Y22780000D03*
D11*
X24130000Y5080000D03*
D12*
X24130000Y7580000D03*
X24130000Y10080000D03*
M02*
