G04 #@! TF.FileFunction,Copper,L1,Top,Signal*
%FSLAX46Y46*%
G04 Gerber Fmt 4.6, Leading zero omitted, Abs format (unit mm)*
G04 Created by KiCad (PCBNEW 4.0.6-e0-6349~52~ubuntu16.10.1) date Tue Jul  4 23:13:23 2017*
%MOMM*%
%LPD*%
G01*
G04 APERTURE LIST*
%ADD10C,0.100000*%
%ADD11R,1.750000X1.750000*%
%ADD12C,1.750000*%
%ADD13R,1.700000X1.700000*%
%ADD14O,1.700000X1.700000*%
%ADD15C,2.000000*%
%ADD16C,1.270000*%
G04 APERTURE END LIST*
D10*
D11*
X36830000Y17780000D03*
D12*
X36830000Y20280000D03*
X36830000Y22780000D03*
D13*
X52070000Y44450000D03*
D14*
X52070000Y41910000D03*
X49530000Y44450000D03*
X49530000Y41910000D03*
X46990000Y44450000D03*
X46990000Y41910000D03*
X44450000Y44450000D03*
X44450000Y41910000D03*
X41910000Y44450000D03*
X41910000Y41910000D03*
X39370000Y44450000D03*
X39370000Y41910000D03*
X36830000Y44450000D03*
X36830000Y41910000D03*
X34290000Y44450000D03*
X34290000Y41910000D03*
X31750000Y44450000D03*
X31750000Y41910000D03*
X29210000Y44450000D03*
X29210000Y41910000D03*
X26670000Y44450000D03*
X26670000Y41910000D03*
X24130000Y44450000D03*
X24130000Y41910000D03*
X21590000Y44450000D03*
X21590000Y41910000D03*
X19050000Y44450000D03*
X19050000Y41910000D03*
X16510000Y44450000D03*
X16510000Y41910000D03*
X13970000Y44450000D03*
X13970000Y41910000D03*
D11*
X13970000Y27940000D03*
D12*
X13970000Y30440000D03*
D11*
X49530000Y17780000D03*
D12*
X49530000Y20280000D03*
X49530000Y22780000D03*
D11*
X49530000Y5080000D03*
D12*
X49530000Y7580000D03*
X49530000Y10080000D03*
D11*
X36830000Y5080000D03*
D12*
X36830000Y7580000D03*
X36830000Y10080000D03*
D11*
X24130000Y17780000D03*
D12*
X24130000Y20280000D03*
X24130000Y22780000D03*
D11*
X24130000Y5080000D03*
D12*
X24130000Y7580000D03*
X24130000Y10080000D03*
D15*
X50800000Y35560000D03*
X52070000Y39370000D03*
X44450000Y33020000D03*
X49530000Y39370000D03*
X36830000Y30480000D03*
X46990000Y39370000D03*
X31750000Y27940000D03*
X44450000Y39370000D03*
X24130000Y34290000D03*
X31750000Y34290000D03*
X19050000Y36830000D03*
X26670000Y36830000D03*
X13970000Y39370000D03*
X21590000Y39370000D03*
X11430000Y44450000D03*
D16*
X54610000Y43180000D02*
X54610000Y38100000D01*
X54610000Y38100000D02*
X52070000Y35560000D01*
X52070000Y35560000D02*
X50800000Y35560000D01*
X50800000Y35560000D02*
X50800000Y35560000D01*
X52070000Y44450000D02*
X53340000Y44450000D01*
X53340000Y44450000D02*
X54610000Y43180000D01*
X52070000Y39370000D02*
X52070000Y41910000D01*
X54610000Y46990000D02*
X57150000Y44450000D01*
X49530000Y44450000D02*
X49530000Y45720000D01*
X49530000Y45720000D02*
X50800000Y46990000D01*
X44450000Y33020000D02*
X44450000Y33020000D01*
X53340000Y33020000D02*
X44450000Y33020000D01*
X57150000Y44450000D02*
X57150000Y36830000D01*
X57150000Y36830000D02*
X53340000Y33020000D01*
X50800000Y46990000D02*
X54610000Y46990000D01*
X49530000Y39370000D02*
X49530000Y41910000D01*
X46990000Y44450000D02*
X46990000Y46990000D01*
X46990000Y46990000D02*
X49530000Y49530000D01*
X49530000Y49530000D02*
X55880000Y49530000D01*
X55880000Y49530000D02*
X59690000Y45720000D01*
X59690000Y45720000D02*
X59690000Y35560000D01*
X59690000Y35560000D02*
X54610000Y30480000D01*
X54610000Y30480000D02*
X36830000Y30480000D01*
X46990000Y39370000D02*
X46990000Y41910000D01*
X44450000Y44450000D02*
X44450000Y48260000D01*
X55880000Y27940000D02*
X31750000Y27940000D01*
X62230000Y34290000D02*
X55880000Y27940000D01*
X62230000Y46990000D02*
X62230000Y34290000D01*
X57150000Y52070000D02*
X62230000Y46990000D01*
X48260000Y52070000D02*
X57150000Y52070000D01*
X44450000Y48260000D02*
X48260000Y52070000D01*
X44450000Y41910000D02*
X44450000Y39370000D01*
X44450000Y39370000D02*
X44450000Y39370000D01*
X44450000Y39370000D02*
X44450000Y39370000D01*
X41910000Y44450000D02*
X41910000Y48260000D01*
X3810000Y38100000D02*
X7620000Y34290000D01*
X7620000Y34290000D02*
X24130000Y34290000D01*
X3810000Y48260000D02*
X3810000Y38100000D01*
X41910000Y48260000D02*
X38100000Y52070000D01*
X38100000Y52070000D02*
X7620000Y52070000D01*
X7620000Y52070000D02*
X3810000Y48260000D01*
X41910000Y41910000D02*
X41910000Y41910000D01*
X41910000Y38100000D02*
X41910000Y41910000D01*
X38100000Y34290000D02*
X41910000Y38100000D01*
X31750000Y34290000D02*
X38100000Y34290000D01*
X39370000Y44450000D02*
X39370000Y46990000D01*
X8890000Y49530000D02*
X6350000Y46990000D01*
X36830000Y49530000D02*
X8890000Y49530000D01*
X39370000Y46990000D02*
X36830000Y49530000D01*
X6350000Y46990000D02*
X6350000Y39370000D01*
X8890000Y36830000D02*
X19050000Y36830000D01*
X6350000Y39370000D02*
X8890000Y36830000D01*
X36830000Y36830000D02*
X39370000Y39370000D01*
X39370000Y39370000D02*
X39370000Y41910000D01*
X36830000Y36830000D02*
X36830000Y36830000D01*
X26670000Y36830000D02*
X36830000Y36830000D01*
X36830000Y44450000D02*
X36830000Y45720000D01*
X36830000Y45720000D02*
X35560000Y46990000D01*
X8890000Y40640000D02*
X10160000Y39370000D01*
X10160000Y39370000D02*
X13970000Y39370000D01*
X8890000Y45720000D02*
X8890000Y40640000D01*
X35560000Y46990000D02*
X10160000Y46990000D01*
X10160000Y46990000D02*
X8890000Y45720000D01*
X35560000Y46990000D02*
X35560000Y46990000D01*
X36830000Y41910000D02*
X36830000Y40640000D01*
X36830000Y40640000D02*
X36830000Y40640000D01*
X36830000Y40640000D02*
X35560000Y39370000D01*
X35560000Y39370000D02*
X21590000Y39370000D01*
X13970000Y44450000D02*
X11430000Y44450000D01*
M02*
