G04 #@! TF.FileFunction,Other,User*
%FSLAX46Y46*%
G04 Gerber Fmt 4.6, Leading zero omitted, Abs format (unit mm)*
G04 Created by KiCad (PCBNEW 4.0.6-e0-6349~52~ubuntu16.10.1) date Tue Jul  4 23:13:23 2017*
%MOMM*%
%LPD*%
G01*
G04 APERTURE LIST*
%ADD10C,0.100000*%
%ADD11C,0.050000*%
G04 APERTURE END LIST*
D10*
D11*
X33980000Y14830000D02*
X40730000Y14830000D01*
X40730000Y14830000D02*
X40730000Y25730000D01*
X40730000Y25730000D02*
X33980000Y25730000D01*
X33980000Y25730000D02*
X33980000Y14830000D01*
X53870000Y46250000D02*
X12170000Y46250000D01*
X12170000Y46250000D02*
X12170000Y40100000D01*
X12170000Y40100000D02*
X53870000Y40100000D01*
X53870000Y40100000D02*
X53870000Y46250000D01*
X11120000Y24990000D02*
X17870000Y24990000D01*
X17870000Y24990000D02*
X17870000Y33390000D01*
X17870000Y33390000D02*
X11120000Y33390000D01*
X11120000Y33390000D02*
X11120000Y24990000D01*
X46680000Y14830000D02*
X53430000Y14830000D01*
X53430000Y14830000D02*
X53430000Y25730000D01*
X53430000Y25730000D02*
X46680000Y25730000D01*
X46680000Y25730000D02*
X46680000Y14830000D01*
X46680000Y2130000D02*
X53430000Y2130000D01*
X53430000Y2130000D02*
X53430000Y13030000D01*
X53430000Y13030000D02*
X46680000Y13030000D01*
X46680000Y13030000D02*
X46680000Y2130000D01*
X33980000Y2130000D02*
X40730000Y2130000D01*
X40730000Y2130000D02*
X40730000Y13030000D01*
X40730000Y13030000D02*
X33980000Y13030000D01*
X33980000Y13030000D02*
X33980000Y2130000D01*
X21280000Y14830000D02*
X28030000Y14830000D01*
X28030000Y14830000D02*
X28030000Y25730000D01*
X28030000Y25730000D02*
X21280000Y25730000D01*
X21280000Y25730000D02*
X21280000Y14830000D01*
X21280000Y2130000D02*
X28030000Y2130000D01*
X28030000Y2130000D02*
X28030000Y13030000D01*
X28030000Y13030000D02*
X21280000Y13030000D01*
X21280000Y13030000D02*
X21280000Y2130000D01*
M02*
