M48
;DRILL file {KiCad 4.0.6-e0-6349~52~ubuntu16.10.1} date Tue Jul 11 23:31:02 2017
;FORMAT={-:-/ absolute / metric / decimal}
FMAT,2
METRIC,TZ
T1C1.000
T2C1.050
%
G90
G05
M71
T1
X-21.59Y16.51
X-19.05Y16.51
X-19.05Y13.97
X-19.05Y11.43
X-16.51Y16.51
X-16.51Y13.97
X-13.97Y16.51
X-13.97Y13.97
X-13.97Y8.89
X-11.43Y16.51
X-11.43Y13.97
X-11.43Y11.43
X-8.89Y16.51
X-8.89Y13.97
X-8.89Y6.35
X-8.89Y-5.16
X-8.89Y-7.66
X-8.89Y-10.16
X-8.89Y-17.86
X-8.89Y-20.36
X-8.89Y-22.86
X-6.35Y16.51
X-6.35Y13.97
X-6.35Y8.89
X-3.81Y16.51
X-3.81Y13.97
X-1.27Y16.51
X-1.27Y13.97
X-1.27Y6.35
X-1.27Y0.
X1.27Y16.51
X1.27Y13.97
X3.81Y16.51
X3.81Y13.97
X3.81Y2.54
X3.81Y-5.16
X3.81Y-7.66
X3.81Y-10.16
X3.81Y-17.86
X3.81Y-20.36
X3.81Y-22.86
X6.35Y16.51
X6.35Y13.97
X8.89Y16.51
X8.89Y13.97
X11.43Y16.51
X11.43Y13.97
X11.43Y11.43
X11.43Y5.08
X13.97Y16.51
X13.97Y13.97
X13.97Y11.43
X16.51Y16.51
X16.51Y13.97
X16.51Y11.43
X16.51Y-5.16
X16.51Y-7.66
X16.51Y-10.16
X16.51Y-17.86
X16.51Y-20.36
X16.51Y-22.86
X17.78Y7.62
X19.05Y16.51
X19.05Y13.97
X19.05Y11.43
T2
X-19.05Y2.5
X-19.05Y0.
T0
M30
