G04 #@! TF.FileFunction,Other,User*
%FSLAX46Y46*%
G04 Gerber Fmt 4.6, Leading zero omitted, Abs format (unit mm)*
G04 Created by KiCad (PCBNEW 4.0.6-e0-6349~52~ubuntu16.10.1) date Sat Jul 15 20:13:41 2017*
%MOMM*%
%LPD*%
G01*
G04 APERTURE LIST*
%ADD10C,0.100000*%
%ADD11C,0.050000*%
G04 APERTURE END LIST*
D10*
D11*
X960000Y-13110000D02*
X7710000Y-13110000D01*
X7710000Y-13110000D02*
X7710000Y-2210000D01*
X7710000Y-2210000D02*
X960000Y-2210000D01*
X960000Y-2210000D02*
X960000Y-13110000D01*
X20850000Y18310000D02*
X-20850000Y18310000D01*
X-20850000Y18310000D02*
X-20850000Y12160000D01*
X-20850000Y12160000D02*
X20850000Y12160000D01*
X20850000Y12160000D02*
X20850000Y18310000D01*
X-21900000Y-2950000D02*
X-15150000Y-2950000D01*
X-15150000Y-2950000D02*
X-15150000Y5450000D01*
X-15150000Y5450000D02*
X-21900000Y5450000D01*
X-21900000Y5450000D02*
X-21900000Y-2950000D01*
X13660000Y-13110000D02*
X20410000Y-13110000D01*
X20410000Y-13110000D02*
X20410000Y-2210000D01*
X20410000Y-2210000D02*
X13660000Y-2210000D01*
X13660000Y-2210000D02*
X13660000Y-13110000D01*
X13660000Y-25810000D02*
X20410000Y-25810000D01*
X20410000Y-25810000D02*
X20410000Y-14910000D01*
X20410000Y-14910000D02*
X13660000Y-14910000D01*
X13660000Y-14910000D02*
X13660000Y-25810000D01*
X960000Y-25810000D02*
X7710000Y-25810000D01*
X7710000Y-25810000D02*
X7710000Y-14910000D01*
X7710000Y-14910000D02*
X960000Y-14910000D01*
X960000Y-14910000D02*
X960000Y-25810000D01*
X-11740000Y-13110000D02*
X-4990000Y-13110000D01*
X-4990000Y-13110000D02*
X-4990000Y-2210000D01*
X-4990000Y-2210000D02*
X-11740000Y-2210000D01*
X-11740000Y-2210000D02*
X-11740000Y-13110000D01*
X-11740000Y-25810000D02*
X-4990000Y-25810000D01*
X-4990000Y-25810000D02*
X-4990000Y-14910000D01*
X-4990000Y-14910000D02*
X-11740000Y-14910000D01*
X-11740000Y-14910000D02*
X-11740000Y-25810000D01*
M02*
