G04 #@! TF.FileFunction,Copper,L2,Bot,Signal*
%FSLAX46Y46*%
G04 Gerber Fmt 4.6, Leading zero omitted, Abs format (unit mm)*
G04 Created by KiCad (PCBNEW 4.0.6-e0-6349~52~ubuntu16.10.1) date Sat Jul 15 20:13:40 2017*
%MOMM*%
%LPD*%
G01*
G04 APERTURE LIST*
%ADD10C,0.100000*%
%ADD11R,1.750000X1.750000*%
%ADD12C,1.750000*%
%ADD13R,1.700000X1.700000*%
%ADD14O,1.700000X1.700000*%
%ADD15C,2.000000*%
%ADD16C,1.270000*%
G04 APERTURE END LIST*
D10*
D11*
X3810000Y-10160000D03*
D12*
X3810000Y-7660000D03*
X3810000Y-5160000D03*
D13*
X19050000Y16510000D03*
D14*
X19050000Y13970000D03*
X16510000Y16510000D03*
X16510000Y13970000D03*
X13970000Y16510000D03*
X13970000Y13970000D03*
X11430000Y16510000D03*
X11430000Y13970000D03*
X8890000Y16510000D03*
X8890000Y13970000D03*
X6350000Y16510000D03*
X6350000Y13970000D03*
X3810000Y16510000D03*
X3810000Y13970000D03*
X1270000Y16510000D03*
X1270000Y13970000D03*
X-1270000Y16510000D03*
X-1270000Y13970000D03*
X-3810000Y16510000D03*
X-3810000Y13970000D03*
X-6350000Y16510000D03*
X-6350000Y13970000D03*
X-8890000Y16510000D03*
X-8890000Y13970000D03*
X-11430000Y16510000D03*
X-11430000Y13970000D03*
X-13970000Y16510000D03*
X-13970000Y13970000D03*
X-16510000Y16510000D03*
X-16510000Y13970000D03*
X-19050000Y16510000D03*
X-19050000Y13970000D03*
D11*
X-19050000Y0D03*
D12*
X-19050000Y2500000D03*
D11*
X16510000Y-10160000D03*
D12*
X16510000Y-7660000D03*
X16510000Y-5160000D03*
D11*
X16510000Y-22860000D03*
D12*
X16510000Y-20360000D03*
X16510000Y-17860000D03*
D11*
X3810000Y-22860000D03*
D12*
X3810000Y-20360000D03*
X3810000Y-17860000D03*
D11*
X-8890000Y-10160000D03*
D12*
X-8890000Y-7660000D03*
X-8890000Y-5160000D03*
D11*
X-8890000Y-22860000D03*
D12*
X-8890000Y-20360000D03*
X-8890000Y-17860000D03*
D15*
X17780000Y7620000D03*
X19050000Y11430000D03*
X11430000Y5080000D03*
X16510000Y11430000D03*
X3810000Y2540000D03*
X13970000Y11430000D03*
X-1270000Y0D03*
X11430000Y11430000D03*
X-8890000Y6350000D03*
X-1270000Y6350000D03*
X-13970000Y8890000D03*
X-6350000Y8890000D03*
X-19050000Y11430000D03*
X-11430000Y11430000D03*
X-21590000Y16510000D03*
D16*
X16590000Y-5080000D02*
X16480743Y-5079831D01*
X16480743Y-5079831D02*
X16510000Y6350000D01*
X16510000Y6350000D02*
X17860000Y7540000D01*
X16590000Y-5080000D02*
X16510000Y-5160000D01*
X17780000Y7620000D02*
X17860000Y7540000D01*
X17860000Y7540000D02*
X17780000Y7620000D01*
X16510000Y-7660000D02*
X19050000Y-7620000D01*
X19050000Y-7620000D02*
X20320000Y-6350000D01*
X20320000Y-6350000D02*
X20320000Y-6350000D01*
X16510000Y-7660000D02*
X16470000Y-7700000D01*
X20320000Y-6350000D02*
X20320000Y10160000D01*
X20320000Y10160000D02*
X19050000Y11430000D01*
X20320000Y-6350000D02*
X20280000Y-6310000D01*
X16430010Y-17780010D02*
X13970000Y-17780000D01*
X13970000Y-17780000D02*
X11430000Y-15240000D01*
X11430000Y-15240000D02*
X11510000Y5000000D01*
X16430010Y-17780010D02*
X16510000Y-17860000D01*
X11430000Y5080000D02*
X11510000Y5000000D01*
X11510000Y5000000D02*
X11430000Y5080000D01*
X19050000Y-15240000D02*
X19050000Y-19050000D01*
X19010000Y-19090000D02*
X17780000Y-20320000D01*
X17780000Y-20320000D02*
X16510000Y-20360000D01*
X19050000Y-19050000D02*
X19010000Y-19090000D01*
X13970000Y-12700000D02*
X15240000Y-13970000D01*
X15240000Y-13970000D02*
X17780000Y-13970000D01*
X17780000Y-13970000D02*
X19050000Y-15240000D01*
X19050000Y-15240000D02*
X19010000Y-15280000D01*
X13970000Y-12700000D02*
X13970000Y7620000D01*
X16510000Y10160000D02*
X16510000Y11430000D01*
X13970000Y7620000D02*
X16510000Y10160000D01*
X13970000Y-12700000D02*
X13970000Y-12700000D01*
X13970000Y-12700000D02*
X13930000Y-12660000D01*
X3810000Y2540000D02*
X3810000Y-5080000D01*
X3810000Y-5080000D02*
X4064000Y-5334000D01*
X3810000Y2540000D02*
X3890000Y2460000D01*
X6350000Y3810000D02*
X6350000Y3810000D01*
X6350000Y3810000D02*
X6350000Y3810000D01*
X6350000Y3810000D02*
X6350000Y3810000D01*
X6350000Y3810000D02*
X11430000Y8890000D01*
X11430000Y8890000D02*
X12700000Y8890000D01*
X12700000Y8890000D02*
X13970000Y10160000D01*
X13970000Y10160000D02*
X13970000Y11430000D01*
X13970000Y11430000D02*
X13970000Y10809542D01*
X13970000Y10809542D02*
X14010000Y11390000D01*
X14010000Y11390000D02*
X13970000Y11430000D01*
X6350000Y3810000D02*
X6350000Y-6350000D01*
X6350000Y-6350000D02*
X5080000Y-7620000D01*
X5080000Y-7620000D02*
X3810000Y-7620000D01*
X3810000Y-7620000D02*
X3770000Y-7580000D01*
X1270000Y-17780000D02*
X-1270000Y-15240000D01*
X3730000Y-17780000D02*
X1270000Y-17780000D01*
X-1270000Y-15240000D02*
X-1270000Y0D01*
X3730000Y-17780000D02*
X3810000Y-17860000D01*
X-1270000Y0D02*
X-1190000Y-80000D01*
X1270000Y-12700000D02*
X2540000Y-13970000D01*
X2540000Y-13970000D02*
X5080000Y-13970000D01*
X1270000Y7620000D02*
X1270000Y-12700000D01*
X6350000Y-19050000D02*
X5080000Y-20360000D01*
X5080000Y-20360000D02*
X3810000Y-20360000D01*
X6390000Y-19010000D02*
X6350000Y-19050000D01*
X5080000Y-13970000D02*
X6350000Y-15240000D01*
X6350000Y-15240000D02*
X6390000Y-19010000D01*
X1270000Y7620000D02*
X5080000Y11430000D01*
X5080000Y11430000D02*
X11430000Y11430000D01*
X-8890000Y-5160000D02*
X-8890000Y6350000D01*
X-8890000Y6350000D02*
X-8810000Y6270000D01*
X-8890000Y-5080000D02*
X-8970000Y-5000000D01*
X-6350000Y-6350000D02*
X-6350000Y1270000D01*
X-7620000Y-7620000D02*
X-6350000Y-6350000D01*
X-8850000Y-7620000D02*
X-7620000Y-7620000D01*
X-6350000Y1270000D02*
X-1270000Y6350000D01*
X-1270000Y6350000D02*
X-1270000Y6350000D01*
X-8850000Y-7620000D02*
X-8890000Y-7660000D01*
X-11430000Y-17780000D02*
X-13970000Y-15240000D01*
X-8890000Y-17780000D02*
X-11430000Y-17780000D01*
X-13970000Y-15240000D02*
X-13970000Y8890000D01*
X-13970000Y8890000D02*
X-13890000Y8810000D01*
X-7620000Y-13970000D02*
X-6350000Y-15240000D01*
X-6350000Y-15240000D02*
X-6350000Y-19050000D01*
X-11430000Y-12700000D02*
X-10160000Y-13970000D01*
X-10160000Y-13970000D02*
X-7620000Y-13970000D01*
X-6390000Y-19090000D02*
X-7620000Y-20360000D01*
X-7620000Y-20360000D02*
X-8890000Y-20360000D01*
X-6350000Y-19050000D02*
X-6390000Y-19090000D01*
X-11430000Y-12700000D02*
X-11430000Y-12620000D01*
X-6350000Y8890000D02*
X-6350000Y8890000D01*
X-11430000Y7620000D02*
X-10160000Y8890000D01*
X-10160000Y8890000D02*
X-6350000Y8890000D01*
X-11430000Y-12620000D02*
X-11430000Y7620000D01*
X-11430000Y-12700000D02*
X-11470000Y-12660000D01*
X-19010000Y11390000D02*
X-19050000Y2540000D01*
X-19050000Y11430000D02*
X-19010000Y11390000D01*
X-19050000Y2540000D02*
X-19090000Y2580000D01*
X-16510000Y1270000D02*
X-16510000Y10160000D01*
X-16510000Y10160000D02*
X-15240000Y11430000D01*
X-15240000Y11430000D02*
X-11430000Y11430000D01*
X-16510000Y1270000D02*
X-16510000Y1270000D01*
X-16510000Y1270000D02*
X-17780000Y0D01*
X-17780000Y0D02*
X-19050000Y0D01*
X3810000Y-22860000D02*
X-3810000Y-22860000D01*
X16510000Y-22860000D02*
X8890000Y-22860000D01*
X3810000Y-22860000D02*
X8890000Y-22860000D01*
X21590000Y-21590000D02*
X20320000Y-22860000D01*
X20320000Y-22860000D02*
X16510000Y-22860000D01*
X-3810000Y-22860000D02*
X-8890000Y-22860000D01*
X-8890000Y-10160000D02*
X-5080000Y-10160000D01*
X-5080000Y-10160000D02*
X-3810000Y-11430000D01*
X-3810000Y-11430000D02*
X-3810000Y-22860000D01*
X-21590000Y16510000D02*
X-21590000Y-15240000D01*
X-8890000Y-22860000D02*
X-13970000Y-22860000D01*
X-13970000Y-22860000D02*
X-21590000Y-15240000D01*
X3810000Y-10160000D02*
X7620000Y-10160000D01*
X7620000Y-10160000D02*
X8890000Y-11430000D01*
X8890000Y-11430000D02*
X8890000Y-22860000D01*
X16510000Y-10160000D02*
X20320000Y-10160000D01*
X20320000Y-10160000D02*
X21590000Y-11430000D01*
X21590000Y-11430000D02*
X21590000Y-21590000D01*
M02*
