M48
;DRILL file {KiCad 4.0.6-e0-6349~52~ubuntu16.10.1} date Tue Jul  4 23:13:19 2017
;FORMAT={-:-/ absolute / metric / decimal}
FMAT,2
METRIC,TZ
T1C1.000
T2C1.050
%
G90
G05
M71
T1
X11.43Y44.45
X13.97Y44.45
X13.97Y41.91
X13.97Y39.37
X16.51Y44.45
X16.51Y41.91
X19.05Y44.45
X19.05Y41.91
X19.05Y36.83
X21.59Y44.45
X21.59Y41.91
X21.59Y39.37
X24.13Y44.45
X24.13Y41.91
X24.13Y34.29
X24.13Y22.78
X24.13Y20.28
X24.13Y17.78
X24.13Y10.08
X24.13Y7.58
X24.13Y5.08
X26.67Y44.45
X26.67Y41.91
X26.67Y36.83
X29.21Y44.45
X29.21Y41.91
X31.75Y44.45
X31.75Y41.91
X31.75Y34.29
X31.75Y27.94
X34.29Y44.45
X34.29Y41.91
X36.83Y44.45
X36.83Y41.91
X36.83Y30.48
X36.83Y22.78
X36.83Y20.28
X36.83Y17.78
X36.83Y10.08
X36.83Y7.58
X36.83Y5.08
X39.37Y44.45
X39.37Y41.91
X41.91Y44.45
X41.91Y41.91
X44.45Y44.45
X44.45Y41.91
X44.45Y39.37
X44.45Y33.02
X46.99Y44.45
X46.99Y41.91
X46.99Y39.37
X49.53Y44.45
X49.53Y41.91
X49.53Y39.37
X49.53Y22.78
X49.53Y20.28
X49.53Y17.78
X49.53Y10.08
X49.53Y7.58
X49.53Y5.08
X50.8Y35.56
X52.07Y44.45
X52.07Y41.91
X52.07Y39.37
T2
X13.97Y30.44
X13.97Y27.94
T0
M30
